{
DisplayStrings = (

glyphs = (
{
color = 6;
glyphname = tlA;
lastChange = "2015-11-17 12:40:00 +0000";
layers = (
{
layerId = "59118767-2CA9-48AA-9373-694D24C960D8";
name = Regular;
paths = (
{
closed = 1;
nodes = (
"475 -12 OFFCURVE",
"720 124 OFFCURVE",
"720 338 CURVE SMOOTH",
"720 452 OFFCURVE",
"635 522 OFFCURVE",
"534 522 CURVE SMOOTH",
"385 522 OFFCURVE",
"285 372 OFFCURVE",
"285 270 CURVE SMOOTH",
"285 224 OFFCURVE",
"306 184 OFFCURVE",
"354 173 CURVE",
"318 148 OFFCURVE",
"271 112 OFFCURVE",
"232 95 CURVE",
"297 77 LINE",
"387 136 OFFCURVE",
"459 188 OFFCURVE",
"507 236 CURVE SMOOTH",
"527 256 OFFCURVE",
"503 277 OFFCURVE",
"481 265 CURVE SMOOTH",
"470 259 OFFCURVE",
"463 249 OFFCURVE",
"434 249 CURVE SMOOTH",
"317 249 OFFCURVE",
"355 425 OFFCURVE",
"487 425 CURVE SMOOTH",
"565 425 OFFCURVE",
"623 365 OFFCURVE",
"623 286 CURVE SMOOTH",
"623 151 OFFCURVE",
"483 85 OFFCURVE",
"347 85 CURVE SMOOTH",
"226 85 OFFCURVE",
"115 129 OFFCURVE",
"115 232 CURVE SMOOTH",
"115 313 OFFCURVE",
"166 320 OFFCURVE",
"190 323 CURVE SMOOTH",
"232 328 OFFCURVE",
"280 414 OFFCURVE",
"280 444 CURVE SMOOTH",
"280 453 OFFCURVE",
"276 459 OFFCURVE",
"259 459 CURVE SMOOTH",
"179 459 OFFCURVE",
"39 325 OFFCURVE",
"39 183 CURVE SMOOTH",
"39 49 OFFCURVE",
"146 -12 OFFCURVE",
"277 -12 CURVE SMOOTH"
);
},
{
closed = 1;
nodes = (
"123 -57 OFFCURVE",
"180 -19 OFFCURVE",
"256 37 CURVE",
"206 61 LINE",
"115 2 OFFCURVE",
"98 -4 OFFCURVE",
"24 -54 CURVE SMOOTH",
"21 -56 OFFCURVE",
"20 -60 OFFCURVE",
"20 -65 CURVE SMOOTH",
"20 -77 OFFCURVE",
"27 -94 OFFCURVE",
"33 -100 CURVE SMOOTH",
"42 -110 OFFCURVE",
"52 -106 OFFCURVE",
"55 -104 CURVE SMOOTH"
);
}
);
width = 735;
}
);
leftKerningGroup = tlA;
rightKerningGroup = tlA;
unicode = 0C05;
},
{
color = 6;
glyphname = tlAA;
lastChange = "2015-11-17 12:42:46 +0000";
layers = (
{
layerId = "59118767-2CA9-48AA-9373-694D24C960D8";
name = Regular;
paths = (
{
closed = 1;
nodes = (
"504 -13 OFFCURVE",
"617 126 OFFCURVE",
"617 206 CURVE SMOOTH",
"617 299 OFFCURVE",
"464 317 OFFCURVE",
"464 397 CURVE SMOOTH",
"464 431 OFFCURVE",
"491 455 OFFCURVE",
"521 455 CURVE SMOOTH",
"552 455 OFFCURVE",
"570 431 OFFCURVE",
"570 400 CURVE SMOOTH",
"570 371 OFFCURVE",
"554 336 OFFCURVE",
"516 310 CURVE",
"537 271 LINE",
"622 327 OFFCURVE",
"662 399 OFFCURVE",
"662 447 CURVE SMOOTH",
"662 492 OFFCURVE",
"628 524 OFFCURVE",
"568 524 CURVE SMOOTH",
"469 524 OFFCURVE",
"383 439 OFFCURVE",
"383 355 CURVE SMOOTH",
"383 242 OFFCURVE",
"529 244 OFFCURVE",
"529 172 CURVE SMOOTH",
"529 118 OFFCURVE",
"449 84 OFFCURVE",
"356 84 CURVE SMOOTH",
"256 84 OFFCURVE",
"132 124 OFFCURVE",
"132 238 CURVE SMOOTH",
"132 311 OFFCURVE",
"181 320 OFFCURVE",
"207 324 CURVE SMOOTH",
"252 331 OFFCURVE",
"295 416 OFFCURVE",
"295 445 CURVE SMOOTH",
"295 453 OFFCURVE",
"291 459 OFFCURVE",
"274 459 CURVE SMOOTH",
"197 459 OFFCURVE",
"54 330 OFFCURVE",
"54 181 CURVE SMOOTH",
"54 45 OFFCURVE",
"172 -13 OFFCURVE",
"302 -13 CURVE SMOOTH"
);
},
{
closed = 1;
nodes = (
"-24 -106 OFFCURVE",
"-21 -105 OFFCURVE",
"-19 -104 CURVE SMOOTH",
"49 -57 OFFCURVE",
"106 -19 OFFCURVE",
"182 37 CURVE",
"127 68 LINE",
"43 14 OFFCURVE",
"-1 -10 OFFCURVE",
"-55 -47 CURVE SMOOTH",
"-58 -49 OFFCURVE",
"-60 -53 OFFCURVE",
"-60 -57 CURVE SMOOTH",
"-60 -66 OFFCURVE",
"-45 -95 OFFCURVE",
"-41 -100 CURVE SMOOTH",
"-38 -104 OFFCURVE",
"-35 -106 OFFCURVE",
"-29 -106 CURVE SMOOTH"
);
},
{
closed = 1;
nodes = (
"300 115 OFFCURVE",
"419 193 OFFCURVE",
"537 271 CURVE",
"516 320 LINE",
"378 223 OFFCURVE",
"223 131 OFFCURVE",
"127 68 CURVE",
"182 37 LINE"
);
}
);
width = 672;
}
);
leftKerningGroup = tlAA;
rightKerningGroup = tlAA;
unicode = 0C06;
},
{
color = 6;
glyphname = tlI;
lastChange = "2015-11-22 14:13:06 +0000";
layers = (
{
components = (
{
name = "CC-I-Telugu";
transform = "{1, 0, 0, 1, 25, 0}";
}
);
layerId = "59118767-2CA9-48AA-9373-694D24C960D8";
name = Regular;
paths = (
{
closed = 1;
nodes = (
"529 -13 OFFCURVE",
"553 -1 OFFCURVE",
"569 13 CURVE SMOOTH",
"589 31 OFFCURVE",
"598 52 OFFCURVE",
"598 78 CURVE SMOOTH",
"598 182 OFFCURVE",
"449 251 OFFCURVE",
"310 251 CURVE SMOOTH",
"151 251 OFFCURVE",
"45 161 OFFCURVE",
"45 79 CURVE SMOOTH",
"45 20 OFFCURVE",
"99 -11 OFFCURVE",
"172 -11 CURVE SMOOTH",
"263 -11 OFFCURVE",
"387 37 OFFCURVE",
"458 118 CURVE",
"412 156 LINE",
"361 110 OFFCURVE",
"271 78 OFFCURVE",
"210 78 CURVE SMOOTH",
"168 78 OFFCURVE",
"140 93 OFFCURVE",
"140 119 CURVE SMOOTH",
"140 157 OFFCURVE",
"197 188 OFFCURVE",
"267 188 CURVE SMOOTH",
"345 188 OFFCURVE",
"463 148 OFFCURVE",
"500 -2 CURVE SMOOTH",
"501 -7 OFFCURVE",
"503 -13 OFFCURVE",
"514 -13 CURVE SMOOTH"
);
}
);
width = 643;
}
);
leftKerningGroup = tlI;
rightKerningGroup = tlI;
unicode = 0C07;
},
{
color = 6;
glyphname = tlII;
lastChange = "2015-11-22 14:07:09 +0000";
layers = (
{
components = (
{
name = tlRA;
transform = "{1, 0, 0, 1, 25, 0}";
}
);
layerId = "59118767-2CA9-48AA-9373-694D24C960D8";
name = Regular;
paths = (
{
closed = 1;
nodes = (
"778 -13 OFFCURVE",
"884 84 OFFCURVE",
"884 176 CURVE SMOOTH",
"884 276 OFFCURVE",
"796 282 OFFCURVE",
"686 274 CURVE",
"707 327 OFFCURVE",
"715 375 OFFCURVE",
"715 414 CURVE SMOOTH",
"715 481 OFFCURVE",
"691 523 OFFCURVE",
"655 523 CURVE SMOOTH",
"619 523 OFFCURVE",
"580 471 OFFCURVE",
"580 438 CURVE SMOOTH",
"580 424 OFFCURVE",
"587 420 OFFCURVE",
"593 414 CURVE SMOOTH",
"643 366 OFFCURVE",
"642 312 OFFCURVE",
"627 267 CURVE",
"604 265 OFFCURVE",
"581 264 OFFCURVE",
"534 263 CURVE",
"475 257 LINE",
"330 244 OFFCURVE",
"173 236 OFFCURVE",
"102 236 CURVE SMOOTH",
"75 236 OFFCURVE",
"55 238 OFFCURVE",
"38 201 CURVE SMOOTH",
"33 189 OFFCURVE",
"30 177 OFFCURVE",
"30 172 CURVE SMOOTH",
"30 163 OFFCURVE",
"39 164 OFFCURVE",
"48 165 CURVE SMOOTH",
"72 168 OFFCURVE",
"143 176 OFFCURVE",
"260 184 CURVE SMOOTH",
"469 197 LINE",
"604 198 LINE",
"583 160 OFFCURVE",
"572 122 OFFCURVE",
"572 88 CURVE SMOOTH",
"572 30 OFFCURVE",
"606 -13 OFFCURVE",
"683 -13 CURVE SMOOTH"
);
},
{
closed = 1;
nodes = (
"688 75 OFFCURVE",
"646 97 OFFCURVE",
"646 142 CURVE SMOOTH",
"646 158 OFFCURVE",
"649 177 OFFCURVE",
"658 196 CURVE",
"731 199 OFFCURVE",
"792 185 OFFCURVE",
"792 134 CURVE SMOOTH",
"792 95 OFFCURVE",
"758 75 OFFCURVE",
"724 75 CURVE SMOOTH"
);
}
);
width = 889;
}
);
leftKerningGroup = tlII;
rightKerningGroup = tlII;
unicode = 0C08;
},
{
color = 6;
glyphname = tlU;
lastChange = "2015-11-20 18:06:38 +0000";
layers = (
{
components = (
{
name = "CC-u-telugu";
transform = "{1, 0, 0, 1, 54, 0}";
},
{
name = "CC-topdash";
transform = "{0.994, 0, 0, 1.217, 403, -57}";
}
);
layerId = "59118767-2CA9-48AA-9373-694D24C960D8";
name = Regular;
paths = (
{
closed = 1;
nodes = (
"50 303 OFFCURVE",
"123 316 OFFCURVE",
"215 322 CURVE SMOOTH",
"347 331 OFFCURVE",
"421 324 OFFCURVE",
"436 324 CURVE SMOOTH",
"472 326 OFFCURVE",
"509 382 OFFCURVE",
"507 398 CURVE SMOOTH",
"507 405 OFFCURVE",
"500 409 OFFCURVE",
"495 409 CURVE",
"356 406 OFFCURVE",
"97 397 OFFCURVE",
"80 392 CURVE SMOOTH",
"40 377 OFFCURVE",
"24 321 OFFCURVE",
"25 310 CURVE SMOOTH",
"25 308 OFFCURVE",
"26 301 OFFCURVE",
"37 303 CURVE SMOOTH"
);
}
);
width = 690;
}
);
leftKerningGroup = tlU;
rightKerningGroup = tlU;
unicode = 0C09;
},
{
color = 6;
glyphname = tlUU;
lastChange = "2015-11-21 17:00:00 +0000";
layers = (
{
components = (
{
name = "CC-u-telugu";
transform = "{1, 0, 0, 1, 54, 0}";
},
{
name = "CC-topdash";
transform = "{0.969, 0, 0, 1.089, 469, 25}";
},
{
name = "CC-topdash";
transform = "{0.856, 0, 0, 1.299, 330, -127}";
}
);
layerId = "59118767-2CA9-48AA-9373-694D24C960D8";
name = Regular;
paths = (
{
closed = 1;
nodes = (
"50 304 OFFCURVE",
"123 314 OFFCURVE",
"255 323 CURVE SMOOTH",
"387 332 OFFCURVE",
"743 356 OFFCURVE",
"772 355 CURVE",
"803 431 LINE",
"606 425 OFFCURVE",
"103 400 OFFCURVE",
"80 393 CURVE",
"40 378 OFFCURVE",
"24 322 OFFCURVE",
"25 311 CURVE",
"25 309 OFFCURVE",
"26 302 OFFCURVE",
"37 304 CURVE"
);
},
{
closed = 1;
nodes = (
"918 146 OFFCURVE",
"1024 243 OFFCURVE",
"1024 335 CURVE SMOOTH",
"1024 442 OFFCURVE",
"923 441 OFFCURVE",
"803 431 CURVE",
"772 355 LINE",
"785 355 OFFCURVE",
"778 354 OFFCURVE",
"791 355 CURVE SMOOTH",
"867 359 OFFCURVE",
"932 346 OFFCURVE",
"932 293 CURVE SMOOTH",
"932 254 OFFCURVE",
"898 234 OFFCURVE",
"864 234 CURVE SMOOTH",
"828 234 OFFCURVE",
"786 256 OFFCURVE",
"786 301 CURVE SMOOTH",
"786 327 OFFCURVE",
"794 365 OFFCURVE",
"826 391 CURVE",
"775 405 LINE",
"734 351 OFFCURVE",
"712 295 OFFCURVE",
"712 247 CURVE SMOOTH",
"712 189 OFFCURVE",
"746 146 OFFCURVE",
"823 146 CURVE SMOOTH"
);
},
{
closed = 1;
nodes = (
"887 552 OFFCURVE",
"858 680 OFFCURVE",
"796 680 CURVE SMOOTH",
"760 680 OFFCURVE",
"721 630 OFFCURVE",
"721 597 CURVE SMOOTH",
"721 583 OFFCURVE",
"728 579 OFFCURVE",
"734 573 CURVE SMOOTH",
"795 515 OFFCURVE",
"780 446 OFFCURVE",
"757 399 CURVE",
"809 391 LINE"
);
}
);
width = 1024;
}
);
leftKerningGroup = tlU;
leftMetricsKey = tlU;
rightKerningGroup = y145tlUU;
rightMetricsKey = tlUU;
unicode = 0C0A;
},
{
color = 6;
glyphname = tlvL;
lastChange = "2015-11-21 05:52:22 +0000";
layers = (
{
layerId = "59118767-2CA9-48AA-9373-694D24C960D8";
name = Regular;
paths = (
{
closed = 1;
nodes = (
"543 -53 OFFCURVE",
"781 109 OFFCURVE",
"781 366 CURVE SMOOTH",
"781 498 OFFCURVE",
"730 613 OFFCURVE",
"653 613 CURVE SMOOTH",
"616 613 OFFCURVE",
"580 551 OFFCURVE",
"580 529 CURVE SMOOTH",
"580 516 OFFCURVE",
"586 511 OFFCURVE",
"597 506 CURVE SMOOTH",
"654 479 OFFCURVE",
"691 408 OFFCURVE",
"691 308 CURVE SMOOTH",
"691 145 OFFCURVE",
"533 37 OFFCURVE",
"328 37 CURVE SMOOTH",
"254 37 OFFCURVE",
"216 51 OFFCURVE",
"216 85 CURVE SMOOTH",
"216 119 OFFCURVE",
"255 141 OFFCURVE",
"319 159 CURVE SMOOTH",
"441 194 OFFCURVE",
"566 256 OFFCURVE",
"566 392 CURVE SMOOTH",
"566 451 OFFCURVE",
"533 501 OFFCURVE",
"466 501 CURVE SMOOTH",
"409 501 OFFCURVE",
"333 462 OFFCURVE",
"287 384 CURVE",
"326 383 LINE",
"300 441 OFFCURVE",
"251 466 OFFCURVE",
"204 466 CURVE SMOOTH",
"108 466 OFFCURVE",
"25 365 OFFCURVE",
"25 326 CURVE SMOOTH",
"25 308 OFFCURVE",
"43 297 OFFCURVE",
"57 297 CURVE SMOOTH",
"65 297 OFFCURVE",
"71 300 OFFCURVE",
"74 304 CURVE SMOOTH",
"105 346 OFFCURVE",
"119 368 OFFCURVE",
"163 368 CURVE SMOOTH",
"242 368 OFFCURVE",
"227 297 OFFCURVE",
"247 286 CURVE SMOOTH",
"250 284 OFFCURVE",
"260 282 OFFCURVE",
"265 282 CURVE SMOOTH",
"274 282 OFFCURVE",
"281 287 OFFCURVE",
"292 300 CURVE SMOOTH",
"320 334 OFFCURVE",
"354 398 OFFCURVE",
"413 398 CURVE SMOOTH",
"447 398 OFFCURVE",
"474 376 OFFCURVE",
"474 339 CURVE SMOOTH",
"474 279 OFFCURVE",
"406 256 OFFCURVE",
"330 231 CURVE SMOOTH",
"225 197 OFFCURVE",
"114 163 OFFCURVE",
"114 61 CURVE SMOOTH",
"114 -17 OFFCURVE",
"179 -53 OFFCURVE",
"298 -53 CURVE SMOOTH"
);
}
);
width = 801;
}
);
leftKerningGroup = tlI;
leftMetricsKey = tlI;
rightKerningGroup = wall;
unicode = 0C0C;
},
{
color = 6;
glyphname = tlE;
lastChange = "2015-11-22 10:24:35 +0000";
layers = (
{
components = (
{
name = "CC-pa-telugu";
transform = "{1, 0, 0, 1, 11, 0}";
}
);
layerId = "59118767-2CA9-48AA-9373-694D24C960D8";
name = Regular;
paths = (
{
closed = 1;
nodes = (
"484 -12 OFFCURVE",
"600 75 OFFCURVE",
"600 247 CURVE SMOOTH",
"600 337 OFFCURVE",
"563 429 OFFCURVE",
"499 501 CURVE SMOOTH",
"451 555 OFFCURVE",
"364 613 OFFCURVE",
"312 613 CURVE SMOOTH",
"253 613 OFFCURVE",
"232 540 OFFCURVE",
"232 527 CURVE SMOOTH",
"232 518 OFFCURVE",
"236 511 OFFCURVE",
"245 509 CURVE SMOOTH",
"381 477 OFFCURVE",
"532 349 OFFCURVE",
"532 211 CURVE SMOOTH",
"532 131 OFFCURVE",
"486 89 OFFCURVE",
"428 89 CURVE SMOOTH",
"384 89 OFFCURVE",
"339 118 OFFCURVE",
"320 177 CURVE",
"256 73 LINE",
"276 16 OFFCURVE",
"330 -12 OFFCURVE",
"386 -12 CURVE SMOOTH"
);
}
);
width = 620;
}
);
leftKerningGroup = tlPA;
leftMetricsKey = tlPA;
rightKerningGroup = tlJHA;
rightMetricsKey = tlJHA;
unicode = 0C0E;
},
{
color = 6;
glyphname = tlEE;
lastChange = "2015-11-22 11:52:01 +0000";
layers = (
{
components = (
{
name = tlE;
}
);
layerId = "59118767-2CA9-48AA-9373-694D24C960D8";
name = Regular;
paths = (
{
closed = 1;
nodes = (
"150 388 OFFCURVE",
"167 389 OFFCURVE",
"184 405 CURVE SMOOTH",
"200 420 OFFCURVE",
"204 426 OFFCURVE",
"189 448 CURVE SMOOTH",
"160 492 OFFCURVE",
"139 545 OFFCURVE",
"139 594 CURVE SMOOTH",
"139 665 OFFCURVE",
"183 717 OFFCURVE",
"265 717 CURVE SMOOTH",
"310 717 OFFCURVE",
"330 695 OFFCURVE",
"344 695 CURVE SMOOTH",
"355 695 OFFCURVE",
"369 706 OFFCURVE",
"381 720 CURVE SMOOTH",
"392 733 OFFCURVE",
"399 749 OFFCURVE",
"399 765 CURVE SMOOTH",
"399 806 OFFCURVE",
"346 828 OFFCURVE",
"299 828 CURVE SMOOTH",
"166 828 OFFCURVE",
"69 718 OFFCURVE",
"69 586 CURVE SMOOTH",
"69 524 OFFCURVE",
"97 445 OFFCURVE",
"135 404 CURVE SMOOTH"
);
}
);
width = 620;
}
);
leftKerningGroup = tlEE;
leftMetricsKey = tlPA;
rightKerningGroup = tlJHA;
unicode = 0C0F;
},
{
color = 6;
glyphname = tlAI;
lastChange = "2015-11-21 06:05:40 +0000";
layers = (
{
components = (
{
name = "CC-pa-telugu";
transform = "{1, 0, 0, 1, 11, 0}";
}
);
layerId = "59118767-2CA9-48AA-9373-694D24C960D8";
name = Regular;
paths = (
{
closed = 1;
nodes = (
"556 -13 OFFCURVE",
"693 131 OFFCURVE",
"693 322 CURVE SMOOTH",
"693 430 OFFCURVE",
"651 522 OFFCURVE",
"557 522 CURVE SMOOTH",
"487 522 OFFCURVE",
"397 469 OFFCURVE",
"338 361 CURVE",
"371 375 LINE",
"398 432 LINE",
"366 466 OFFCURVE",
"321 486 OFFCURVE",
"280 486 CURVE SMOOTH",
"204 486 OFFCURVE",
"109 451 OFFCURVE",
"77 378 CURVE SMOOTH",
"66 354 OFFCURVE",
"68 337 OFFCURVE",
"84 327 CURVE SMOOTH",
"94 321 OFFCURVE",
"112 319 OFFCURVE",
"125 340 CURVE SMOOTH",
"146 372 OFFCURVE",
"176 392 OFFCURVE",
"223 392 CURVE SMOOTH",
"297 392 OFFCURVE",
"306 330 OFFCURVE",
"335 330 CURVE SMOOTH",
"346 330 OFFCURVE",
"359 340 OFFCURVE",
"380 363 CURVE SMOOTH",
"417 405 OFFCURVE",
"458 424 OFFCURVE",
"497 424 CURVE SMOOTH",
"581 424 OFFCURVE",
"612 322 OFFCURVE",
"612 258 CURVE SMOOTH",
"612 157 OFFCURVE",
"545 86 OFFCURVE",
"449 86 CURVE SMOOTH",
"401 86 OFFCURVE",
"347 108 OFFCURVE",
"315 160 CURVE",
"241 60 LINE",
"291 9 OFFCURVE",
"349 -13 OFFCURVE",
"408 -13 CURVE SMOOTH"
);
}
);
width = 723;
}
);
leftKerningGroup = tlAI;
rightKerningGroup = tlRA;
rightMetricsKey = tlRA;
unicode = 0C10;
},
{
color = 6;
glyphname = tlO;
lastChange = "2015-12-19 06:33:10 +0000";
layers = (
{
components = (
{
disableAlignment = 1;
name = "CC_Ofirsthalf-kannada";
transform = "{1, 0, 0, 1, 40, 0}";
}
);
layerId = "59118767-2CA9-48AA-9373-694D24C960D8";
name = Regular;
paths = (
{
closed = 1;
nodes = (
"533 -14 OFFCURVE",
"650 97 OFFCURVE",
"650 232 CURVE SMOOTH",
"650 281 OFFCURVE",
"635 312 OFFCURVE",
"607 312 CURVE SMOOTH",
"564 312 OFFCURVE",
"529 235 OFFCURVE",
"529 215 CURVE SMOOTH",
"529 196 OFFCURVE",
"563 188 OFFCURVE",
"563 148 CURVE SMOOTH",
"563 108 OFFCURVE",
"519 83 OFFCURVE",
"476 83 CURVE SMOOTH",
"428 83 OFFCURVE",
"393 114 OFFCURVE",
"380 157 CURVE",
"309 78 LINE",
"314 15 OFFCURVE",
"358 -14 OFFCURVE",
"417 -14 CURVE SMOOTH"
);
}
);
width = 660;
}
);
leftKerningGroup = tlO;
rightKerningGroup = tlO;
unicode = 0C12;
},
{
color = 6;
glyphname = tlOO;
lastChange = "2015-12-19 06:33:12 +0000";
layers = (
{
associatedMasterId = "59118767-2CA9-48AA-9373-694D24C960D8";
components = (
{
name = "CC_Ofirsthalf-kannada";
transform = "{1, 0, 0, 1, 40, 0}";
}
);
layerId = "5D6DAA65-465A-4386-958A-EE5A86C06503";
name = "Regular Nov 18 15, 13:56";
paths = (
{
closed = 1;
nodes = (
"533 -14 OFFCURVE",
"650 97 OFFCURVE",
"650 232 CURVE SMOOTH",
"650 281 OFFCURVE",
"635 312 OFFCURVE",
"607 312 CURVE SMOOTH",
"564 312 OFFCURVE",
"529 235 OFFCURVE",
"529 215 CURVE SMOOTH",
"529 196 OFFCURVE",
"563 188 OFFCURVE",
"563 148 CURVE SMOOTH",
"563 108 OFFCURVE",
"519 83 OFFCURVE",
"476 83 CURVE SMOOTH",
"428 83 OFFCURVE",
"393 114 OFFCURVE",
"380 157 CURVE",
"309 78 LINE",
"314 15 OFFCURVE",
"358 -14 OFFCURVE",
"417 -14 CURVE SMOOTH"
);
},
{
closed = 1;
nodes = (
"228 441 OFFCURVE",
"236 504 CURVE SMOOTH",
"244 567 OFFCURVE",
"318 574 OFFCURVE",
"340 576 CURVE SMOOTH",
"382 581 OFFCURVE",
"430 667 OFFCURVE",
"430 697 CURVE SMOOTH",
"430 706 OFFCURVE",
"426 712 OFFCURVE",
"409 712 CURVE SMOOTH",
"341 712 OFFCURVE",
"210 615 OFFCURVE",
"178 499 CURVE SMOOTH",
"153 409 OFFCURVE"
);
}
);
width = 660;
},
{
components = (
{
name = "CC_Ofirsthalf-kannada";
transform = "{1, 0, 0, 1, 40, 0}";
}
);
layerId = "59118767-2CA9-48AA-9373-694D24C960D8";
name = Regular;
paths = (
{
closed = 1;
nodes = (
"533 -14 OFFCURVE",
"650 97 OFFCURVE",
"650 232 CURVE SMOOTH",
"650 281 OFFCURVE",
"635 312 OFFCURVE",
"607 312 CURVE SMOOTH",
"564 312 OFFCURVE",
"529 235 OFFCURVE",
"529 215 CURVE SMOOTH",
"529 196 OFFCURVE",
"563 188 OFFCURVE",
"563 148 CURVE SMOOTH",
"563 108 OFFCURVE",
"519 83 OFFCURVE",
"476 83 CURVE SMOOTH",
"428 83 OFFCURVE",
"393 114 OFFCURVE",
"380 157 CURVE",
"309 78 LINE",
"314 15 OFFCURVE",
"358 -14 OFFCURVE",
"417 -14 CURVE SMOOTH"
);
},
{
closed = 1;
nodes = (
"262 540 OFFCURVE",
"288 652 OFFCURVE",
"293 712 CURVE SMOOTH",
"296 745 OFFCURVE",
"274 782 OFFCURVE",
"250 782 CURVE SMOOTH",
"229 782 OFFCURVE",
"180 755 OFFCURVE",
"183 718 CURVE SMOOTH",
"184 695 OFFCURVE",
"192 602 OFFCURVE",
"199 556 CURVE",
"200 547 OFFCURVE",
"207 540 OFFCURVE",
"217 540 CURVE SMOOTH"
);
}
);
width = 660;
}
);
leftKerningGroup = tlOO;
leftMetricsKey = tlO;
rightKerningGroup = tlO;
rightMetricsKey = tlO;
unicode = 0C13;
},
{
color = 6;
glyphname = tlAU;
lastChange = "2015-11-22 07:29:07 +0000";
layers = (
{
components = (
{
name = tlO;
}
);
layerId = "59118767-2CA9-48AA-9373-694D24C960D8";
name = Regular;
paths = (
{
closed = 1;
nodes = (
"378 404 OFFCURVE",
"494 515 OFFCURVE",
"461 614 CURVE",
"326 591 LINE",
"412 593 OFFCURVE",
"397 442 OFFCURVE",
"284 476 CURVE",
"283 373 LINE"
);
},
{
closed = 1;
nodes = (
"902 389 OFFCURVE",
"975 476 OFFCURVE",
"971 580 CURVE SMOOTH",
"968 665 OFFCURVE",
"917 678 OFFCURVE",
"874 683 CURVE SMOOTH",
"818 689 OFFCURVE",
"693 690 OFFCURVE",
"411 686 CURVE SMOOTH",
"339 685 OFFCURVE",
"272 679 OFFCURVE",
"234 672 CURVE SMOOTH",
"207 667 OFFCURVE",
"177 606 OFFCURVE",
"177 588 CURVE SMOOTH",
"177 585 OFFCURVE",
"179 578 OFFCURVE",
"190 578 CURVE SMOOTH",
"202 579 OFFCURVE",
"279 591 OFFCURVE",
"405 595 CURVE SMOOTH",
"477 598 OFFCURVE",
"729 598 OFFCURVE",
"809 595 CURVE",
"803 611 LINE",
"765 602 OFFCURVE",
"732 535 OFFCURVE",
"734 475 CURVE SMOOTH",
"736 415 OFFCURVE",
"765 384 OFFCURVE",
"822 386 CURVE SMOOTH"
);
},
{
closed = 1;
nodes = (
"818 482 OFFCURVE",
"803 500 OFFCURVE",
"802 521 CURVE SMOOTH",
"801 549 OFFCURVE",
"823 581 OFFCURVE",
"860 582 CURVE SMOOTH",
"890 584 OFFCURVE",
"905 563 OFFCURVE",
"906 540 CURVE SMOOTH",
"907 514 OFFCURVE",
"889 484 OFFCURVE",
"850 483 CURVE SMOOTH"
);
}
);
width = 921;
},
{
associatedMasterId = "59118767-2CA9-48AA-9373-694D24C960D8";
background = {
paths = (
{
closed = 1;
nodes = (
"191 635 LINE",
"241 527 OFFCURVE",
"452 533 OFFCURVE",
"452 458 CURVE SMOOTH",
"452 418 OFFCURVE",
"420 383 OFFCURVE",
"377 383 CURVE SMOOTH",
"329 383 OFFCURVE",
"294 414 OFFCURVE",
"281 457 CURVE",
"220 388 LINE",
"225 325 OFFCURVE",
"269 296 OFFCURVE",
"328 296 CURVE SMOOTH",
"431 296 OFFCURVE",
"538 400 OFFCURVE",
"538 498 CURVE SMOOTH",
"538 596 OFFCURVE",
"434 612 OFFCURVE",
"353 635 CURVE"
);
}
);
};
components = (
{
name = tlO;
}
);
layerId = "9DEF7BB0-3CE6-497D-A5BD-626D4B7EB14D";
name = "Regular Nov 22 15, 12:56";
paths = (
{
closed = 1;
nodes = (
"378 388 OFFCURVE",
"474 515 OFFCURVE",
"441 614 CURVE",
"326 591 LINE",
"412 593 OFFCURVE",
"397 437 OFFCURVE",
"284 471 CURVE",
"283 380 LINE"
);
},
{
closed = 1;
nodes = (
"902 389 OFFCURVE",
"975 476 OFFCURVE",
"971 580 CURVE SMOOTH",
"968 665 OFFCURVE",
"917 678 OFFCURVE",
"874 683 CURVE SMOOTH",
"818 689 OFFCURVE",
"693 690 OFFCURVE",
"411 686 CURVE SMOOTH",
"339 685 OFFCURVE",
"272 679 OFFCURVE",
"234 672 CURVE SMOOTH",
"207 667 OFFCURVE",
"177 606 OFFCURVE",
"177 588 CURVE SMOOTH",
"177 585 OFFCURVE",
"179 578 OFFCURVE",
"190 578 CURVE SMOOTH",
"202 579 OFFCURVE",
"279 591 OFFCURVE",
"405 595 CURVE SMOOTH",
"477 598 OFFCURVE",
"729 598 OFFCURVE",
"809 595 CURVE",
"803 611 LINE",
"765 602 OFFCURVE",
"732 535 OFFCURVE",
"734 475 CURVE SMOOTH",
"736 415 OFFCURVE",
"765 384 OFFCURVE",
"822 386 CURVE SMOOTH"
);
},
{
closed = 1;
nodes = (
"818 482 OFFCURVE",
"803 500 OFFCURVE",
"802 521 CURVE SMOOTH",
"801 549 OFFCURVE",
"823 581 OFFCURVE",
"860 582 CURVE SMOOTH",
"890 584 OFFCURVE",
"905 563 OFFCURVE",
"906 540 CURVE SMOOTH",
"907 514 OFFCURVE",
"889 484 OFFCURVE",
"850 483 CURVE SMOOTH"
);
}
);
width = 930;
}
);
leftKerningGroup = tlOO;
leftMetricsKey = tlO;
rightKerningGroup = y365;
unicode = 0C14;
},
{
color = 9;
glyphname = tlmAA;
lastChange = "2015-12-16 10:01:23 +0000";
layers = (
{
layerId = "59118767-2CA9-48AA-9373-694D24C960D8";
name = Regular;
paths = (
{
closed = 1;
nodes = (
"615 209 OFFCURVE",
"688 296 OFFCURVE",
"684 400 CURVE SMOOTH",
"681 485 OFFCURVE",
"630 498 OFFCURVE",
"587 503 CURVE SMOOTH",
"513 511 OFFCURVE",
"408 509 OFFCURVE",
"345 507 CURVE SMOOTH",
"281 504 OFFCURVE",
"129 500 OFFCURVE",
"57 492 CURVE SMOOTH",
"29 489 OFFCURVE",
"0 426 OFFCURVE",
"0 408 CURVE SMOOTH",
"0 405 OFFCURVE",
"2 398 OFFCURVE",
"13 398 CURVE SMOOTH",
"25 399 OFFCURVE",
"182 411 OFFCURVE",
"308 415 CURVE SMOOTH",
"380 418 OFFCURVE",
"442 418 OFFCURVE",
"522 415 CURVE",
"516 431 LINE",
"478 422 OFFCURVE",
"445 355 OFFCURVE",
"447 295 CURVE SMOOTH",
"449 235 OFFCURVE",
"486 204 OFFCURVE",
"535 206 CURVE SMOOTH"
);
},
{
closed = 1;
nodes = (
"531 302 OFFCURVE",
"516 320 OFFCURVE",
"515 341 CURVE SMOOTH",
"514 369 OFFCURVE",
"536 401 OFFCURVE",
"573 402 CURVE SMOOTH",
"603 404 OFFCURVE",
"618 383 OFFCURVE",
"619 360 CURVE SMOOTH",
"620 334 OFFCURVE",
"602 304 OFFCURVE",
"563 303 CURVE SMOOTH"
);
}
);
width = 684;
}
);
unicode = 0C3E;
},
{
color = 9;
glyphname = tlmI;
lastChange = "2015-12-16 10:01:23 +0000";
layers = (
{
layerId = "59118767-2CA9-48AA-9373-694D24C960D8";
name = Regular;
paths = (
{
closed = 1;
nodes = (
"223 422 OFFCURVE",
"251 431 OFFCURVE",
"296 472 CURVE SMOOTH",
"347 519 OFFCURVE",
"372 580 OFFCURVE",
"372 638 CURVE SMOOTH",
"372 721 OFFCURVE",
"319 794 OFFCURVE",
"214 794 CURVE SMOOTH",
"105 794 OFFCURVE",
"0 712 OFFCURVE",
"0 597 CURVE SMOOTH",
"0 514 OFFCURVE",
"51 483 OFFCURVE",
"114 483 CURVE SMOOTH",
"200 483 OFFCURVE",
"281 555 OFFCURVE",
"284 664 CURVE",
"305 645 OFFCURVE",
"298 561 OFFCURVE",
"205 464 CURVE SMOOTH",
"173 431 OFFCURVE",
"184 422 OFFCURVE",
"205 422 CURVE SMOOTH"
);
},
{
closed = 1;
nodes = (
"105 557 OFFCURVE",
"76 576 OFFCURVE",
"76 619 CURVE SMOOTH",
"76 663 OFFCURVE",
"109 712 OFFCURVE",
"166 712 CURVE SMOOTH",
"212 712 OFFCURVE",
"235 685 OFFCURVE",
"235 651 CURVE SMOOTH",
"235 592 OFFCURVE",
"183 557 OFFCURVE",
"138 557 CURVE SMOOTH"
);
}
);
width = 372;
}
);
unicode = 0C3F;
},
{
color = 9;
glyphname = tlmUU;
lastChange = "2015-12-16 10:01:23 +0000";
layers = (
{
components = (
{
name = "CC-lenghtmark_Telugu";
transform = "{1, 0.036, -0.036, 1, 138, 43}";
}
);
layerId = "59118767-2CA9-48AA-9373-694D24C960D8";
name = Regular;
paths = (
{
closed = 1;
nodes = (
"297 -12 OFFCURVE",
"378 132 OFFCURVE",
"378 232 CURVE SMOOTH",
"378 331 OFFCURVE",
"327 452 OFFCURVE",
"205 467 CURVE",
"160 467 OFFCURVE",
"119 417 OFFCURVE",
"132 414 CURVE SMOOTH",
"229 393 OFFCURVE",
"306 286 OFFCURVE",
"306 204 CURVE SMOOTH",
"306 141 OFFCURVE",
"269 90 OFFCURVE",
"186 90 CURVE SMOOTH",
"147 90 OFFCURVE",
"99 111 OFFCURVE",
"83 157 CURVE",
"62 207 OFFCURVE",
"-12 116 OFFCURVE",
"2 78 CURVE",
"29 6 OFFCURVE",
"97 -12 OFFCURVE",
"148 -12 CURVE SMOOTH"
);
}
);
width = 749;
}
);
unicode = 0C42;
},
{
color = 9;
glyphname = tlmvR;
lastChange = "2015-12-20 11:39:39 +0000";
layers = (
{
guideLines = (
{
position = "{376, -448}";
}
);
layerId = "59118767-2CA9-48AA-9373-694D24C960D8";
name = Regular;
paths = (
{
closed = 1;
nodes = (
"50 -446 OFFCURVE",
"239 -288 OFFCURVE",
"239 58 CURVE SMOOTH",
"239 322 OFFCURVE",
"134 613 OFFCURVE",
"44 613 CURVE SMOOTH",
"27 613 OFFCURVE",
"7 601 OFFCURVE",
"-8 572 CURVE SMOOTH",
"-22 545 OFFCURVE",
"-22 532 OFFCURVE",
"-9 516 CURVE SMOOTH",
"89 399 OFFCURVE",
"154 231 OFFCURVE",
"154 -10 CURVE SMOOTH",
"154 -49 OFFCURVE",
"149 -88 OFFCURVE",
"140 -123 CURVE",
"118 -261 OFFCURVE",
"28 -354 OFFCURVE",
"-34 -354 CURVE SMOOTH",
"-65 -354 OFFCURVE",
"-86 -334 OFFCURVE",
"-86 -297 CURVE SMOOTH",
"-86 -192 OFFCURVE",
"59 -126 OFFCURVE",
"171 -186 CURVE",
"179 -77 LINE",
"164 -75 OFFCURVE",
"149 -73 OFFCURVE",
"133 -73 CURVE SMOOTH",
"-57 -73 OFFCURVE",
"-180 -219 OFFCURVE",
"-180 -329 CURVE SMOOTH",
"-180 -388 OFFCURVE",
"-147 -446 OFFCURVE",
"-74 -446 CURVE SMOOTH"
);
}
);
width = 279;
}
);
leftMetricsKey = tlmvR;
unicode = 0C43;
},
{
color = 8;
glyphname = tlmvR.following;
lastChange = "2015-12-20 11:40:14 +0000";
layers = (
{
guideLines = (
{
position = "{456, -448}";
}
);
layerId = "59118767-2CA9-48AA-9373-694D24C960D8";
name = Regular;
paths = (
{
closed = 1;
nodes = (
"280 -446 OFFCURVE",
"469 -288 OFFCURVE",
"469 58 CURVE SMOOTH",
"469 322 OFFCURVE",
"364 613 OFFCURVE",
"274 613 CURVE SMOOTH",
"257 613 OFFCURVE",
"237 601 OFFCURVE",
"222 572 CURVE SMOOTH",
"208 545 OFFCURVE",
"208 532 OFFCURVE",
"221 516 CURVE SMOOTH",
"319 399 OFFCURVE",
"384 231 OFFCURVE",
"384 -10 CURVE SMOOTH",
"384 -49 OFFCURVE",
"379 -88 OFFCURVE",
"370 -123 CURVE",
"348 -261 OFFCURVE",
"258 -354 OFFCURVE",
"196 -354 CURVE SMOOTH",
"165 -354 OFFCURVE",
"144 -334 OFFCURVE",
"144 -297 CURVE SMOOTH",
"144 -192 OFFCURVE",
"289 -126 OFFCURVE",
"401 -186 CURVE",
"409 -77 LINE",
"394 -75 OFFCURVE",
"379 -73 OFFCURVE",
"363 -73 CURVE SMOOTH",
"173 -73 OFFCURVE",
"50 -219 OFFCURVE",
"50 -329 CURVE SMOOTH",
"50 -388 OFFCURVE",
"83 -446 OFFCURVE",
"156 -446 CURVE SMOOTH"
);
}
);
width = 509;
}
);
script = telugu;
category = "";
subCategory = "";
},
{
color = 9;
glyphname = tlmvRR;
lastChange = "2015-12-20 11:39:54 +0000";
layers = (
{
layerId = "59118767-2CA9-48AA-9373-694D24C960D8";
name = Regular;
paths = (
{
closed = 1;
nodes = (
"125 -447 OFFCURVE",
"239 -176 OFFCURVE",
"239 58 CURVE SMOOTH",
"239 262 OFFCURVE",
"176 483 OFFCURVE",
"106 572 CURVE",
"15 485 LINE",
"99 370 OFFCURVE",
"154 211 OFFCURVE",
"154 -10 CURVE SMOOTH",
"154 -193 OFFCURVE",
"45 -354 OFFCURVE",
"-34 -354 CURVE SMOOTH",
"-65 -354 OFFCURVE",
"-86 -334 OFFCURVE",
"-86 -297 CURVE SMOOTH",
"-86 -268 OFFCURVE",
"-74 -241 OFFCURVE",
"-53 -218 CURVE SMOOTH",
"-7 -168 OFFCURVE",
"82 -142 OFFCURVE",
"171 -174 CURVE",
"179 -77 LINE",
"13 -50 OFFCURVE",
"-180 -178 OFFCURVE",
"-180 -336 CURVE SMOOTH",
"-180 -398 OFFCURVE",
"-145 -447 OFFCURVE",
"-70 -447 CURVE SMOOTH"
);
},
{
closed = 1;
nodes = (
"578 315 OFFCURVE",
"651 402 OFFCURVE",
"647 506 CURVE SMOOTH",
"644 591 OFFCURVE",
"593 606 OFFCURVE",
"550 609 CURVE SMOOTH",
"433 618 OFFCURVE",
"227 613 OFFCURVE",
"75 598 CURVE SMOOTH",
"36 594 OFFCURVE",
"-11 507 OFFCURVE",
"7 492 CURVE SMOOTH",
"14 485 OFFCURVE",
"28 467 OFFCURVE",
"42 447 CURVE",
"127 514 LINE",
"252 523 OFFCURVE",
"326 526 OFFCURVE",
"454 522 CURVE",
"427 497 OFFCURVE",
"408 447 OFFCURVE",
"410 401 CURVE SMOOTH",
"412 341 OFFCURVE",
"449 310 OFFCURVE",
"498 312 CURVE SMOOTH"
);
},
{
closed = 1;
nodes = (
"494 408 OFFCURVE",
"479 426 OFFCURVE",
"478 447 CURVE SMOOTH",
"477 475 OFFCURVE",
"499 507 OFFCURVE",
"536 508 CURVE SMOOTH",
"566 510 OFFCURVE",
"581 489 OFFCURVE",
"582 466 CURVE SMOOTH",
"583 440 OFFCURVE",
"565 410 OFFCURVE",
"526 409 CURVE SMOOTH"
);
}
);
width = 652;
}
);
leftMetricsKey = tlmvR;
rightMetricsKey = tlvRR;
unicode = 0C44;
},
{
color = 8;
glyphname = tlmvRR.following;
lastChange = "2015-12-20 11:40:04 +0000";
layers = (
{
layerId = "59118767-2CA9-48AA-9373-694D24C960D8";
name = Regular;
paths = (
{
closed = 1;
nodes = (
"355 -447 OFFCURVE",
"469 -176 OFFCURVE",
"469 58 CURVE SMOOTH",
"469 262 OFFCURVE",
"406 483 OFFCURVE",
"336 572 CURVE",
"245 485 LINE",
"329 370 OFFCURVE",
"384 211 OFFCURVE",
"384 -10 CURVE SMOOTH",
"384 -193 OFFCURVE",
"275 -354 OFFCURVE",
"196 -354 CURVE SMOOTH",
"165 -354 OFFCURVE",
"144 -334 OFFCURVE",
"144 -297 CURVE SMOOTH",
"144 -268 OFFCURVE",
"156 -241 OFFCURVE",
"177 -218 CURVE SMOOTH",
"223 -168 OFFCURVE",
"312 -142 OFFCURVE",
"401 -174 CURVE",
"409 -77 LINE",
"243 -50 OFFCURVE",
"50 -178 OFFCURVE",
"50 -336 CURVE SMOOTH",
"50 -398 OFFCURVE",
"85 -447 OFFCURVE",
"160 -447 CURVE SMOOTH"
);
},
{
closed = 1;
nodes = (
"808 315 OFFCURVE",
"881 402 OFFCURVE",
"877 506 CURVE SMOOTH",
"874 591 OFFCURVE",
"823 606 OFFCURVE",
"780 609 CURVE SMOOTH",
"663 618 OFFCURVE",
"457 613 OFFCURVE",
"305 598 CURVE SMOOTH",
"266 594 OFFCURVE",
"219 507 OFFCURVE",
"237 492 CURVE SMOOTH",
"244 485 OFFCURVE",
"258 467 OFFCURVE",
"272 447 CURVE",
"357 514 LINE",
"482 523 OFFCURVE",
"556 526 OFFCURVE",
"684 522 CURVE",
"657 497 OFFCURVE",
"638 447 OFFCURVE",
"640 401 CURVE SMOOTH",
"642 341 OFFCURVE",
"679 310 OFFCURVE",
"728 312 CURVE SMOOTH"
);
},
{
closed = 1;
nodes = (
"724 408 OFFCURVE",
"709 426 OFFCURVE",
"708 447 CURVE SMOOTH",
"707 475 OFFCURVE",
"729 507 OFFCURVE",
"766 508 CURVE SMOOTH",
"796 510 OFFCURVE",
"811 489 OFFCURVE",
"812 466 CURVE SMOOTH",
"813 440 OFFCURVE",
"795 410 OFFCURVE",
"756 409 CURVE SMOOTH"
);
}
);
width = 882;
}
);
rightMetricsKey = tlvRR;
script = telugu;
category = "";
subCategory = "";
},
{
color = 11;
glyphname = tlmvL;
lastChange = "2015-12-16 10:32:07 +0000";
layers = (
{
layerId = "59118767-2CA9-48AA-9373-694D24C960D8";
name = Regular;
paths = (
{
closed = 1;
nodes = (
"-179 -558 OFFCURVE",
"0 -436 OFFCURVE",
"0 -243 CURVE SMOOTH",
"0 -137 OFFCURVE",
"-43 -55 OFFCURVE",
"-100 -55 CURVE SMOOTH",
"-130 -55 OFFCURVE",
"-159 -105 OFFCURVE",
"-159 -122 CURVE SMOOTH",
"-159 -135 OFFCURVE",
"-151 -139 OFFCURVE",
"-143 -143 CURVE SMOOTH",
"-102 -163 OFFCURVE",
"-77 -216 OFFCURVE",
"-77 -286 CURVE SMOOTH",
"-77 -400 OFFCURVE",
"-187 -481 OFFCURVE",
"-341 -481 CURVE SMOOTH",
"-395 -481 OFFCURVE",
"-419 -471 OFFCURVE",
"-419 -451 CURVE SMOOTH",
"-419 -431 OFFCURVE",
"-395 -414 OFFCURVE",
"-346 -401 CURVE SMOOTH",
"-220 -365 OFFCURVE",
"-159 -307 OFFCURVE",
"-159 -223 CURVE SMOOTH",
"-159 -172 OFFCURVE",
"-191 -138 OFFCURVE",
"-238 -138 CURVE SMOOTH",
"-291 -138 OFFCURVE",
"-349 -177 OFFCURVE",
"-379 -234 CURVE",
"-334 -235 LINE",
"-351 -191 OFFCURVE",
"-388 -164 OFFCURVE",
"-432 -164 CURVE SMOOTH",
"-506 -164 OFFCURVE",
"-570 -241 OFFCURVE",
"-570 -272 CURVE SMOOTH",
"-570 -287 OFFCURVE",
"-557 -299 OFFCURVE",
"-541 -299 CURVE SMOOTH",
"-534 -299 OFFCURVE",
"-528 -297 OFFCURVE",
"-525 -292 CURVE SMOOTH",
"-502 -260 OFFCURVE",
"-492 -246 OFFCURVE",
"-463 -246 CURVE SMOOTH",
"-432 -246 OFFCURVE",
"-423 -264 OFFCURVE",
"-417 -280 CURVE SMOOTH",
"-410 -299 OFFCURVE",
"-406 -310 OFFCURVE",
"-387 -310 CURVE SMOOTH",
"-379 -310 OFFCURVE",
"-372 -305 OFFCURVE",
"-363 -295 CURVE SMOOTH",
"-342 -269 OFFCURVE",
"-318 -224 OFFCURVE",
"-278 -224 CURVE SMOOTH",
"-253 -224 OFFCURVE",
"-237 -239 OFFCURVE",
"-237 -263 CURVE SMOOTH",
"-237 -303 OFFCURVE",
"-285 -319 OFFCURVE",
"-341 -338 CURVE SMOOTH",
"-418 -363 OFFCURVE",
"-504 -389 OFFCURVE",
"-504 -469 CURVE SMOOTH",
"-504 -528 OFFCURVE",
"-456 -558 OFFCURVE",
"-363 -558 CURVE SMOOTH"
);
}
);
width = 0;
}
);
unicode = 0C62;
},
{
color = 9;
glyphname = tlmE;
lastChange = "2015-12-16 10:01:23 +0000";
layers = (
{
layerId = "59118767-2CA9-48AA-9373-694D24C960D8";
name = Regular;
paths = (
{
closed = 1;
nodes = (
"401 393 LINE SMOOTH",
"525 397 OFFCURVE",
"626 476 OFFCURVE",
"626 564 CURVE SMOOTH",
"626 648 OFFCURVE",
"543 651 OFFCURVE",
"511 652 CURVE SMOOTH",
"457 654 OFFCURVE",
"91 655 OFFCURVE",
"60 651 CURVE SMOOTH",
"32 647 OFFCURVE",
"0 587 OFFCURVE",
"0 569 CURVE SMOOTH",
"0 566 OFFCURVE",
"1 559 OFFCURVE",
"12 559 CURVE SMOOTH",
"78 559 OFFCURVE",
"303 562 OFFCURVE",
"364 562 CURVE SMOOTH",
"406 562 OFFCURVE",
"449 560 OFFCURVE",
"490 557 CURVE SMOOTH",
"518 555 OFFCURVE",
"536 546 OFFCURVE",
"536 526 CURVE SMOOTH",
"536 488 OFFCURVE",
"478 486 OFFCURVE",
"442 486 CURVE SMOOTH",
"425 486 OFFCURVE",
"405 485 OFFCURVE",
"379 485 CURVE SMOOTH",
"351 485 OFFCURVE",
"321 421 OFFCURVE",
"321 403 CURVE SMOOTH",
"321 400 OFFCURVE",
"323 391 OFFCURVE",
"334 391 CURVE SMOOTH"
);
}
);
width = 626;
}
);
unicode = 0C46;
},
{
color = 9;
glyphname = tlmEE;
lastChange = "2015-12-16 10:01:23 +0000";
layers = (
{
components = (
{
name = "CC_tl-lengthmark";
transform = "{1, 0, 0, 1, 347, 1}";
}
);
layerId = "59118767-2CA9-48AA-9373-694D24C960D8";
name = Regular;
paths = (
{
closed = 1;
nodes = (
"401 393 LINE SMOOTH",
"525 397 OFFCURVE",
"626 476 OFFCURVE",
"626 564 CURVE SMOOTH",
"626 648 OFFCURVE",
"543 651 OFFCURVE",
"511 652 CURVE SMOOTH",
"457 654 OFFCURVE",
"91 655 OFFCURVE",
"60 651 CURVE SMOOTH",
"32 647 OFFCURVE",
"0 587 OFFCURVE",
"0 569 CURVE SMOOTH",
"0 566 OFFCURVE",
"1 559 OFFCURVE",
"12 559 CURVE SMOOTH",
"78 559 OFFCURVE",
"303 562 OFFCURVE",
"364 562 CURVE SMOOTH",
"406 562 OFFCURVE",
"449 560 OFFCURVE",
"490 557 CURVE SMOOTH",
"518 555 OFFCURVE",
"536 546 OFFCURVE",
"536 526 CURVE SMOOTH",
"536 488 OFFCURVE",
"478 486 OFFCURVE",
"442 486 CURVE SMOOTH",
"425 486 OFFCURVE",
"405 485 OFFCURVE",
"379 485 CURVE SMOOTH",
"351 485 OFFCURVE",
"321 421 OFFCURVE",
"321 403 CURVE SMOOTH",
"321 400 OFFCURVE",
"323 391 OFFCURVE",
"334 391 CURVE SMOOTH"
);
}
);
width = 626;
}
);
unicode = 0C47;
},
{
color = 9;
glyphname = tlmAI;
lastChange = "2015-12-18 13:48:36 +0000";
layers = (
{
layerId = "59118767-2CA9-48AA-9373-694D24C960D8";
name = Regular;
paths = (
{
closed = 1;
nodes = (
"401 393 LINE SMOOTH",
"525 397 OFFCURVE",
"626 476 OFFCURVE",
"626 564 CURVE SMOOTH",
"626 648 OFFCURVE",
"543 651 OFFCURVE",
"511 652 CURVE SMOOTH",
"457 654 OFFCURVE",
"91 655 OFFCURVE",
"60 651 CURVE SMOOTH",
"32 647 OFFCURVE",
"0 587 OFFCURVE",
"0 569 CURVE SMOOTH",
"0 566 OFFCURVE",
"1 559 OFFCURVE",
"12 559 CURVE SMOOTH",
"78 559 OFFCURVE",
"303 562 OFFCURVE",
"364 562 CURVE SMOOTH",
"406 562 OFFCURVE",
"449 560 OFFCURVE",
"490 557 CURVE SMOOTH",
"518 555 OFFCURVE",
"536 546 OFFCURVE",
"536 526 CURVE SMOOTH",
"536 488 OFFCURVE",
"478 486 OFFCURVE",
"442 486 CURVE SMOOTH",
"425 486 OFFCURVE",
"405 485 OFFCURVE",
"379 485 CURVE SMOOTH",
"351 485 OFFCURVE",
"321 421 OFFCURVE",
"321 403 CURVE SMOOTH",
"321 400 OFFCURVE",
"323 391 OFFCURVE",
"334 391 CURVE SMOOTH"
);
},
{
closed = 1;
nodes = (
"541 -307 LINE SMOOTH",
"579 -307 OFFCURVE",
"597 -298 OFFCURVE",
"608 -282 CURVE SMOOTH",
"615 -272 OFFCURVE",
"626 -248 OFFCURVE",
"626 -233 CURVE SMOOTH",
"626 -222 OFFCURVE",
"619 -219 OFFCURVE",
"598 -219 CURVE SMOOTH",
"570 -219 OFFCURVE",
"314 -226 OFFCURVE",
"241 -223 CURVE",
"272 -199 OFFCURVE",
"291 -158 OFFCURVE",
"291 -122 CURVE SMOOTH",
"291 -63 OFFCURVE",
"242 -31 OFFCURVE",
"183 -31 CURVE SMOOTH",
"85 -31 OFFCURVE",
"0 -109 OFFCURVE",
"0 -196 CURVE SMOOTH",
"0 -267 OFFCURVE",
"51 -307 OFFCURVE",
"137 -307 CURVE SMOOTH"
);
},
{
closed = 1;
nodes = (
"127 -224 OFFCURVE",
"76 -207 OFFCURVE",
"76 -163 CURVE SMOOTH",
"76 -124 OFFCURVE",
"111 -101 OFFCURVE",
"148 -101 CURVE SMOOTH",
"195 -101 OFFCURVE",
"216 -135 OFFCURVE",
"216 -166 CURVE SMOOTH",
"216 -188 OFFCURVE",
"205 -211 OFFCURVE",
"184 -225 CURVE"
);
}
);
width = 626;
}
);
unicode = 0C48;
},
{
color = 9;
glyphname = tlmO;
lastChange = "2015-12-16 10:01:23 +0000";
layers = (
{
layerId = "59118767-2CA9-48AA-9373-694D24C960D8";
name = Regular;
paths = (
{
closed = 1;
nodes = (
"589 419 OFFCURVE",
"697 512 OFFCURVE",
"697 604 CURVE SMOOTH",
"697 677 OFFCURVE",
"620 709 OFFCURVE",
"527 709 CURVE SMOOTH",
"413 709 OFFCURVE",
"284 650 OFFCURVE",
"231 586 CURVE",
"193 511 LINE",
"205 500 OFFCURVE",
"233 523 OFFCURVE",
"262 547 CURVE SMOOTH",
"310 588 OFFCURVE",
"379 615 OFFCURVE",
"444 626 CURVE",
"441 650 LINE",
"349 538 OFFCURVE",
"386 419 OFFCURVE",
"497 419 CURVE SMOOTH"
);
},
{
closed = 1;
nodes = (
"183 396 OFFCURVE",
"196 421 OFFCURVE",
"177 426 CURVE",
"109 443 OFFCURVE",
"72 490 OFFCURVE",
"72 528 CURVE SMOOTH",
"72 553 OFFCURVE",
"88 575 OFFCURVE",
"115 575 CURVE SMOOTH",
"144 575 OFFCURVE",
"159 548 OFFCURVE",
"172 528 CURVE SMOOTH",
"183 511 OFFCURVE",
"199 502 OFFCURVE",
"216 513 CURVE",
"277 580 LINE",
"238 634 OFFCURVE",
"200 664 OFFCURVE",
"156 664 CURVE SMOOTH",
"81 664 OFFCURVE",
"0 591 OFFCURVE",
"0 503 CURVE SMOOTH",
"0 410 OFFCURVE",
"71 322 OFFCURVE",
"155 378 CURVE SMOOTH"
);
},
{
closed = 1;
nodes = (
"501 503 OFFCURVE",
"459 525 OFFCURVE",
"459 570 CURVE SMOOTH",
"459 619 OFFCURVE",
"487 629 OFFCURVE",
"520 629 CURVE SMOOTH",
"555 629 OFFCURVE",
"605 608 OFFCURVE",
"605 562 CURVE SMOOTH",
"605 523 OFFCURVE",
"571 503 OFFCURVE",
"537 503 CURVE SMOOTH"
);
}
);
width = 697;
}
);
unicode = 0C4A;
},
{
color = 9;
glyphname = tlmAU;
lastChange = "2015-12-16 10:01:23 +0000";
layers = (
{
components = (
{
name = "CC-lenghtmark_Telugu";
transform = "{1, 0.036, -0.036, 1, 98, 191}";
}
);
layerId = "59118767-2CA9-48AA-9373-694D24C960D8";
name = Regular;
paths = (
{
closed = 1;
nodes = (
"120 395 LINE SMOOTH",
"209 397 OFFCURVE",
"340 471 OFFCURVE",
"340 568 CURVE SMOOTH",
"340 652 OFFCURVE",
"262 655 OFFCURVE",
"230 656 CURVE SMOOTH",
"224 656 OFFCURVE",
"213 656 OFFCURVE",
"200 657 CURVE",
"146 567 LINE",
"205 573 OFFCURVE",
"255 560 OFFCURVE",
"255 530 CURVE SMOOTH",
"255 492 OFFCURVE",
"197 490 OFFCURVE",
"161 490 CURVE SMOOTH",
"124 490 OFFCURVE",
"84 488 OFFCURVE",
"58 488 CURVE SMOOTH",
"30 488 OFFCURVE",
"0 422 OFFCURVE",
"0 404 CURVE SMOOTH",
"0 401 OFFCURVE",
"2 392 OFFCURVE",
"13 392 CURVE SMOOTH"
);
}
);
width = 709;
}
);
unicode = 0C4C;
},
{
color = 9;
glyphname = tlLengthmark;
lastChange = "2015-12-16 10:01:23 +0000";
layers = (
{
layerId = "59118767-2CA9-48AA-9373-694D24C960D8";
name = Regular;
paths = (
{
closed = 1;
nodes = (
"61 367 OFFCURVE",
"133 411 OFFCURVE",
"122 422 CURVE",
"105 436 OFFCURVE",
"62 485 OFFCURVE",
"62 548 CURVE SMOOTH",
"62 600 OFFCURVE",
"92 623 OFFCURVE",
"133 623 CURVE SMOOTH",
"183 623 OFFCURVE",
"211 589 OFFCURVE",
"230 589 CURVE SMOOTH",
"249 589 OFFCURVE",
"278 624 OFFCURVE",
"278 655 CURVE SMOOTH",
"278 700 OFFCURVE",
"219 720 OFFCURVE",
"175 720 CURVE SMOOTH",
"101 720 OFFCURVE",
"0 663 OFFCURVE",
"0 522 CURVE SMOOTH",
"0 429 OFFCURVE",
"44 387 OFFCURVE",
"52 378 CURVE SMOOTH"
);
}
);
width = 278;
}
);
unicode = 0C55;
},
{
color = 7;
glyphname = tlAIlengthmark;
lastChange = "2015-12-17 08:57:03 +0000";
layers = (
{
layerId = "59118767-2CA9-48AA-9373-694D24C960D8";
name = Regular;
paths = (
{
closed = 1;
nodes = (
"481 -375 LINE SMOOTH",
"519 -375 OFFCURVE",
"537 -366 OFFCURVE",
"548 -350 CURVE SMOOTH",
"555 -340 OFFCURVE",
"566 -316 OFFCURVE",
"566 -301 CURVE SMOOTH",
"566 -290 OFFCURVE",
"559 -287 OFFCURVE",
"538 -287 CURVE SMOOTH",
"510 -287 OFFCURVE",
"314 -294 OFFCURVE",
"241 -291 CURVE",
"272 -267 OFFCURVE",
"291 -226 OFFCURVE",
"291 -190 CURVE SMOOTH",
"291 -131 OFFCURVE",
"242 -99 OFFCURVE",
"183 -99 CURVE SMOOTH",
"85 -99 OFFCURVE",
"0 -177 OFFCURVE",
"0 -264 CURVE SMOOTH",
"0 -335 OFFCURVE",
"51 -375 OFFCURVE",
"137 -375 CURVE SMOOTH"
);
},
{
closed = 1;
nodes = (
"127 -292 OFFCURVE",
"76 -275 OFFCURVE",
"76 -231 CURVE SMOOTH",
"76 -192 OFFCURVE",
"111 -169 OFFCURVE",
"148 -169 CURVE SMOOTH",
"195 -169 OFFCURVE",
"216 -203 OFFCURVE",
"216 -234 CURVE SMOOTH",
"216 -256 OFFCURVE",
"205 -279 OFFCURVE",
"184 -293 CURVE"
);
}
);
width = 566;
}
);
unicode = 0C56;
},
{
color = 8;
glyphname = tlAIlengthmark.following;
lastChange = "2015-12-18 12:32:37 +0000";
layers = (
{
layerId = "59118767-2CA9-48AA-9373-694D24C960D8";
name = Regular;
paths = (
{
closed = 1;
nodes = (
"531 -375 LINE SMOOTH",
"569 -375 OFFCURVE",
"587 -366 OFFCURVE",
"598 -350 CURVE SMOOTH",
"605 -340 OFFCURVE",
"616 -316 OFFCURVE",
"616 -301 CURVE SMOOTH",
"616 -290 OFFCURVE",
"609 -287 OFFCURVE",
"588 -287 CURVE SMOOTH",
"560 -287 OFFCURVE",
"364 -294 OFFCURVE",
"291 -291 CURVE",
"322 -267 OFFCURVE",
"341 -226 OFFCURVE",
"341 -190 CURVE SMOOTH",
"341 -131 OFFCURVE",
"292 -99 OFFCURVE",
"233 -99 CURVE SMOOTH",
"135 -99 OFFCURVE",
"50 -177 OFFCURVE",
"50 -264 CURVE SMOOTH",
"50 -335 OFFCURVE",
"101 -375 OFFCURVE",
"187 -375 CURVE SMOOTH"
);
},
{
closed = 1;
nodes = (
"177 -292 OFFCURVE",
"126 -275 OFFCURVE",
"126 -231 CURVE SMOOTH",
"126 -192 OFFCURVE",
"161 -169 OFFCURVE",
"198 -169 CURVE SMOOTH",
"245 -169 OFFCURVE",
"266 -203 OFFCURVE",
"266 -234 CURVE SMOOTH",
"266 -256 OFFCURVE",
"255 -279 OFFCURVE",
"234 -293 CURVE"
);
}
);
width = 616;
}
);
},
{
color = 7;
glyphname = tlAIlengthmark.01;
lastChange = "2015-12-16 07:53:27 +0000";
layers = (
{
layerId = "59118767-2CA9-48AA-9373-694D24C960D8";
name = Regular;
paths = (
{
closed = 1;
nodes = (
"371 -370 LINE SMOOTH",
"409 -370 OFFCURVE",
"427 -361 OFFCURVE",
"438 -345 CURVE SMOOTH",
"445 -335 OFFCURVE",
"456 -311 OFFCURVE",
"456 -296 CURVE SMOOTH",
"456 -285 OFFCURVE",
"449 -282 OFFCURVE",
"428 -282 CURVE SMOOTH",
"400 -282 OFFCURVE",
"314 -289 OFFCURVE",
"241 -286 CURVE",
"272 -262 OFFCURVE",
"291 -221 OFFCURVE",
"291 -185 CURVE SMOOTH",
"291 -126 OFFCURVE",
"242 -94 OFFCURVE",
"183 -94 CURVE SMOOTH",
"85 -94 OFFCURVE",
"0 -172 OFFCURVE",
"0 -259 CURVE SMOOTH",
"0 -330 OFFCURVE",
"51 -370 OFFCURVE",
"137 -370 CURVE SMOOTH"
);
},
{
closed = 1;
nodes = (
"127 -287 OFFCURVE",
"76 -270 OFFCURVE",
"76 -226 CURVE SMOOTH",
"76 -187 OFFCURVE",
"111 -164 OFFCURVE",
"148 -164 CURVE SMOOTH",
"195 -164 OFFCURVE",
"216 -198 OFFCURVE",
"216 -229 CURVE SMOOTH",
"216 -251 OFFCURVE",
"205 -274 OFFCURVE",
"184 -288 CURVE"
);
}
);
width = 456;
}
);
script = telugu;
category = Mark;
subCategory = Nonspacing;
},
{
color = 7;
glyphname = tlAIlengthmark.03;
lastChange = "2015-12-16 07:53:27 +0000";
layers = (
{
layerId = "59118767-2CA9-48AA-9373-694D24C960D8";
name = Regular;
paths = (
{
closed = 1;
nodes = (
"611 -369 LINE SMOOTH",
"649 -369 OFFCURVE",
"667 -360 OFFCURVE",
"678 -344 CURVE SMOOTH",
"685 -334 OFFCURVE",
"696 -310 OFFCURVE",
"696 -295 CURVE SMOOTH",
"696 -284 OFFCURVE",
"689 -281 OFFCURVE",
"668 -281 CURVE SMOOTH",
"640 -281 OFFCURVE",
"314 -288 OFFCURVE",
"241 -285 CURVE",
"272 -261 OFFCURVE",
"291 -220 OFFCURVE",
"291 -184 CURVE SMOOTH",
"291 -125 OFFCURVE",
"242 -93 OFFCURVE",
"183 -93 CURVE SMOOTH",
"85 -93 OFFCURVE",
"0 -171 OFFCURVE",
"0 -258 CURVE SMOOTH",
"0 -329 OFFCURVE",
"51 -369 OFFCURVE",
"137 -369 CURVE SMOOTH"
);
},
{
closed = 1;
nodes = (
"127 -286 OFFCURVE",
"76 -269 OFFCURVE",
"76 -225 CURVE SMOOTH",
"76 -186 OFFCURVE",
"111 -163 OFFCURVE",
"148 -163 CURVE SMOOTH",
"195 -163 OFFCURVE",
"216 -197 OFFCURVE",
"216 -228 CURVE SMOOTH",
"216 -250 OFFCURVE",
"205 -273 OFFCURVE",
"184 -287 CURVE"
);
}
);
width = 696;
}
);
script = telugu;
category = Mark;
subCategory = Nonspacing;
},
{
color = 6;
glyphname = tlKA;
lastChange = "2015-12-19 06:53:04 +0000";
layers = (
{
anchors = (
{
name = bottom;
position = "{250, 0}";
}
);
components = (
{
name = tlTick;
transform = "{1, 0, 0, 1, 40, 0}";
},
{
name = "CC-ka-telugu";
transform = "{1, 0, 0, 1, 59, 0}";
}
);
guideLines = (
{
position = "{613, -218}";
}
);
layerId = "59118767-2CA9-48AA-9373-694D24C960D8";
name = Regular;
paths = (
{
closed = 1;
nodes = (
"82 322 OFFCURVE",
"143 393 OFFCURVE",
"250 433 CURVE",
"371 491 LINE",
"271 491 OFFCURVE",
"50 395 OFFCURVE",
"40 366 CURVE",
"38 349 OFFCURVE",
"46 322 OFFCURVE",
"60 322 CURVE SMOOTH"
);
}
);
width = 501;
}
);
leftKerningGroup = tlKA;
rightKerningGroup = tlKA;
unicode = 0C15;
},
{
color = 6;
glyphname = tlGA;
lastChange = "2015-12-19 06:51:52 +0000";
layers = (
{
anchors = (
{
name = bottom;
position = "{244, 0}";
}
);
components = (
{
name = tlTick;
transform = "{1, 0, 0, 1, 41, 18}";
}
);
layerId = "59118767-2CA9-48AA-9373-694D24C960D8";
name = Regular;
paths = (
{
closed = 1;
nodes = (
"376 -13 OFFCURVE",
"436 40 OFFCURVE",
"440 56 CURVE",
"448 91 OFFCURVE",
"453 130 OFFCURVE",
"453 211 CURVE SMOOTH",
"453 359 OFFCURVE",
"389 480 OFFCURVE",
"260 480 CURVE SMOOTH",
"191 480 OFFCURVE",
"115 449 OFFCURVE",
"48 386 CURVE",
"39 377 OFFCURVE",
"40 366 OFFCURVE",
"40 356 CURVE SMOOTH",
"40 336 OFFCURVE",
"51 326 OFFCURVE",
"58 326 CURVE SMOOTH",
"77 326 OFFCURVE",
"152 378 OFFCURVE",
"226 378 CURVE SMOOTH",
"283 378 OFFCURVE",
"360 329 OFFCURVE",
"360 188 CURVE SMOOTH",
"360 66 OFFCURVE",
"340 21 OFFCURVE",
"340 1 CURVE SMOOTH",
"340 -8 OFFCURVE",
"344 -13 OFFCURVE",
"351 -13 CURVE SMOOTH"
);
},
{
closed = 1;
nodes = (
"80 -12 OFFCURVE",
"147 44 OFFCURVE",
"147 88 CURVE SMOOTH",
"147 170 OFFCURVE",
"257 399 OFFCURVE",
"361 414 CURVE",
"282 416 LINE",
"187 401 OFFCURVE",
"41 194 OFFCURVE",
"41 5 CURVE",
"41 -7 OFFCURVE",
"46 -12 OFFCURVE",
"54 -12 CURVE SMOOTH"
);
}
);
width = 488;
}
);
leftKerningGroup = tlGA;
rightKerningGroup = tlGA;
unicode = 0C17;
},
{
color = 6;
glyphname = tlNGA;
lastChange = "2015-12-19 06:46:47 +0000";
layers = (
{
anchors = (
{
name = bottom;
position = "{330, 0}";
}
);
components = (
{
name = tlO;
}
);
layerId = "59118767-2CA9-48AA-9373-694D24C960D8";
name = Regular;
paths = (
{
closed = 1;
nodes = (
"247 355 OFFCURVE",
"275 357 OFFCURVE",
"306 358 CURVE SMOOTH",
"438 365 OFFCURVE",
"512 360 OFFCURVE",
"527 360 CURVE SMOOTH",
"563 362 OFFCURVE",
"600 418 OFFCURVE",
"598 434 CURVE SMOOTH",
"598 441 OFFCURVE",
"591 445 OFFCURVE",
"586 445 CURVE",
"492 443 OFFCURVE",
"326 438 OFFCURVE",
"222 434 CURVE",
"222 353 LINE"
);
},
{
closed = 1;
nodes = (
"458 472 OFFCURVE",
"484 584 OFFCURVE",
"489 644 CURVE SMOOTH",
"492 677 OFFCURVE",
"470 714 OFFCURVE",
"446 714 CURVE SMOOTH",
"425 714 OFFCURVE",
"376 687 OFFCURVE",
"379 650 CURVE SMOOTH",
"380 627 OFFCURVE",
"388 534 OFFCURVE",
"395 488 CURVE",
"396 479 OFFCURVE",
"403 472 OFFCURVE",
"413 472 CURVE SMOOTH"
);
}
);
width = 660;
}
);
leftKerningGroup = tlO;
leftMetricsKey = tlO;
rightKerningGroup = tlO;
rightMetricsKey = tlO;
unicode = 0C19;
},
{
color = 6;
glyphname = tlCA;
lastChange = "2015-12-19 07:26:13 +0000";
layers = (
{
anchors = (
{
name = bottom;
position = "{376, 0}";
}
);
components = (
{
name = "CC-Tl-CA";
transform = "{1, 0, 0, 1, 10, 0}";
}
);
layerId = "59118767-2CA9-48AA-9373-694D24C960D8";
name = Regular;
paths = (
{
closed = 1;
nodes = (
"203 329 OFFCURVE",
"207 331 OFFCURVE",
"209 333 CURVE SMOOTH",
"220 345 OFFCURVE",
"252 450 OFFCURVE",
"330 517 CURVE SMOOTH",
"402 579 OFFCURVE",
"455 558 OFFCURVE",
"471 574 CURVE SMOOTH",
"480 583 OFFCURVE",
"510 636 OFFCURVE",
"510 666 CURVE SMOOTH",
"510 680 OFFCURVE",
"504 690 OFFCURVE",
"485 690 CURVE SMOOTH",
"452 690 OFFCURVE",
"402 661 OFFCURVE",
"353 618 CURVE SMOOTH",
"260 537 OFFCURVE",
"197 435 OFFCURVE",
"177 381 CURVE SMOOTH",
"170 359 OFFCURVE",
"170 329 OFFCURVE",
"198 329 CURVE SMOOTH"
);
}
);
width = 753;
}
);
leftKerningGroup = tlCA;
rightKerningGroup = tlDA;
rightMetricsKey = tlDA;
unicode = 0C1A;
},
{
color = 6;
glyphname = tlJA;
lastChange = "2015-12-19 06:44:57 +0000";
layers = (
{
anchors = (
{
name = bottom;
position = "{330, 0}";
}
);
components = (
{
name = tlO;
}
);
layerId = "59118767-2CA9-48AA-9373-694D24C960D8";
name = Regular;
paths = (
{
closed = 1;
nodes = (
"444 296 OFFCURVE",
"551 417 OFFCURVE",
"551 552 CURVE SMOOTH",
"551 601 OFFCURVE",
"536 612 OFFCURVE",
"508 612 CURVE SMOOTH",
"465 612 OFFCURVE",
"430 555 OFFCURVE",
"430 535 CURVE SMOOTH",
"430 516 OFFCURVE",
"464 508 OFFCURVE",
"464 468 CURVE SMOOTH",
"464 428 OFFCURVE",
"420 383 OFFCURVE",
"377 383 CURVE SMOOTH",
"329 383 OFFCURVE",
"294 414 OFFCURVE",
"281 457 CURVE",
"220 388 LINE",
"225 325 OFFCURVE",
"269 296 OFFCURVE",
"328 296 CURVE SMOOTH"
);
}
);
width = 660;
}
);
leftKerningGroup = tlO;
leftMetricsKey = tlO;
rightKerningGroup = tlO;
rightMetricsKey = tlO;
unicode = 0C1C;
},
{
color = 6;
glyphname = tlNYA;
lastChange = "2015-12-19 06:56:10 +0000";
layers = (
{
anchors = (
{
name = bottom;
position = "{341, 0}";
}
);
components = (
{
disableAlignment = 1;
name = tlI;
}
);
layerId = "59118767-2CA9-48AA-9373-694D24C960D8";
name = Regular;
paths = (
{
closed = 1;
nodes = (
"532 357 OFFCURVE",
"544 358 OFFCURVE",
"556 358 CURVE SMOOTH",
"688 365 OFFCURVE",
"762 360 OFFCURVE",
"777 360 CURVE SMOOTH",
"813 362 OFFCURVE",
"850 418 OFFCURVE",
"848 434 CURVE SMOOTH",
"848 441 OFFCURVE",
"841 445 OFFCURVE",
"836 445 CURVE",
"756 443 OFFCURVE",
"623 439 OFFCURVE",
"521 436 CURVE",
"521 356 LINE"
);
},
{
closed = 1;
nodes = (
"720 472 OFFCURVE",
"746 584 OFFCURVE",
"751 644 CURVE SMOOTH",
"754 677 OFFCURVE",
"732 714 OFFCURVE",
"708 714 CURVE SMOOTH",
"687 714 OFFCURVE",
"638 687 OFFCURVE",
"641 650 CURVE SMOOTH",
"642 627 OFFCURVE",
"650 534 OFFCURVE",
"657 488 CURVE",
"658 479 OFFCURVE",
"665 472 OFFCURVE",
"675 472 CURVE SMOOTH"
);
}
);
width = 823;
}
);
leftKerningGroup = tlI;
leftMetricsKey = tlI;
rightKerningGroup = tlNYA;
unicode = 0C1E;
},
{
color = 6;
glyphname = tlTTA;
lastChange = "2015-12-19 07:05:43 +0000";
layers = (
{
anchors = (
{
name = bottom;
position = "{390, 0}";
}
);
background = {
paths = (
{
closed = 1;
nodes = (
"767 351 OFFCURVE",
"670 456 OFFCURVE",
"564 462 CURVE SMOOTH",
"527 464 OFFCURVE",
"487 414 OFFCURVE",
"487 384 CURVE SMOOTH",
"487 374 OFFCURVE",
"491 367 OFFCURVE",
"500 364 CURVE SMOOTH",
"551 349 OFFCURVE",
"599 330 OFFCURVE",
"634 301 CURVE SMOOTH",
"668 273 OFFCURVE",
"689 232 OFFCURVE",
"689 192 CURVE SMOOTH",
"689 124 OFFCURVE",
"633 83 OFFCURVE",
"562 83 CURVE SMOOTH",
"502 83 OFFCURVE",
"445 114 OFFCURVE",
"430 172 CURVE",
"360 93 LINE",
"364 48 OFFCURVE",
"406 -14 OFFCURVE",
"502 -14 CURVE SMOOTH",
"648 -14 OFFCURVE",
"767 99 OFFCURVE",
"767 240 CURVE SMOOTH"
);
}
);
};
guideLines = (
{
position = "{916, 503}";
},
{
angle = 180.542;
position = "{715, 717}";
}
);
layerId = "59118767-2CA9-48AA-9373-694D24C960D8";
name = Regular;
paths = (
{
closed = 1;
nodes = (
"272 -14 OFFCURVE",
"336 6 OFFCURVE",
"391 47 CURVE",
"427 5 OFFCURVE",
"474 -14 OFFCURVE",
"522 -14 CURVE SMOOTH",
"663 -14 OFFCURVE",
"761 111 OFFCURVE",
"761 238 CURVE SMOOTH",
"761 296 OFFCURVE",
"740 355 OFFCURVE",
"692 401 CURVE SMOOTH",
"657 435 OFFCURVE",
"602 460 OFFCURVE",
"563 462 CURVE SMOOTH",
"515 465 OFFCURVE",
"462 375 OFFCURVE",
"501 364 CURVE SMOOTH",
"544 352 OFFCURVE",
"584 337 OFFCURVE",
"615 314 CURVE SMOOTH",
"669 274 OFFCURVE",
"683 233 OFFCURVE",
"683 190 CURVE SMOOTH",
"683 134 OFFCURVE",
"645 86 OFFCURVE",
"573 86 CURVE SMOOTH",
"526 86 OFFCURVE",
"476 111 OFFCURVE",
"449 163 CURVE",
"446 171 OFFCURVE",
"440 173 OFFCURVE",
"434 173 CURVE SMOOTH",
"422 173 OFFCURVE",
"414 166 OFFCURVE",
"403 152 CURVE",
"363 106 OFFCURVE",
"320 80 OFFCURVE",
"265 80 CURVE SMOOTH",
"194 80 OFFCURVE",
"139 124 OFFCURVE",
"139 207 CURVE SMOOTH",
"139 296 OFFCURVE",
"193 376 OFFCURVE",
"270 376 CURVE SMOOTH",
"297 376 OFFCURVE",
"310 358 OFFCURVE",
"310 338 CURVE SMOOTH",
"310 315 OFFCURVE",
"294 288 OFFCURVE",
"266 280 CURVE SMOOTH",
"251 275 OFFCURVE",
"239 278 OFFCURVE",
"236 275 CURVE SMOOTH",
"218 252 OFFCURVE",
"230 216 OFFCURVE",
"267 220 CURVE SMOOTH",
"353 230 OFFCURVE",
"412 298 OFFCURVE",
"412 363 CURVE SMOOTH",
"412 423 OFFCURVE",
"367 463 OFFCURVE",
"302 463 CURVE SMOOTH",
"171 463 OFFCURVE",
"40 301 OFFCURVE",
"40 154 CURVE SMOOTH",
"40 41 OFFCURVE",
"119 -14 OFFCURVE",
"214 -14 CURVE SMOOTH"
);
},
{
closed = 1;
nodes = (
"296 472 OFFCURVE",
"322 584 OFFCURVE",
"327 644 CURVE SMOOTH",
"330 677 OFFCURVE",
"308 714 OFFCURVE",
"284 714 CURVE SMOOTH",
"263 714 OFFCURVE",
"214 687 OFFCURVE",
"217 650 CURVE SMOOTH",
"218 627 OFFCURVE",
"226 534 OFFCURVE",
"233 488 CURVE",
"234 479 OFFCURVE",
"241 472 OFFCURVE",
"251 472 CURVE SMOOTH"
);
}
);
width = 781;
},
{
associatedMasterId = "59118767-2CA9-48AA-9373-694D24C960D8";
background = {
paths = (
{
closed = 1;
nodes = (
"767 351 OFFCURVE",
"670 456 OFFCURVE",
"564 462 CURVE SMOOTH",
"527 464 OFFCURVE",
"487 414 OFFCURVE",
"487 384 CURVE SMOOTH",
"487 374 OFFCURVE",
"491 367 OFFCURVE",
"500 364 CURVE SMOOTH",
"551 349 OFFCURVE",
"599 330 OFFCURVE",
"634 301 CURVE SMOOTH",
"668 273 OFFCURVE",
"689 232 OFFCURVE",
"689 192 CURVE SMOOTH",
"689 124 OFFCURVE",
"633 83 OFFCURVE",
"562 83 CURVE SMOOTH",
"502 83 OFFCURVE",
"445 114 OFFCURVE",
"430 172 CURVE",
"360 93 LINE",
"364 48 OFFCURVE",
"406 -14 OFFCURVE",
"502 -14 CURVE SMOOTH",
"648 -14 OFFCURVE",
"767 99 OFFCURVE",
"767 240 CURVE SMOOTH"
);
}
);
};
guideLines = (
{
position = "{916, 503}";
},
{
angle = 180.542;
position = "{715, 717}";
}
);
layerId = "64B3EE21-0A29-4082-A84C-DA16C26EB074";
name = "Regular Nov 18 15, 13:22";
paths = (
{
closed = 1;
nodes = (
"272 -14 OFFCURVE",
"336 6 OFFCURVE",
"391 47 CURVE",
"427 5 OFFCURVE",
"473 -14 OFFCURVE",
"521 -14 CURVE SMOOTH",
"647 -14 OFFCURVE",
"758 96 OFFCURVE",
"758 240 CURVE SMOOTH",
"758 301 OFFCURVE",
"733 360 OFFCURVE",
"692 401 CURVE SMOOTH",
"658 436 OFFCURVE",
"614 459 OFFCURVE",
"563 462 CURVE SMOOTH",
"515 465 OFFCURVE",
"462 375 OFFCURVE",
"501 364 CURVE SMOOTH",
"544 352 OFFCURVE",
"584 337 OFFCURVE",
"615 314 CURVE SMOOTH",
"654 285 OFFCURVE",
"679 244 OFFCURVE",
"679 184 CURVE SMOOTH",
"679 121 OFFCURVE",
"628 86 OFFCURVE",
"573 86 CURVE SMOOTH",
"526 86 OFFCURVE",
"476 111 OFFCURVE",
"449 163 CURVE",
"446 171 OFFCURVE",
"440 173 OFFCURVE",
"434 173 CURVE SMOOTH",
"422 173 OFFCURVE",
"414 166 OFFCURVE",
"403 152 CURVE",
"363 106 OFFCURVE",
"320 80 OFFCURVE",
"265 80 CURVE SMOOTH",
"194 80 OFFCURVE",
"139 124 OFFCURVE",
"139 207 CURVE SMOOTH",
"139 296 OFFCURVE",
"193 376 OFFCURVE",
"270 376 CURVE SMOOTH",
"297 376 OFFCURVE",
"310 358 OFFCURVE",
"310 338 CURVE SMOOTH",
"310 315 OFFCURVE",
"294 288 OFFCURVE",
"266 280 CURVE SMOOTH",
"251 275 OFFCURVE",
"239 278 OFFCURVE",
"236 275 CURVE SMOOTH",
"218 252 OFFCURVE",
"230 216 OFFCURVE",
"267 220 CURVE SMOOTH",
"353 230 OFFCURVE",
"412 298 OFFCURVE",
"412 363 CURVE SMOOTH",
"412 423 OFFCURVE",
"367 463 OFFCURVE",
"302 463 CURVE SMOOTH",
"171 463 OFFCURVE",
"40 301 OFFCURVE",
"40 154 CURVE SMOOTH",
"40 41 OFFCURVE",
"119 -14 OFFCURVE",
"214 -14 CURVE SMOOTH"
);
},
{
closed = 1;
nodes = (
"296 472 OFFCURVE",
"322 584 OFFCURVE",
"327 644 CURVE SMOOTH",
"330 677 OFFCURVE",
"308 714 OFFCURVE",
"284 714 CURVE SMOOTH",
"263 714 OFFCURVE",
"214 687 OFFCURVE",
"217 650 CURVE SMOOTH",
"218 627 OFFCURVE",
"226 534 OFFCURVE",
"233 488 CURVE",
"234 479 OFFCURVE",
"241 472 OFFCURVE",
"251 472 CURVE SMOOTH"
);
}
);
width = 793;
}
);
leftKerningGroup = tlTTA;
leftMetricsKey = tlLA;
rightKerningGroup = tlJHA;
rightMetricsKey = tlJHA;
unicode = 0C1F;
},
{
color = 6;
glyphname = tlDDA;
lastChange = "2015-12-19 06:50:00 +0000";
layers = (
{
anchors = (
{
name = bottom;
position = "{333, 0}";
}
);
components = (
{
name = tlTick;
transform = "{1, 0, 0, 1, 64, 0}";
}
);
layerId = "59118767-2CA9-48AA-9373-694D24C960D8";
name = Regular;
paths = (
{
closed = 1;
nodes = (
"160 -50 OFFCURVE",
"228 -20 OFFCURVE",
"290 45 CURVE",
"320 6 OFFCURVE",
"366 -13 OFFCURVE",
"416 -13 CURVE SMOOTH",
"531 -13 OFFCURVE",
"652 80 OFFCURVE",
"652 191 CURVE SMOOTH",
"652 265 OFFCURVE",
"607 304 OFFCURVE",
"552 304 CURVE SMOOTH",
"489 304 OFFCURVE",
"448 258 OFFCURVE",
"436 231 CURVE SMOOTH",
"416 186 OFFCURVE",
"450 169 OFFCURVE",
"472 186 CURVE",
"484 196 OFFCURVE",
"500 203 OFFCURVE",
"522 203 CURVE SMOOTH",
"594 203 OFFCURVE",
"610 90 OFFCURVE",
"469 90 CURVE SMOOTH",
"418 90 OFFCURVE",
"366 113 OFFCURVE",
"353 157 CURVE",
"351 166 OFFCURVE",
"345 173 OFFCURVE",
"336 173 CURVE SMOOTH",
"325 173 OFFCURVE",
"314 165 OFFCURVE",
"305 152 CURVE SMOOTH",
"269 99 OFFCURVE",
"213 54 OFFCURVE",
"179 54 CURVE SMOOTH",
"148 54 OFFCURVE",
"136 80 OFFCURVE",
"136 113 CURVE SMOOTH",
"136 228 OFFCURVE",
"250 342 OFFCURVE",
"386 387 CURVE SMOOTH",
"434 403 OFFCURVE",
"432 462 OFFCURVE",
"393 462 CURVE SMOOTH",
"293 462 OFFCURVE",
"130 420 OFFCURVE",
"72 380 CURVE",
"54 345 OFFCURVE",
"73 310 OFFCURVE",
"88 310 CURVE SMOOTH",
"106 310 OFFCURVE",
"141 339 OFFCURVE",
"213 359 CURVE",
"118 294 OFFCURVE",
"35 152 OFFCURVE",
"35 42 CURVE SMOOTH",
"35 -11 OFFCURVE",
"57 -50 OFFCURVE",
"114 -50 CURVE SMOOTH"
);
}
);
width = 667;
}
);
leftKerningGroup = tlDA;
leftMetricsKey = tlDA;
rightKerningGroup = tlDDA;
unicode = 0C21;
},
{
color = 6;
glyphname = tlNNA;
lastChange = "2015-12-19 06:54:06 +0000";
layers = (
{
anchors = (
{
name = bottom;
position = "{375, 0}";
}
);
guideLines = (
{
angle = 90;
position = "{56, 161}";
}
);
layerId = "59118767-2CA9-48AA-9373-694D24C960D8";
name = Regular;
paths = (
{
closed = 1;
nodes = (
"630 -14 OFFCURVE",
"730 133 OFFCURVE",
"730 280 CURVE SMOOTH",
"730 400 OFFCURVE",
"661 463 OFFCURVE",
"571 463 CURVE SMOOTH",
"526 463 OFFCURVE",
"476 448 OFFCURVE",
"426 415 CURVE",
"450 393 LINE",
"406 487 OFFCURVE",
"331 523 OFFCURVE",
"266 523 CURVE SMOOTH",
"158 523 OFFCURVE",
"50 447 OFFCURVE",
"50 316 CURVE SMOOTH",
"50 242 OFFCURVE",
"94 176 OFFCURVE",
"196 176 CURVE SMOOTH",
"242 176 OFFCURVE",
"289 207 OFFCURVE",
"306 249 CURVE SMOOTH",
"313 266 OFFCURVE",
"312 281 OFFCURVE",
"293 289 CURVE SMOOTH",
"269 299 OFFCURVE",
"229 294 OFFCURVE",
"191 280 CURVE",
"156 298 OFFCURVE",
"138 333 OFFCURVE",
"138 367 CURVE SMOOTH",
"138 410 OFFCURVE",
"166 450 OFFCURVE",
"218 450 CURVE SMOOTH",
"269 450 OFFCURVE",
"297 417 OFFCURVE",
"348 353 CURVE SMOOTH",
"371 324 OFFCURVE",
"371 324 OFFCURVE",
"404 343 CURVE SMOOTH",
"434 361 OFFCURVE",
"466 373 OFFCURVE",
"496 373 CURVE SMOOTH",
"578 373 OFFCURVE",
"650 312 OFFCURVE",
"650 211 CURVE SMOOTH",
"650 176 OFFCURVE",
"640 140 OFFCURVE",
"619 108 CURVE",
"637 178 OFFCURVE",
"604 263 OFFCURVE",
"524 263 CURVE SMOOTH",
"431 263 OFFCURVE",
"366 167 OFFCURVE",
"366 87 CURVE SMOOTH",
"366 19 OFFCURVE",
"420 -14 OFFCURVE",
"484 -14 CURVE SMOOTH"
);
},
{
closed = 1;
nodes = (
"187 -13 OFFCURVE",
"212 -3 OFFCURVE",
"234 19 CURVE SMOOTH",
"257 44 OFFCURVE",
"268 71 OFFCURVE",
"262 83 CURVE SMOOTH",
"258 90 OFFCURVE",
"250 88 OFFCURVE",
"235 88 CURVE SMOOTH",
"175 87 OFFCURVE",
"127 107 OFFCURVE",
"127 155 CURVE SMOOTH",
"127 170 OFFCURVE",
"132 179 OFFCURVE",
"141 186 CURVE",
"115 225 LINE",
"73 193 OFFCURVE",
"51 147 OFFCURVE",
"51 104 CURVE SMOOTH",
"51 37 OFFCURVE",
"93 -12 OFFCURVE",
"162 -13 CURVE SMOOTH"
);
},
{
closed = 1;
nodes = (
"463 72 OFFCURVE",
"438 105 OFFCURVE",
"438 131 CURVE SMOOTH",
"438 152 OFFCURVE",
"454 170 OFFCURVE",
"485 170 CURVE SMOOTH",
"524 170 OFFCURVE",
"569 140 OFFCURVE",
"569 82 CURVE SMOOTH",
"569 78 LINE",
"556 74 OFFCURVE",
"540 72 OFFCURVE",
"523 72 CURVE SMOOTH"
);
}
);
width = 750;
}
);
leftKerningGroup = tlNNA;
rightKerningGroup = tlJHA;
rightMetricsKey = tlJHA;
unicode = 0C23;
},
{
color = 6;
glyphname = tlTA;
lastChange = "2015-12-19 07:22:16 +0000";
layers = (
{
anchors = (
{
name = bottom;
position = "{377, -30}";
}
);
background = {
paths = (
{
closed = 1;
nodes = (
"523 214 OFFCURVE",
"499 194 OFFCURVE",
"476 194 CURVE SMOOTH",
"450 194 OFFCURVE",
"423 218 OFFCURVE",
"423 262 CURVE SMOOTH",
"423 304 OFFCURVE",
"447 328 OFFCURVE",
"472 328 CURVE SMOOTH",
"498 328 OFFCURVE",
"523 304 OFFCURVE",
"523 258 CURVE SMOOTH"
);
},
{
closed = 1;
nodes = (
"733 229 LINE",
"744 333 OFFCURVE",
"652 413 OFFCURVE",
"558 413 CURVE SMOOTH",
"540 413 OFFCURVE",
"522 410 OFFCURVE",
"504 404 CURVE",
"542 386 LINE",
"508 441 OFFCURVE",
"461 463 OFFCURVE",
"404 463 CURVE SMOOTH",
"336 463 OFFCURVE",
"264 431 OFFCURVE",
"217 383 CURVE SMOOTH",
"207 369 OFFCURVE",
"205 355 OFFCURVE",
"219 337 CURVE SMOOTH",
"224 331 OFFCURVE",
"230 327 OFFCURVE",
"238 331 CURVE SMOOTH",
"284 353 OFFCURVE",
"333 376 OFFCURVE",
"389 376 CURVE SMOOTH",
"418 376 OFFCURVE",
"444 371 OFFCURVE",
"466 362 CURVE",
"455 380 LINE",
"393 349 OFFCURVE",
"361 286 OFFCURVE",
"361 231 CURVE SMOOTH",
"361 176 OFFCURVE",
"393 128 OFFCURVE",
"455 128 CURVE SMOOTH",
"526 128 OFFCURVE",
"586 200 OFFCURVE",
"586 271 CURVE SMOOTH",
"586 308 OFFCURVE",
"571 333 OFFCURVE",
"543 344 CURVE",
"542 332 LINE",
"609 339 OFFCURVE",
"655 252 OFFCURVE",
"646 199 CURVE"
);
}
);
};
components = (
{
name = tlTick;
transform = "{1, 0, 0, 1, 204, 19}";
},
{
name = "cc-ta";
transform = "{1, 0, 0, 1, 15, 20}";
}
);
layerId = "59118767-2CA9-48AA-9373-694D24C960D8";
name = Regular;
width = 754;
},
{
associatedMasterId = "59118767-2CA9-48AA-9373-694D24C960D8";
background = {
paths = (
{
closed = 1;
nodes = (
"523 214 OFFCURVE",
"499 194 OFFCURVE",
"476 194 CURVE SMOOTH",
"450 194 OFFCURVE",
"423 218 OFFCURVE",
"423 262 CURVE SMOOTH",
"423 304 OFFCURVE",
"447 328 OFFCURVE",
"472 328 CURVE SMOOTH",
"498 328 OFFCURVE",
"523 304 OFFCURVE",
"523 258 CURVE SMOOTH"
);
},
{
closed = 1;
nodes = (
"733 229 LINE",
"744 333 OFFCURVE",
"652 413 OFFCURVE",
"558 413 CURVE SMOOTH",
"540 413 OFFCURVE",
"522 410 OFFCURVE",
"504 404 CURVE",
"542 386 LINE",
"508 441 OFFCURVE",
"461 463 OFFCURVE",
"404 463 CURVE SMOOTH",
"336 463 OFFCURVE",
"264 431 OFFCURVE",
"217 383 CURVE SMOOTH",
"207 369 OFFCURVE",
"205 355 OFFCURVE",
"219 337 CURVE SMOOTH",
"224 331 OFFCURVE",
"230 327 OFFCURVE",
"238 331 CURVE SMOOTH",
"284 353 OFFCURVE",
"333 376 OFFCURVE",
"389 376 CURVE SMOOTH",
"418 376 OFFCURVE",
"444 371 OFFCURVE",
"466 362 CURVE",
"455 380 LINE",
"393 349 OFFCURVE",
"361 286 OFFCURVE",
"361 231 CURVE SMOOTH",
"361 176 OFFCURVE",
"393 128 OFFCURVE",
"455 128 CURVE SMOOTH",
"526 128 OFFCURVE",
"586 200 OFFCURVE",
"586 271 CURVE SMOOTH",
"586 308 OFFCURVE",
"571 333 OFFCURVE",
"543 344 CURVE",
"542 332 LINE",
"609 339 OFFCURVE",
"655 252 OFFCURVE",
"646 199 CURVE"
);
}
);
};
components = (
{
name = tlTick;
transform = "{1, 0, 0, 1, 204, -1}";
}
);
layerId = "67CB00EB-61F5-45AA-9DC6-00DB56806C71";
name = "Regular Dec 18 15, 11:36";
paths = (
{
closed = 1;
nodes = (
"531 -49 OFFCURVE",
"734 65 OFFCURVE",
"734 252 CURVE SMOOTH",
"734 378 OFFCURVE",
"602 435 OFFCURVE",
"503 403 CURVE",
"548 385 LINE",
"514 440 OFFCURVE",
"460 462 OFFCURVE",
"403 462 CURVE SMOOTH",
"331 462 OFFCURVE",
"254 426 OFFCURVE",
"207 372 CURVE",
"207 361 OFFCURVE",
"215 320 OFFCURVE",
"237 330 CURVE SMOOTH",
"283 352 OFFCURVE",
"332 375 OFFCURVE",
"388 375 CURVE SMOOTH",
"417 375 OFFCURVE",
"441 369 OFFCURVE",
"463 356 CURVE",
"458 386 LINE",
"388 353 OFFCURVE",
"346 288 OFFCURVE",
"346 217 CURVE SMOOTH",
"346 137 OFFCURVE",
"399 107 OFFCURVE",
"449 107 CURVE SMOOTH",
"516 107 OFFCURVE",
"583 165 OFFCURVE",
"583 267 CURVE SMOOTH",
"583 268 LINE SMOOTH",
"583 291 OFFCURVE",
"580 314 OFFCURVE",
"579 332 CURVE",
"547 314 LINE",
"608 320 OFFCURVE",
"646 265 OFFCURVE",
"646 212 CURVE SMOOTH",
"646 -20 OFFCURVE",
"102 -13 OFFCURVE",
"102 156 CURVE SMOOTH",
"102 205 OFFCURVE",
"144 230 OFFCURVE",
"175 230 CURVE SMOOTH",
"194 230 OFFCURVE",
"209 221 OFFCURVE",
"209 203 CURVE SMOOTH",
"209 188 OFFCURVE",
"200 180 OFFCURVE",
"184 171 CURVE",
"180 169 OFFCURVE",
"176 162 OFFCURVE",
"176 148 CURVE SMOOTH",
"176 126 OFFCURVE",
"187 96 OFFCURVE",
"214 96 CURVE SMOOTH",
"241 96 OFFCURVE",
"304 124 OFFCURVE",
"304 198 CURVE SMOOTH",
"304 261 OFFCURVE",
"258 289 OFFCURVE",
"203 289 CURVE SMOOTH",
"120 289 OFFCURVE",
"15 222 OFFCURVE",
"15 118 CURVE SMOOTH",
"15 19 OFFCURVE",
"121 -49 OFFCURVE",
"287 -49 CURVE SMOOTH"
);
},
{
closed = 1;
nodes = (
"443 181 OFFCURVE",
"413 202 OFFCURVE",
"413 251 CURVE SMOOTH",
"413 297 OFFCURVE",
"440 324 OFFCURVE",
"468 324 CURVE SMOOTH",
"496 324 OFFCURVE",
"524 297 OFFCURVE",
"524 247 CURVE SMOOTH",
"524 198 OFFCURVE",
"498 181 OFFCURVE",
"472 181 CURVE SMOOTH"
);
}
);
width = 754;
}
);
leftKerningGroup = tlTA;
rightKerningGroup = tlTA;
unicode = 0C24;
},
{
color = 6;
glyphname = tlPA;
lastChange = "2015-12-19 06:57:04 +0000";
layers = (
{
anchors = (
{
name = bottom;
position = "{341, 0}";
}
);
background = {
paths = (
{
closed = 1;
nodes = (
"657 351 OFFCURVE",
"560 456 OFFCURVE",
"454 462 CURVE SMOOTH",
"417 464 OFFCURVE",
"377 414 OFFCURVE",
"377 384 CURVE SMOOTH",
"377 374 OFFCURVE",
"381 367 OFFCURVE",
"390 364 CURVE SMOOTH",
"488 334 OFFCURVE",
"578 292 OFFCURVE",
"578 184 CURVE SMOOTH",
"578 124 OFFCURVE",
"523 83 OFFCURVE",
"452 83 CURVE SMOOTH",
"392 83 OFFCURVE",
"335 114 OFFCURVE",
"320 172 CURVE",
"250 93 LINE",
"254 48 OFFCURVE",
"296 -14 OFFCURVE",
"392 -14 CURVE SMOOTH",
"538 -14 OFFCURVE",
"657 99 OFFCURVE",
"657 240 CURVE SMOOTH"
);
}
);
};
components = (
{
name = "CC-pa-telugu";
transform = "{1, 0, 0, 1, 11, 0}";
},
{
name = tlTick;
transform = "{1, 0, 0, 1, 141, 0}";
}
);
layerId = "59118767-2CA9-48AA-9373-694D24C960D8";
name = Regular;
paths = (
{
closed = 1;
nodes = (
"657 351 OFFCURVE",
"560 456 OFFCURVE",
"454 462 CURVE SMOOTH",
"417 464 OFFCURVE",
"377 414 OFFCURVE",
"377 384 CURVE SMOOTH",
"377 374 OFFCURVE",
"381 367 OFFCURVE",
"390 364 CURVE SMOOTH",
"441 349 OFFCURVE",
"489 330 OFFCURVE",
"524 301 CURVE SMOOTH",
"558 273 OFFCURVE",
"579 232 OFFCURVE",
"579 192 CURVE SMOOTH",
"579 124 OFFCURVE",
"523 83 OFFCURVE",
"452 83 CURVE SMOOTH",
"392 83 OFFCURVE",
"335 114 OFFCURVE",
"320 172 CURVE",
"250 93 LINE",
"254 48 OFFCURVE",
"296 -14 OFFCURVE",
"392 -14 CURVE SMOOTH",
"538 -14 OFFCURVE",
"657 99 OFFCURVE",
"657 240 CURVE SMOOTH"
);
}
);
width = 682;
}
);
leftKerningGroup = tlPA;
rightKerningGroup = tlJHA;
unicode = 0C2A;
},
{
color = 6;
glyphname = tlBA;
lastChange = "2015-12-19 06:35:19 +0000";
layers = (
{
anchors = (
{
name = bottom;
position = "{356, 0}";
}
);
components = (
{
name = "CC_Ofirsthalf-kannada";
transform = "{1, 0, 0, 1, 40, 0}";
}
);
layerId = "59118767-2CA9-48AA-9373-694D24C960D8";
name = Regular;
paths = (
{
closed = 1;
nodes = (
"583 -12 OFFCURVE",
"687 115 OFFCURVE",
"687 287 CURVE SMOOTH",
"687 397 OFFCURVE",
"639 523 OFFCURVE",
"582 523 CURVE SMOOTH",
"546 523 OFFCURVE",
"507 471 OFFCURVE",
"507 438 CURVE SMOOTH",
"507 424 OFFCURVE",
"514 420 OFFCURVE",
"520 414 CURVE SMOOTH",
"583 348 OFFCURVE",
"614 279 OFFCURVE",
"614 226 CURVE SMOOTH",
"614 139 OFFCURVE",
"554 90 OFFCURVE",
"489 90 CURVE SMOOTH",
"446 90 OFFCURVE",
"406 113 OFFCURVE",
"383 157 CURVE SMOOTH",
"374 174 OFFCURVE",
"365 173 OFFCURVE",
"362 173 CURVE",
"305 78 LINE",
"332 6 OFFCURVE",
"400 -12 OFFCURVE",
"451 -12 CURVE SMOOTH"
);
}
);
width = 712;
}
);
leftKerningGroup = tlO;
leftMetricsKey = tlO;
rightKerningGroup = tlDA;
rightMetricsKey = tlDA;
unicode = 0C2C;
},
{
color = 6;
glyphname = tlBHA;
lastChange = "2015-12-19 07:41:01 +0000";
layers = (
{
anchors = (
{
name = bottom;
position = "{361, -190}";
}
);
components = (
{
name = "CC_Ofirsthalf-kannada";
transform = "{1, 0, 0, 1, 40, 0}";
},
{
name = tlTeardrop;
transform = "{1, 0, 0, 1, 243, 0}";
}
);
layerId = "59118767-2CA9-48AA-9373-694D24C960D8";
name = Regular;
paths = (
{
closed = 1;
nodes = (
"565 -13 OFFCURVE",
"698 152 OFFCURVE",
"698 302 CURVE SMOOTH",
"698 399 OFFCURVE",
"642 462 OFFCURVE",
"541 462 CURVE SMOOTH",
"495 462 OFFCURVE",
"438 449 OFFCURVE",
"382 424 CURVE",
"373 411 OFFCURVE",
"366 390 OFFCURVE",
"366 374 CURVE SMOOTH",
"366 359 OFFCURVE",
"372 348 OFFCURVE",
"384 348 CURVE SMOOTH",
"395 348 OFFCURVE",
"441 358 OFFCURVE",
"475 358 CURVE SMOOTH",
"550 358 OFFCURVE",
"601 308 OFFCURVE",
"601 236 CURVE SMOOTH",
"601 163 OFFCURVE",
"555 83 OFFCURVE",
"477 83 CURVE SMOOTH",
"439 83 OFFCURVE",
"391 107 OFFCURVE",
"380 157 CURVE",
"306 73 LINE",
"323 13 OFFCURVE",
"372 -13 OFFCURVE",
"426 -13 CURVE SMOOTH"
);
},
{
closed = 1;
nodes = (
"445 439 OFFCURVE",
"472 483 OFFCURVE",
"512 517 CURVE SMOOTH",
"584 579 OFFCURVE",
"637 558 OFFCURVE",
"653 574 CURVE SMOOTH",
"662 583 OFFCURVE",
"692 636 OFFCURVE",
"692 666 CURVE SMOOTH",
"692 680 OFFCURVE",
"686 690 OFFCURVE",
"667 690 CURVE SMOOTH",
"634 690 OFFCURVE",
"584 661 OFFCURVE",
"535 618 CURVE SMOOTH",
"460 553 OFFCURVE",
"406 472 OFFCURVE",
"377 415 CURVE",
"426 403 LINE"
);
}
);
width = 723;
}
);
leftKerningGroup = tlO;
leftMetricsKey = tlO;
rightKerningGroup = tlBHA;
unicode = 0C2D;
},
{
color = 6;
glyphname = tlYA;
lastChange = "2015-12-19 07:15:14 +0000";
layers = (
{
anchors = (
{
name = bottom;
position = "{535, 0}";
}
);
components = (
{
name = "CC-YA";
transform = "{1, 0, 0, 1, 36, 0}";
},
{
disableAlignment = 1;
name = "CC-knmU";
transform = "{1, 0, 0, 1, 890, 0}";
}
);
guideLines = (
{
position = "{43, 49}";
}
);
layerId = "59118767-2CA9-48AA-9373-694D24C960D8";
name = Regular;
paths = (
{
closed = 1;
nodes = (
"601 439 OFFCURVE",
"628 483 OFFCURVE",
"668 517 CURVE SMOOTH",
"740 579 OFFCURVE",
"793 558 OFFCURVE",
"809 574 CURVE SMOOTH",
"818 583 OFFCURVE",
"848 636 OFFCURVE",
"848 666 CURVE SMOOTH",
"848 680 OFFCURVE",
"842 690 OFFCURVE",
"823 690 CURVE SMOOTH",
"790 690 OFFCURVE",
"740 661 OFFCURVE",
"691 618 CURVE SMOOTH",
"616 553 OFFCURVE",
"562 472 OFFCURVE",
"533 415 CURVE",
"582 403 LINE"
);
}
);
width = 1071;
}
);
leftKerningGroup = tlYA;
rightKerningGroup = tlJHA;
rightMetricsKey = tlJHA;
unicode = 0C2F;
},
{
color = 6;
glyphname = tlLA;
lastChange = "2015-12-19 07:04:24 +0000";
layers = (
{
anchors = (
{
name = bottom;
position = "{330, 0}";
}
);
layerId = "59118767-2CA9-48AA-9373-694D24C960D8";
name = Regular;
paths = (
{
closed = 1;
nodes = (
"438 -15 OFFCURVE",
"636 93 OFFCURVE",
"636 318 CURVE SMOOTH",
"636 467 OFFCURVE",
"554 605 OFFCURVE",
"469 499 CURVE SMOOTH",
"436 457 OFFCURVE",
"451 444 OFFCURVE",
"478 420 CURVE SMOOTH",
"535 366 OFFCURVE",
"554 304 OFFCURVE",
"554 267 CURVE SMOOTH",
"554 143 OFFCURVE",
"436 81 OFFCURVE",
"324 81 CURVE SMOOTH",
"222 81 OFFCURVE",
"126 134 OFFCURVE",
"138 239 CURVE",
"144 279 OFFCURVE",
"163 319 OFFCURVE",
"191 346 CURVE SMOOTH",
"211 366 OFFCURVE",
"236 381 OFFCURVE",
"264 381 CURVE SMOOTH",
"299 381 OFFCURVE",
"318 356 OFFCURVE",
"318 331 CURVE SMOOTH",
"318 303 OFFCURVE",
"294 268 OFFCURVE",
"244 251 CURVE SMOOTH",
"224 244 OFFCURVE",
"206 226 OFFCURVE",
"223 204 CURVE SMOOTH",
"260 156 OFFCURVE",
"425 241 OFFCURVE",
"425 354 CURVE SMOOTH",
"425 416 OFFCURVE",
"381 460 OFFCURVE",
"310 460 CURVE SMOOTH",
"170 460 OFFCURVE",
"40 312 OFFCURVE",
"40 173 CURVE SMOOTH",
"40 54 OFFCURVE",
"142 -15 OFFCURVE",
"272 -15 CURVE SMOOTH"
);
}
);
width = 661;
}
);
leftKerningGroup = tlLA;
rightKerningGroup = tlLA;
unicode = 0C32;
},
{
color = 6;
glyphname = tlVA;
lastChange = "2015-12-19 06:59:44 +0000";
layers = (
{
anchors = (
{
name = bottom;
position = "{314, 0}";
}
);
components = (
{
name = "CC-pa-telugu";
transform = "{1, 0, 0, 1, 11, 0}";
},
{
name = tlTick;
transform = "{1, 0, 0, 1, 73, 0}";
}
);
layerId = "59118767-2CA9-48AA-9373-694D24C960D8";
name = Regular;
paths = (
{
closed = 1;
nodes = (
"509 -13 OFFCURVE",
"603 117 OFFCURVE",
"603 227 CURVE SMOOTH",
"603 347 OFFCURVE",
"546 461 OFFCURVE",
"375 461 CURVE SMOOTH",
"296 461 OFFCURVE",
"183 436 OFFCURVE",
"78 378 CURVE",
"76 370 OFFCURVE",
"75 360 OFFCURVE",
"75 351 CURVE SMOOTH",
"75 328 OFFCURVE",
"91 306 OFFCURVE",
"112 306 CURVE SMOOTH",
"133 306 OFFCURVE",
"219 358 OFFCURVE",
"328 358 CURVE SMOOTH",
"446 358 OFFCURVE",
"528 267 OFFCURVE",
"528 180 CURVE SMOOTH",
"528 134 OFFCURVE",
"488 83 OFFCURVE",
"436 83 CURVE SMOOTH",
"398 83 OFFCURVE",
"338 105 OFFCURVE",
"321 157 CURVE",
"251 73 LINE",
"266 15 OFFCURVE",
"321 -13 OFFCURVE",
"374 -13 CURVE SMOOTH"
);
}
);
width = 628;
}
);
leftKerningGroup = tlVA;
rightKerningGroup = tlDA;
rightMetricsKey = tlDA;
unicode = 0C35;
},
{
color = 6;
glyphname = tlSHA;
lastChange = "2015-12-19 07:24:31 +0000";
layers = (
{
anchors = (
{
name = bottom;
position = "{304, -28}";
}
);
background = {
paths = (
{
closed = 1;
nodes = (
"395 328 OFFCURVE",
"398 349 OFFCURVE",
"398 367 CURVE SMOOTH",
"398 422 OFFCURVE",
"365 442 OFFCURVE",
"318 442 CURVE SMOOTH",
"308 442 OFFCURVE",
"299 441 OFFCURVE",
"289 439 CURVE",
"306 466 OFFCURVE",
"327 494 OFFCURVE",
"354 517 CURVE SMOOTH",
"426 579 OFFCURVE",
"479 558 OFFCURVE",
"495 574 CURVE SMOOTH",
"504 583 OFFCURVE",
"534 636 OFFCURVE",
"534 666 CURVE SMOOTH",
"534 680 OFFCURVE",
"528 690 OFFCURVE",
"508 690 CURVE SMOOTH",
"476 690 OFFCURVE",
"412 665 OFFCURVE",
"355 618 CURVE SMOOTH",
"278 554 OFFCURVE",
"237 474 OFFCURVE",
"216 423 CURVE SMOOTH",
"208 402 OFFCURVE",
"200 386 OFFCURVE",
"200 370 CURVE SMOOTH",
"200 355 OFFCURVE",
"205 344 OFFCURVE",
"219 344 CURVE SMOOTH",
"230 344 OFFCURVE",
"245 349 OFFCURVE",
"268 349 CURVE SMOOTH",
"300 349 OFFCURVE",
"336 339 OFFCURVE",
"336 304 CURVE",
"240 299 OFFCURVE",
"145 270 OFFCURVE",
"84 215 CURVE SMOOTH",
"43 178 OFFCURVE",
"15 129 OFFCURVE",
"15 67 CURVE SMOOTH",
"15 6 OFFCURVE",
"55 -49 OFFCURVE",
"110 -49 CURVE SMOOTH",
"152 -49 OFFCURVE",
"181 -2 OFFCURVE",
"181 27 CURVE SMOOTH",
"181 38 OFFCURVE",
"177 47 OFFCURVE",
"167 48 CURVE",
"132 53 OFFCURVE",
"92 61 OFFCURVE",
"92 101 CURVE SMOOTH",
"92 130 OFFCURVE",
"110 153 OFFCURVE",
"134 170 CURVE SMOOTH",
"176 200 OFFCURVE",
"243 213 OFFCURVE",
"303 213 CURVE",
"278 163 OFFCURVE",
"247 104 OFFCURVE",
"247 53 CURVE SMOOTH",
"247 -7 OFFCURVE",
"289 -50 OFFCURVE",
"364 -50 CURVE SMOOTH",
"488 -50 OFFCURVE",
"588 57 OFFCURVE",
"588 157 CURVE SMOOTH",
"588 257 OFFCURVE",
"500 300 OFFCURVE",
"391 305 CURVE"
);
},
{
closed = 1;
nodes = (
"386 38 OFFCURVE",
"349 57 OFFCURVE",
"349 98 CURVE SMOOTH",
"349 123 OFFCURVE",
"358 163 OFFCURVE",
"369 207 CURVE",
"438 193 OFFCURVE",
"500 159 OFFCURVE",
"500 105 CURVE SMOOTH",
"500 67 OFFCURVE",
"461 38 OFFCURVE",
"420 38 CURVE SMOOTH"
);
}
);
};
layerId = "59118767-2CA9-48AA-9373-694D24C960D8";
name = Regular;
paths = (
{
closed = 1;
nodes = (
"488 -30 OFFCURVE",
"588 77 OFFCURVE",
"588 177 CURVE SMOOTH",
"588 277 OFFCURVE",
"500 320 OFFCURVE",
"391 325 CURVE",
"395 348 OFFCURVE",
"398 369 OFFCURVE",
"398 387 CURVE SMOOTH",
"398 442 OFFCURVE",
"365 462 OFFCURVE",
"318 462 CURVE SMOOTH",
"308 462 OFFCURVE",
"299 461 OFFCURVE",
"289 459 CURVE",
"306 486 OFFCURVE",
"327 514 OFFCURVE",
"354 537 CURVE SMOOTH",
"426 599 OFFCURVE",
"479 578 OFFCURVE",
"495 594 CURVE SMOOTH",
"504 603 OFFCURVE",
"534 656 OFFCURVE",
"534 686 CURVE SMOOTH",
"534 700 OFFCURVE",
"528 710 OFFCURVE",
"508 710 CURVE SMOOTH",
"476 710 OFFCURVE",
"412 685 OFFCURVE",
"355 638 CURVE SMOOTH",
"269 567 OFFCURVE",
"200 434 OFFCURVE",
"200 390 CURVE SMOOTH",
"200 375 OFFCURVE",
"205 364 OFFCURVE",
"219 364 CURVE SMOOTH",
"230 364 OFFCURVE",
"245 369 OFFCURVE",
"268 369 CURVE SMOOTH",
"300 369 OFFCURVE",
"336 359 OFFCURVE",
"336 324 CURVE",
"240 319 OFFCURVE",
"145 290 OFFCURVE",
"84 235 CURVE SMOOTH",
"43 198 OFFCURVE",
"15 149 OFFCURVE",
"15 87 CURVE SMOOTH",
"15 26 OFFCURVE",
"55 -29 OFFCURVE",
"110 -29 CURVE SMOOTH",
"152 -29 OFFCURVE",
"181 18 OFFCURVE",
"181 47 CURVE SMOOTH",
"181 58 OFFCURVE",
"177 67 OFFCURVE",
"167 68 CURVE",
"132 73 OFFCURVE",
"92 81 OFFCURVE",
"92 121 CURVE SMOOTH",
"92 150 OFFCURVE",
"110 173 OFFCURVE",
"134 190 CURVE SMOOTH",
"176 220 OFFCURVE",
"243 233 OFFCURVE",
"303 233 CURVE",
"278 183 OFFCURVE",
"247 124 OFFCURVE",
"247 73 CURVE SMOOTH",
"247 13 OFFCURVE",
"289 -30 OFFCURVE",
"364 -30 CURVE SMOOTH"
);
},
{
closed = 1;
nodes = (
"386 58 OFFCURVE",
"349 77 OFFCURVE",
"349 118 CURVE SMOOTH",
"349 143 OFFCURVE",
"358 183 OFFCURVE",
"369 227 CURVE",
"438 213 OFFCURVE",
"500 179 OFFCURVE",
"500 125 CURVE SMOOTH",
"500 87 OFFCURVE",
"461 58 OFFCURVE",
"420 58 CURVE SMOOTH"
);
}
);
width = 608;
}
);
leftKerningGroup = tlSHA;
leftMetricsKey = tlPA;
rightKerningGroup = tlLLA;
unicode = 0C36;
},
{
color = 6;
glyphname = tlSSA;
lastChange = "2015-12-19 07:49:54 +0000";
layers = (
{
anchors = (
{
name = bottom;
position = "{351, -130}";
}
);
components = (
{
disableAlignment = 1;
name = "CC-pa-telugu";
transform = "{1, 0, 0, 1, 11, 0}";
},
{
disableAlignment = 1;
name = tlTick;
transform = "{1, 0, 0, 1, 141, 0}";
}
);
layerId = "59118767-2CA9-48AA-9373-694D24C960D8";
name = Regular;
paths = (
{
closed = 1;
nodes = (
"468 -14 OFFCURVE",
"551 32 OFFCURVE",
"585 73 CURVE",
"629 121 OFFCURVE",
"657 182 OFFCURVE",
"657 240 CURVE SMOOTH",
"657 351 OFFCURVE",
"560 456 OFFCURVE",
"454 462 CURVE SMOOTH",
"406 465 OFFCURVE",
"351 377 OFFCURVE",
"390 364 CURVE SMOOTH",
"488 334 OFFCURVE",
"578 292 OFFCURVE",
"578 184 CURVE SMOOTH",
"578 124 OFFCURVE",
"523 83 OFFCURVE",
"452 83 CURVE SMOOTH",
"392 83 OFFCURVE",
"335 114 OFFCURVE",
"320 172 CURVE",
"250 93 LINE",
"254 48 OFFCURVE",
"296 -14 OFFCURVE",
"392 -14 CURVE SMOOTH"
);
},
{
closed = 1;
nodes = (
"632 -102 OFFCURVE",
"625 -82 OFFCURVE",
"630 18 CURVE SMOOTH",
"632 63 OFFCURVE",
"632 141 OFFCURVE",
"632 165 CURVE",
"542 83 OFFCURVE",
"528 73 OFFCURVE",
"525 0 CURVE SMOOTH",
"520 -124 OFFCURVE",
"528 -133 OFFCURVE",
"574 -119 CURVE SMOOTH"
);
}
);
width = 702;
}
);
leftKerningGroup = tlPA;
leftMetricsKey = tlPA;
rightKerningGroup = tlSSA;
unicode = 0C37;
},
{
color = 6;
glyphname = tlSA;
lastChange = "2015-12-19 07:52:26 +0000";
layers = (
{
anchors = (
{
name = bottom;
position = "{248, -191}";
}
);
background = {
paths = (
{
closed = 1;
nodes = (
"126 -191 OFFCURVE",
"158 -99 OFFCURVE",
"124 -94 CURVE SMOOTH",
"101 -91 OFFCURVE",
"52 -83 OFFCURVE",
"52 -39 CURVE SMOOTH",
"52 -5 OFFCURVE",
"80 5 OFFCURVE",
"105 5 CURVE SMOOTH",
"137 5 OFFCURVE",
"206 -12 OFFCURVE",
"250 -12 CURVE SMOOTH",
"402 -12 OFFCURVE",
"487 124 OFFCURVE",
"487 251 CURVE SMOOTH",
"487 343 OFFCURVE",
"438 419 OFFCURVE",
"366 424 CURVE SMOOTH",
"317 427 OFFCURVE",
"262 339 OFFCURVE",
"302 326 CURVE SMOOTH",
"383 301 OFFCURVE",
"410 243 OFFCURVE",
"410 191 CURVE SMOOTH",
"410 140 OFFCURVE",
"382 98 OFFCURVE",
"321 98 CURVE SMOOTH",
"287 98 OFFCURVE",
"188 109 OFFCURVE",
"153 109 CURVE SMOOTH",
"47 109 OFFCURVE",
"-25 5 OFFCURVE",
"-25 -77 CURVE SMOOTH",
"-25 -146 OFFCURVE",
"26 -191 OFFCURVE",
"67 -191 CURVE SMOOTH"
);
}
);
};
components = (
{
name = tlTick;
transform = "{1, 0, 0, 1, 66, 0}";
}
);
guideLines = (
{
position = "{626, 664}";
}
);
layerId = "59118767-2CA9-48AA-9373-694D24C960D8";
name = Regular;
paths = (
{
closed = 1;
nodes = (
"126 -191 OFFCURVE",
"158 -99 OFFCURVE",
"124 -94 CURVE SMOOTH",
"101 -91 OFFCURVE",
"52 -83 OFFCURVE",
"52 -39 CURVE SMOOTH",
"52 -5 OFFCURVE",
"80 5 OFFCURVE",
"105 5 CURVE SMOOTH",
"137 5 OFFCURVE",
"206 -12 OFFCURVE",
"250 -12 CURVE SMOOTH",
"402 -12 OFFCURVE",
"487 124 OFFCURVE",
"487 251 CURVE SMOOTH",
"487 343 OFFCURVE",
"438 419 OFFCURVE",
"366 424 CURVE SMOOTH",
"317 427 OFFCURVE",
"262 339 OFFCURVE",
"302 326 CURVE SMOOTH",
"383 301 OFFCURVE",
"410 243 OFFCURVE",
"410 191 CURVE SMOOTH",
"410 140 OFFCURVE",
"382 98 OFFCURVE",
"321 98 CURVE SMOOTH",
"287 98 OFFCURVE",
"188 109 OFFCURVE",
"153 109 CURVE SMOOTH",
"47 109 OFFCURVE",
"-25 5 OFFCURVE",
"-25 -77 CURVE SMOOTH",
"-25 -146 OFFCURVE",
"26 -191 OFFCURVE",
"67 -191 CURVE SMOOTH"
);
}
);
width = 517;
},
{
associatedMasterId = "59118767-2CA9-48AA-9373-694D24C960D8";
background = {
paths = (
{
closed = 1;
nodes = (
"126 -191 OFFCURVE",
"158 -99 OFFCURVE",
"124 -94 CURVE SMOOTH",
"101 -91 OFFCURVE",
"52 -83 OFFCURVE",
"52 -39 CURVE SMOOTH",
"52 -5 OFFCURVE",
"80 5 OFFCURVE",
"105 5 CURVE SMOOTH",
"137 5 OFFCURVE",
"206 -12 OFFCURVE",
"250 -12 CURVE SMOOTH",
"402 -12 OFFCURVE",
"487 124 OFFCURVE",
"487 251 CURVE SMOOTH",
"487 343 OFFCURVE",
"438 419 OFFCURVE",
"366 424 CURVE SMOOTH",
"317 427 OFFCURVE",
"262 339 OFFCURVE",
"302 326 CURVE SMOOTH",
"383 301 OFFCURVE",
"410 243 OFFCURVE",
"410 191 CURVE SMOOTH",
"410 140 OFFCURVE",
"382 98 OFFCURVE",
"321 98 CURVE SMOOTH",
"287 98 OFFCURVE",
"188 109 OFFCURVE",
"153 109 CURVE SMOOTH",
"47 109 OFFCURVE",
"-25 5 OFFCURVE",
"-25 -77 CURVE SMOOTH",
"-25 -146 OFFCURVE",
"26 -191 OFFCURVE",
"67 -191 CURVE SMOOTH"
);
}
);
};
components = (
{
name = "CC-rightarm";
transform = "{1, 0, 0, 1, 178, 0}";
},
{
name = tlTick;
transform = "{1, 0, 0, 1, 26, 0}";
}
);
guideLines = (
{
position = "{626, 664}";
}
);
layerId = "291A8ED2-132C-4CF3-963C-26BD20B5DC43";
name = "Regular Nov 22 15, 19:32";
paths = (
{
closed = 1;
nodes = (
"126 -191 OFFCURVE",
"158 -99 OFFCURVE",
"124 -94 CURVE SMOOTH",
"101 -91 OFFCURVE",
"52 -83 OFFCURVE",
"52 -39 CURVE SMOOTH",
"52 -5 OFFCURVE",
"80 5 OFFCURVE",
"105 5 CURVE SMOOTH",
"137 5 OFFCURVE",
"176 -12 OFFCURVE",
"220 -12 CURVE SMOOTH",
"282 -12 OFFCURVE",
"348 22 OFFCURVE",
"390 71 CURVE",
"375 154 LINE",
"353 109 OFFCURVE",
"324 98 OFFCURVE",
"291 98 CURVE SMOOTH",
"257 98 OFFCURVE",
"188 109 OFFCURVE",
"153 109 CURVE SMOOTH",
"47 109 OFFCURVE",
"-25 5 OFFCURVE",
"-25 -77 CURVE SMOOTH",
"-25 -146 OFFCURVE",
"26 -191 OFFCURVE",
"67 -191 CURVE SMOOTH"
);
}
);
width = 488;
}
);
leftKerningGroup = tlSA;
leftMetricsKey = tlSA;
rightKerningGroup = tlJHA;
unicode = 0C38;
},
{
color = 6;
glyphname = tlHA;
lastChange = "2015-12-19 06:57:23 +0000";
layers = (
{
anchors = (
{
name = bottom;
position = "{341, 0}";
}
);
components = (
{
disableAlignment = 1;
name = "CC-pa-telugu";
transform = "{1, 0, 0, 1, 11, 0}";
},
{
name = "CC-lenghtmark_Telugu";
transform = "{1, 0, 0, 1, 389, 0}";
},
{
name = tlTick;
transform = "{1, 0, 0, 1, 141, 0}";
}
);
layerId = "59118767-2CA9-48AA-9373-694D24C960D8";
name = Regular;
paths = (
{
closed = 1;
nodes = (
"620 93 OFFCURVE",
"657 163 OFFCURVE",
"657 240 CURVE SMOOTH",
"657 314 OFFCURVE",
"597 409 OFFCURVE",
"482 388 CURVE",
"502 445 OFFCURVE",
"489 460 OFFCURVE",
"454 462 CURVE SMOOTH",
"406 465 OFFCURVE",
"351 377 OFFCURVE",
"390 364 CURVE SMOOTH",
"488 334 OFFCURVE",
"578 292 OFFCURVE",
"578 184 CURVE SMOOTH",
"578 143 OFFCURVE",
"553 113 OFFCURVE",
"518 96 CURVE",
"564 46 LINE"
);
},
{
closed = 1;
nodes = (
"457 -14 OFFCURVE",
"542 14 OFFCURVE",
"592 73 CURVE",
"553 117 LINE",
"524 94 OFFCURVE",
"487 83 OFFCURVE",
"452 83 CURVE SMOOTH",
"392 83 OFFCURVE",
"335 114 OFFCURVE",
"320 172 CURVE",
"250 93 LINE",
"254 48 OFFCURVE",
"296 -14 OFFCURVE",
"392 -14 CURVE SMOOTH"
);
}
);
width = 1012;
}
);
leftKerningGroup = tlPA;
leftMetricsKey = tlPA;
rightKerningGroup = y145tlUU;
rightMetricsKey = tlUU;
unicode = 0C39;
},
{
color = 6;
glyphname = tlRRA;
lastChange = "2015-12-19 07:14:00 +0000";
layers = (
{
anchors = (
{
name = bottom;
position = "{422, 0}";
}
);
layerId = "59118767-2CA9-48AA-9373-694D24C960D8";
name = Regular;
paths = (
{
closed = 1;
nodes = (
"282 -16 OFFCURVE",
"336 9 OFFCURVE",
"383 47 CURVE",
"425 5 OFFCURVE",
"473 -12 OFFCURVE",
"524 -12 CURVE SMOOTH",
"673 -12 OFFCURVE",
"830 132 OFFCURVE",
"830 314 CURVE SMOOTH",
"830 438 OFFCURVE",
"758 489 OFFCURVE",
"683 489 CURVE SMOOTH",
"603 489 OFFCURVE",
"505 430 OFFCURVE",
"505 326 CURVE SMOOTH",
"505 315 OFFCURVE",
"506 308 OFFCURVE",
"508 301 CURVE",
"483 302 OFFCURVE",
"459 302 OFFCURVE",
"441 302 CURVE SMOOTH",
"407 302 OFFCURVE",
"368 302 OFFCURVE",
"331 299 CURVE",
"339 278 LINE",
"380 309 OFFCURVE",
"402 355 OFFCURVE",
"402 396 CURVE SMOOTH",
"402 444 OFFCURVE",
"372 484 OFFCURVE",
"306 484 CURVE SMOOTH",
"163 484 OFFCURVE",
"40 295 OFFCURVE",
"40 156 CURVE SMOOTH",
"40 52 OFFCURVE",
"109 -16 OFFCURVE",
"217 -16 CURVE SMOOTH"
);
},
{
closed = 1;
nodes = (
"186 80 OFFCURVE",
"131 124 OFFCURVE",
"131 207 CURVE SMOOTH",
"131 307 OFFCURVE",
"209 403 OFFCURVE",
"271 403 CURVE SMOOTH",
"296 403 OFFCURVE",
"308 387 OFFCURVE",
"308 361 CURVE SMOOTH",
"308 319 OFFCURVE",
"276 308 OFFCURVE",
"233 295 CURVE SMOOTH",
"192 282 OFFCURVE",
"173 228 OFFCURVE",
"173 217 CURVE SMOOTH",
"173 215 OFFCURVE",
"174 208 OFFCURVE",
"185 208 CURVE SMOOTH",
"198 208 OFFCURVE",
"272 217 OFFCURVE",
"404 217 CURVE SMOOTH",
"536 217 OFFCURVE",
"610 208 OFFCURVE",
"625 208 CURVE SMOOTH",
"661 208 OFFCURVE",
"700 262 OFFCURVE",
"700 278 CURVE SMOOTH",
"700 285 OFFCURVE",
"693 289 OFFCURVE",
"688 289 CURVE SMOOTH",
"636 289 OFFCURVE",
"581 292 OFFCURVE",
"581 343 CURVE SMOOTH",
"581 376 OFFCURVE",
"604 392 OFFCURVE",
"634 392 CURVE SMOOTH",
"679 392 OFFCURVE",
"741 354 OFFCURVE",
"741 262 CURVE SMOOTH",
"741 146 OFFCURVE",
"663 85 OFFCURVE",
"564 85 CURVE SMOOTH",
"515 85 OFFCURVE",
"470 108 OFFCURVE",
"441 163 CURVE",
"438 171 OFFCURVE",
"432 173 OFFCURVE",
"426 173 CURVE SMOOTH",
"414 173 OFFCURVE",
"406 166 OFFCURVE",
"395 152 CURVE",
"355 106 OFFCURVE",
"312 80 OFFCURVE",
"257 80 CURVE SMOOTH"
);
}
);
width = 845;
}
);
leftKerningGroup = tlLA;
leftMetricsKey = tlLA;
rightKerningGroup = tlA;
rightMetricsKey = tlA;
unicode = 0C31;
},
{
color = 6;
glyphname = tlLLA;
lastChange = "2015-12-19 07:25:13 +0000";
layers = (
{
anchors = (
{
name = bottom;
position = "{371, -28}";
}
);
components = (
{
name = "CC-LLA";
transform = "{1, 0, 0, 1, 20, 21}";
}
);
layerId = "59118767-2CA9-48AA-9373-694D24C960D8";
name = Regular;
paths = (
{
closed = 1;
nodes = (
"475 460 OFFCURVE",
"502 504 OFFCURVE",
"542 538 CURVE SMOOTH",
"614 600 OFFCURVE",
"667 579 OFFCURVE",
"683 595 CURVE SMOOTH",
"692 604 OFFCURVE",
"722 657 OFFCURVE",
"722 687 CURVE SMOOTH",
"722 701 OFFCURVE",
"716 711 OFFCURVE",
"697 711 CURVE SMOOTH",
"664 711 OFFCURVE",
"614 682 OFFCURVE",
"565 639 CURVE SMOOTH",
"490 574 OFFCURVE",
"433 493 OFFCURVE",
"407 436 CURVE",
"456 424 LINE"
);
}
);
width = 742;
}
);
leftKerningGroup = tlLLA;
rightKerningGroup = tlLLA;
unicode = 0C33;
},
{
color = 6;
glyphname = tlLLLA;
lastChange = "2015-12-19 07:13:52 +0000";
layers = (
{
anchors = (
{
name = bottom;
position = "{426, 0}";
}
);
layerId = "59118767-2CA9-48AA-9373-694D24C960D8";
name = Regular;
paths = (
{
closed = 1;
nodes = (
"678 -12 OFFCURVE",
"838 130 OFFCURVE",
"838 314 CURVE SMOOTH",
"838 438 OFFCURVE",
"765 489 OFFCURVE",
"694 489 CURVE SMOOTH",
"604 489 OFFCURVE",
"503 408 OFFCURVE",
"503 294 CURVE SMOOTH",
"503 211 OFFCURVE",
"556 172 OFFCURVE",
"595 172 CURVE SMOOTH",
"637 172 OFFCURVE",
"666 219 OFFCURVE",
"666 248 CURVE SMOOTH",
"666 259 OFFCURVE",
"662 268 OFFCURVE",
"652 269 CURVE SMOOTH",
"619 274 OFFCURVE",
"580 281 OFFCURVE",
"580 329 CURVE SMOOTH",
"580 368 OFFCURVE",
"606 392 OFFCURVE",
"642 392 CURVE SMOOTH",
"687 392 OFFCURVE",
"749 354 OFFCURVE",
"749 262 CURVE SMOOTH",
"749 146 OFFCURVE",
"671 85 OFFCURVE",
"572 85 CURVE SMOOTH",
"522 85 OFFCURVE",
"477 109 OFFCURVE",
"447 166 CURVE",
"378 61 LINE",
"423 9 OFFCURVE",
"476 -12 OFFCURVE",
"532 -12 CURVE SMOOTH"
);
},
{
closed = 1;
nodes = (
"277 -14 OFFCURVE",
"347 10 OFFCURVE",
"405 58 CURVE",
"449 129 LINE",
"456 166 OFFCURVE",
"445 173 OFFCURVE",
"434 173 CURVE SMOOTH",
"422 173 OFFCURVE",
"414 166 OFFCURVE",
"403 152 CURVE",
"363 106 OFFCURVE",
"320 80 OFFCURVE",
"265 80 CURVE SMOOTH",
"194 80 OFFCURVE",
"137 128 OFFCURVE",
"137 207 CURVE SMOOTH",
"137 257 OFFCURVE",
"158 312 OFFCURVE",
"193 346 CURVE SMOOTH",
"213 366 OFFCURVE",
"238 381 OFFCURVE",
"266 381 CURVE SMOOTH",
"301 381 OFFCURVE",
"320 356 OFFCURVE",
"320 331 CURVE SMOOTH",
"320 303 OFFCURVE",
"296 268 OFFCURVE",
"246 251 CURVE SMOOTH",
"226 244 OFFCURVE",
"208 226 OFFCURVE",
"225 204 CURVE SMOOTH",
"262 156 OFFCURVE",
"427 241 OFFCURVE",
"427 354 CURVE SMOOTH",
"427 416 OFFCURVE",
"383 460 OFFCURVE",
"312 460 CURVE SMOOTH",
"162 460 OFFCURVE",
"40 304 OFFCURVE",
"40 154 CURVE SMOOTH",
"40 41 OFFCURVE",
"119 -14 OFFCURVE",
"214 -14 CURVE SMOOTH"
);
}
);
width = 853;
}
);
leftKerningGroup = tlLA;
leftMetricsKey = tlLA;
rightKerningGroup = tlA;
rightMetricsKey = tlA;
unicode = 0C34;
},
{
color = 6;
glyphname = tlAnusvara;
lastChange = "2015-11-22 14:28:22 +0000";
layers = (
{
layerId = "59118767-2CA9-48AA-9373-694D24C960D8";
name = Regular;
paths = (
{
closed = 1;
nodes = (
"279 59 OFFCURVE",
"378 177 OFFCURVE",
"378 294 CURVE SMOOTH",
"378 353 OFFCURVE",
"352 420 OFFCURVE",
"248 420 CURVE SMOOTH",
"88 420 OFFCURVE",
"15 260 OFFCURVE",
"15 175 CURVE SMOOTH",
"15 161 OFFCURVE",
"17 146 OFFCURVE",
"33 146 CURVE SMOOTH",
"52 146 OFFCURVE",
"57 164 OFFCURVE",
"75 205 CURVE SMOOTH",
"96 256 OFFCURVE",
"136 318 OFFCURVE",
"226 318 CURVE SMOOTH",
"293 318 OFFCURVE",
"309 284 OFFCURVE",
"309 255 CURVE SMOOTH",
"309 192 OFFCURVE",
"232 164 OFFCURVE",
"188 164 CURVE SMOOTH",
"144 164 OFFCURVE",
"100 192 OFFCURVE",
"100 250 CURVE SMOOTH",
"100 258 OFFCURVE",
"100 265 OFFCURVE",
"101 273 CURVE",
"93 281 LINE",
"75 248 OFFCURVE",
"60 210 OFFCURVE",
"60 169 CURVE SMOOTH",
"60 112 OFFCURVE",
"89 59 OFFCURVE",
"165 59 CURVE SMOOTH"
);
}
);
width = 423;
}
);
leftKerningGroup = tlAnuswara;
rightKerningGroup = tlVisarga;
rightMetricsKey = tlVisarga;
unicode = 0C02;
},
{
color = 6;
glyphname = tlArasunna;
lastChange = "2015-11-22 14:08:39 +0000";
layers = (
{
layerId = "59118767-2CA9-48AA-9373-694D24C960D8";
name = Regular;
paths = (
{
closed = 1;
nodes = (
"278 -15 OFFCURVE",
"315 3 OFFCURVE",
"327 29 CURVE SMOOTH",
"344 66 OFFCURVE",
"332 79 OFFCURVE",
"288 79 CURVE SMOOTH",
"192 79 OFFCURVE",
"121 128 OFFCURVE",
"121 221 CURVE SMOOTH",
"121 316 OFFCURVE",
"212 380 OFFCURVE",
"279 403 CURVE SMOOTH",
"314 415 OFFCURVE",
"323 426 OFFCURVE",
"323 444 CURVE SMOOTH",
"323 455 OFFCURVE",
"316 464 OFFCURVE",
"294 464 CURVE SMOOTH",
"168 464 OFFCURVE",
"30 325 OFFCURVE",
"30 174 CURVE SMOOTH",
"30 46 OFFCURVE",
"124 -15 OFFCURVE",
"232 -15 CURVE SMOOTH"
);
}
);
width = 379;
}
);
leftKerningGroup = tlAnuswara;
rightKerningGroup = tlVisarga;
rightMetricsKey = tlVisarga;
unicode = 0C01;
},
{
color = 6;
glyphname = tlVisarga;
lastChange = "2015-11-22 15:53:28 +0000";
layers = (
{
layerId = "59118767-2CA9-48AA-9373-694D24C960D8";
name = Regular;
paths = (
{
closed = 1;
nodes = (
"202 20 OFFCURVE",
"272 100 OFFCURVE",
"272 180 CURVE SMOOTH",
"272 220 OFFCURVE",
"253 266 OFFCURVE",
"180 266 CURVE SMOOTH",
"67 266 OFFCURVE",
"15 157 OFFCURVE",
"15 99 CURVE SMOOTH",
"15 90 OFFCURVE",
"17 79 OFFCURVE",
"28 79 CURVE SMOOTH",
"41 79 OFFCURVE",
"45 92 OFFCURVE",
"58 119 CURVE SMOOTH",
"83 153 OFFCURVE",
"108 189 OFFCURVE",
"162 189 CURVE SMOOTH",
"203 189 OFFCURVE",
"212 169 OFFCURVE",
"212 153 CURVE SMOOTH",
"212 116 OFFCURVE",
"166 99 OFFCURVE",
"139 99 CURVE SMOOTH",
"112 99 OFFCURVE",
"86 116 OFFCURVE",
"86 149 CURVE SMOOTH",
"86 154 OFFCURVE",
"86 158 OFFCURVE",
"86 163 CURVE",
"81 167 LINE",
"71 148 OFFCURVE",
"47 123 OFFCURVE",
"47 95 CURVE SMOOTH",
"47 56 OFFCURVE",
"67 20 OFFCURVE",
"121 20 CURVE SMOOTH"
);
},
{
closed = 1;
nodes = (
"231 328 OFFCURVE",
"279 413 OFFCURVE",
"264 485 CURVE SMOOTH",
"257 520 OFFCURVE",
"231 559 OFFCURVE",
"165 545 CURVE SMOOTH",
"63 523 OFFCURVE",
"36 416 OFFCURVE",
"47 364 CURVE SMOOTH",
"49 355 OFFCURVE",
"53 346 OFFCURVE",
"63 348 CURVE SMOOTH",
"74 350 OFFCURVE",
"76 363 OFFCURVE",
"83 390 CURVE SMOOTH",
"98 428 OFFCURVE",
"115 464 OFFCURVE",
"163 472 CURVE SMOOTH",
"202 477 OFFCURVE",
"213 461 OFFCURVE",
"215 446 CURVE SMOOTH",
"221 413 OFFCURVE",
"181 391 OFFCURVE",
"157 387 CURVE SMOOTH",
"132 383 OFFCURVE",
"106 394 OFFCURVE",
"100 425 CURVE SMOOTH",
"99 429 OFFCURVE",
"100 432 OFFCURVE",
"100 437 CURVE",
"94 440 LINE",
"88 421 OFFCURVE",
"71 391 OFFCURVE",
"76 366 CURVE SMOOTH",
"84 331 OFFCURVE",
"109 302 OFFCURVE",
"158 312 CURVE SMOOTH"
);
}
);
width = 317;
}
);
leftKerningGroup = tlVisarga;
rightKerningGroup = tlVisarga;
unicode = 0C03;
},
{
color = 6;
glyphname = tlVirama;
lastChange = "2015-12-16 10:01:23 +0000";
layers = (
{
layerId = "59118767-2CA9-48AA-9373-694D24C960D8";
name = Regular;
paths = (
{
closed = 1;
nodes = (
"98 416 OFFCURVE",
"121 417 OFFCURVE",
"135 423 CURVE SMOOTH",
"158 434 OFFCURVE",
"174 456 OFFCURVE",
"174 480 CURVE SMOOTH",
"174 487 OFFCURVE",
"172 491 OFFCURVE",
"165 491 CURVE SMOOTH",
"134 491 LINE SMOOTH",
"96 491 OFFCURVE",
"76 503 OFFCURVE",
"76 521 CURVE SMOOTH",
"77 567 OFFCURVE",
"159 588 OFFCURVE",
"159 623 CURVE SMOOTH",
"159 636 OFFCURVE",
"146 637 OFFCURVE",
"135 641 CURVE SMOOTH",
"107 651 OFFCURVE",
"76 665 OFFCURVE",
"76 691 CURVE SMOOTH",
"76 731 OFFCURVE",
"145 737 OFFCURVE",
"208 736 CURVE SMOOTH",
"366 733 LINE SMOOTH",
"394 732 OFFCURVE",
"415 796 OFFCURVE",
"415 814 CURVE SMOOTH",
"415 817 OFFCURVE",
"414 823 OFFCURVE",
"403 824 CURVE SMOOTH",
"392 825 OFFCURVE",
"318 825 OFFCURVE",
"261 825 CURVE SMOOTH",
"172 825 OFFCURVE",
"109 819 OFFCURVE",
"52 760 CURVE SMOOTH",
"20 726 OFFCURVE",
"1 685 OFFCURVE",
"1 652 CURVE SMOOTH",
"1 617 OFFCURVE",
"22 588 OFFCURVE",
"72 580 CURVE",
"67 595 LINE",
"33 572 OFFCURVE",
"0 535 OFFCURVE",
"0 497 CURVE SMOOTH",
"0 440 OFFCURVE",
"37 416 OFFCURVE",
"80 416 CURVE SMOOTH"
);
}
);
width = 415;
}
);
unicode = 0C4D;
},
{
color = 6;
glyphname = tlAvagraha;
lastChange = "2015-11-18 07:18:34 +0000";
layers = (
{
background = {
paths = (
{
closed = 1;
nodes = (
"18 142 LINE",
"24 48 OFFCURVE",
"77 -16 OFFCURVE",
"179 -16 CURVE SMOOTH",
"343 -16 OFFCURVE",
"430 141 OFFCURVE",
"430 268 CURVE SMOOTH",
"430 387 OFFCURVE",
"358 462 OFFCURVE",
"238 462 CURVE SMOOTH",
"206 462 OFFCURVE",
"171 457 OFFCURVE",
"137 447 CURVE SMOOTH",
"104 437 OFFCURVE",
"68 382 OFFCURVE",
"68 355 CURVE SMOOTH",
"68 345 OFFCURVE",
"72 339 OFFCURVE",
"83 339 CURVE SMOOTH",
"88 339 OFFCURVE",
"93 340 OFFCURVE",
"100 342 CURVE",
"145 349 OFFCURVE",
"174 356 OFFCURVE",
"211 356 CURVE SMOOTH",
"301 356 OFFCURVE",
"353 300 OFFCURVE",
"353 214 CURVE SMOOTH",
"353 121 OFFCURVE",
"269 90 OFFCURVE",
"212 90 CURVE SMOOTH",
"164 90 OFFCURVE",
"127 111 OFFCURVE",
"106 142 CURVE"
);
}
);
};
layerId = "59118767-2CA9-48AA-9373-694D24C960D8";
name = Regular;
paths = (
{
closed = 1;
nodes = (
"628 1 OFFCURVE",
"606 2 OFFCURVE",
"674 2 CURVE SMOOTH",
"708 2 OFFCURVE",
"726 22 OFFCURVE",
"737 44 CURVE SMOOTH",
"743 56 OFFCURVE",
"748 70 OFFCURVE",
"748 78 CURVE SMOOTH",
"748 90 OFFCURVE",
"737 93 OFFCURVE",
"711 93 CURVE SMOOTH",
"534 93 OFFCURVE",
"411 93 OFFCURVE",
"338 93 CURVE SMOOTH",
"238 93 OFFCURVE",
"150 92 OFFCURVE",
"150 133 CURVE SMOOTH",
"150 152 OFFCURVE",
"190 169 OFFCURVE",
"240 187 CURVE SMOOTH",
"328 219 OFFCURVE",
"449 259 OFFCURVE",
"449 361 CURVE SMOOTH",
"449 386 OFFCURVE",
"440 409 OFFCURVE",
"420 426 CURVE SMOOTH",
"387 455 OFFCURVE",
"331 463 OFFCURVE",
"264 463 CURVE SMOOTH",
"215 463 OFFCURVE",
"168 458 OFFCURVE",
"137 447 CURVE SMOOTH",
"110 437 OFFCURVE",
"82 404 OFFCURVE",
"75 374 CURVE SMOOTH",
"70 354 OFFCURVE",
"81 348 OFFCURVE",
"96 351 CURVE SMOOTH",
"119 355 OFFCURVE",
"188 369 OFFCURVE",
"245 369 CURVE SMOOTH",
"301 369 OFFCURVE",
"348 351 OFFCURVE",
"348 311 CURVE SMOOTH",
"348 283 OFFCURVE",
"314 277 OFFCURVE",
"222 242 CURVE SMOOTH",
"84 189 OFFCURVE",
"40 143 OFFCURVE",
"40 85 CURVE SMOOTH",
"40 2 OFFCURVE",
"165 1 OFFCURVE",
"277 1 CURVE SMOOTH"
);
}
);
width = 753;
}
);
leftKerningGroup = tlAvagraha;
rightKerningGroup = tlAvagraha;
unicode = 0C3D;
},
{
color = 9;
glyphname = tlOne;
lastChange = "2015-12-14 11:07:31 +0000";
layers = (
{
layerId = "59118767-2CA9-48AA-9373-694D24C960D8";
name = Regular;
paths = (
{
closed = 1;
nodes = (
"118 -12 OFFCURVE",
"133 -6 OFFCURVE",
"149 5 CURVE SMOOTH",
"169 19 OFFCURVE",
"173 25 OFFCURVE",
"158 62 CURVE SMOOTH",
"141 106 OFFCURVE",
"132 154 OFFCURVE",
"132 199 CURVE SMOOTH",
"132 292 OFFCURVE",
"169 371 OFFCURVE",
"255 371 CURVE SMOOTH",
"366 371 OFFCURVE",
"394 255 OFFCURVE",
"394 145 CURVE SMOOTH",
"394 106 OFFCURVE",
"389 60 OFFCURVE",
"381 2 CURVE SMOOTH",
"381 -6 OFFCURVE",
"386 -10 OFFCURVE",
"392 -10 CURVE SMOOTH",
"417 -10 OFFCURVE",
"477 43 OFFCURVE",
"481 59 CURVE SMOOTH",
"489 94 OFFCURVE",
"494 133 OFFCURVE",
"494 193 CURVE SMOOTH",
"494 400 OFFCURVE",
"406 463 OFFCURVE",
"303 463 CURVE SMOOTH",
"164 463 OFFCURVE",
"30 322 OFFCURVE",
"30 147 CURVE SMOOTH",
"30 60 OFFCURVE",
"57 -12 OFFCURVE",
"104 -12 CURVE SMOOTH"
);
}
);
width = 524;
}
);
unicode = 0C67;
},
{
color = 9;
glyphname = tlTwo;
lastChange = "2015-12-14 11:07:51 +0000";
layers = (
{
layerId = "59118767-2CA9-48AA-9373-694D24C960D8";
name = Regular;
paths = (
{
closed = 1;
nodes = (
"434 -12 OFFCURVE",
"570 17 OFFCURVE",
"650 97 CURVE SMOOTH",
"692 139 OFFCURVE",
"721 202 OFFCURVE",
"721 267 CURVE SMOOTH",
"721 356 OFFCURVE",
"660 430 OFFCURVE",
"551 430 CURVE SMOOTH",
"433 430 OFFCURVE",
"347 344 OFFCURVE",
"347 233 CURVE SMOOTH",
"347 153 OFFCURVE",
"400 118 OFFCURVE",
"450 118 CURVE SMOOTH",
"561 118 OFFCURVE",
"612 250 OFFCURVE",
"575 348 CURVE",
"518 346 LINE",
"612 348 OFFCURVE",
"671 233 OFFCURVE",
"605 153 CURVE SMOOTH",
"555 90 OFFCURVE",
"459 79 OFFCURVE",
"367 79 CURVE SMOOTH",
"265 79 OFFCURVE",
"159 113 OFFCURVE",
"99 168 CURVE SMOOTH",
"90 175 OFFCURVE",
"85 180 OFFCURVE",
"83 180 CURVE SMOOTH",
"75 180 OFFCURVE",
"66 175 OFFCURVE",
"56 164 CURVE SMOOTH",
"48 156 OFFCURVE",
"30 132 OFFCURVE",
"30 101 CURVE SMOOTH",
"30 29 OFFCURVE",
"158 -12 OFFCURVE",
"295 -12 CURVE SMOOTH"
);
},
{
closed = 1;
nodes = (
"444 192 OFFCURVE",
"414 218 OFFCURVE",
"414 267 CURVE SMOOTH",
"414 313 OFFCURVE",
"441 340 OFFCURVE",
"469 340 CURVE SMOOTH",
"497 340 OFFCURVE",
"525 313 OFFCURVE",
"525 263 CURVE SMOOTH",
"525 214 OFFCURVE",
"499 192 OFFCURVE",
"473 192 CURVE SMOOTH"
);
}
);
width = 751;
}
);
unicode = 0C68;
},
{
color = 9;
glyphname = tlThree;
lastChange = "2015-12-14 11:08:07 +0000";
layers = (
{
background = {
paths = (
{
closed = 1;
nodes = (
"422 339 OFFCURVE",
"448 389 OFFCURVE",
"448 427 CURVE SMOOTH",
"448 485 OFFCURVE",
"382 523 OFFCURVE",
"298 523 CURVE SMOOTH",
"226 523 OFFCURVE",
"141 496 OFFCURVE",
"72 432 CURVE SMOOTH",
"42 405 OFFCURVE",
"29 369 OFFCURVE",
"53 354 CURVE SMOOTH",
"64 347 OFFCURVE",
"73 350 OFFCURVE",
"92 366 CURVE SMOOTH",
"152 416 OFFCURVE",
"198 438 OFFCURVE",
"270 438 CURVE SMOOTH",
"318 438 OFFCURVE",
"349 415 OFFCURVE",
"349 388 CURVE SMOOTH",
"349 360 OFFCURVE",
"325 324 OFFCURVE",
"260 305 CURVE SMOOTH",
"228 296 OFFCURVE",
"213 251 OFFCURVE",
"213 237 CURVE SMOOTH",
"213 228 OFFCURVE",
"222 225 OFFCURVE",
"229 225 CURVE SMOOTH",
"243 226 OFFCURVE",
"251 231 OFFCURVE",
"309 231 CURVE SMOOTH",
"387 231 OFFCURVE",
"405 191 OFFCURVE",
"405 157 CURVE SMOOTH",
"405 111 OFFCURVE",
"337 81 OFFCURVE",
"271 81 CURVE SMOOTH",
"142 81 OFFCURVE",
"120 171 OFFCURVE",
"86 171 CURVE SMOOTH",
"73 171 OFFCURVE",
"55 155 OFFCURVE",
"39 128 CURVE SMOOTH",
"-3 56 OFFCURVE",
"125 -14 OFFCURVE",
"245 -13 CURVE SMOOTH",
"393 -12 OFFCURVE",
"491 125 OFFCURVE",
"491 208 CURVE SMOOTH",
"491 267 OFFCURVE",
"459 333 OFFCURVE",
"345 327 CURVE",
"352 299 LINE"
);
}
);
};
layerId = "59118767-2CA9-48AA-9373-694D24C960D8";
name = Regular;
paths = (
{
closed = 1;
nodes = (
"290 -13 OFFCURVE",
"356 4 OFFCURVE",
"406 48 CURVE SMOOTH",
"479 110 OFFCURVE",
"511 224 OFFCURVE",
"455 283 CURVE SMOOTH",
"434 305 OFFCURVE",
"382 325 OFFCURVE",
"325 305 CURVE",
"328 298 LINE",
"393 306 OFFCURVE",
"446 369 OFFCURVE",
"446 427 CURVE SMOOTH",
"446 488 OFFCURVE",
"387 523 OFFCURVE",
"314 523 CURVE SMOOTH",
"203 523 OFFCURVE",
"61 428 OFFCURVE",
"61 370 CURVE SMOOTH",
"61 350 OFFCURVE",
"81 329 OFFCURVE",
"112 360 CURVE SMOOTH",
"155 403 OFFCURVE",
"198 432 OFFCURVE",
"260 432 CURVE SMOOTH",
"304 432 OFFCURVE",
"341 414 OFFCURVE",
"341 375 CURVE SMOOTH",
"341 347 OFFCURVE",
"322 309 OFFCURVE",
"260 309 CURVE SMOOTH",
"235 309 OFFCURVE",
"213 258 OFFCURVE",
"213 236 CURVE SMOOTH",
"213 227 OFFCURVE",
"218 224 OFFCURVE",
"229 224 CURVE SMOOTH",
"243 224 OFFCURVE",
"245 224 OFFCURVE",
"303 224 CURVE SMOOTH",
"365 224 OFFCURVE",
"400 188 OFFCURVE",
"400 152 CURVE SMOOTH",
"400 132 OFFCURVE",
"388 111 OFFCURVE",
"364 97 CURVE SMOOTH",
"342 84 OFFCURVE",
"314 78 OFFCURVE",
"285 78 CURVE SMOOTH",
"240 78 OFFCURVE",
"202 88 OFFCURVE",
"170 105 CURVE SMOOTH",
"153 114 OFFCURVE",
"138 125 OFFCURVE",
"125 138 CURVE SMOOTH",
"100 161 OFFCURVE",
"100 177 OFFCURVE",
"82 171 CURVE SMOOTH",
"61 163 OFFCURVE",
"30 140 OFFCURVE",
"30 99 CURVE SMOOTH",
"30 42 OFFCURVE",
"129 -13 OFFCURVE",
"228 -13 CURVE SMOOTH"
);
}
);
width = 513;
}
);
unicode = 0C69;
},
{
color = 9;
glyphname = tlFour;
lastChange = "2015-11-25 16:31:42 +0000";
layers = (
{
background = {
paths = (
{
closed = 1;
nodes = (
"77 463 OFFCURVE",
"50 463 CURVE SMOOTH",
"22 463 OFFCURVE",
"6 424 OFFCURVE",
"-4 369 CURVE SMOOTH",
"-34 204 OFFCURVE",
"17 119 OFFCURVE",
"152 106 CURVE SMOOTH",
"224 99 OFFCURVE",
"269 96 OFFCURVE",
"318 96 CURVE SMOOTH",
"382 96 OFFCURVE",
"466 79 OFFCURVE",
"466 6 CURVE SMOOTH",
"466 -32 OFFCURVE",
"433 -51 OFFCURVE",
"397 -51 CURVE SMOOTH",
"355 -51 OFFCURVE",
"310 -25 OFFCURVE",
"310 27 CURVE SMOOTH",
"310 52 OFFCURVE",
"318 83 OFFCURVE",
"332 117 CURVE SMOOTH",
"338 131 OFFCURVE",
"345 148 OFFCURVE",
"354 167 CURVE SMOOTH",
"380 220 OFFCURVE",
"413 281 OFFCURVE",
"413 327 CURVE SMOOTH",
"413 397 OFFCURVE",
"369 463 OFFCURVE",
"306 463 CURVE SMOOTH",
"262 463 OFFCURVE",
"240 420 OFFCURVE",
"240 389 CURVE SMOOTH",
"240 376 OFFCURVE",
"242 372 OFFCURVE",
"265 362 CURVE SMOOTH",
"305 345 OFFCURVE",
"323 317 OFFCURVE",
"323 276 CURVE SMOOTH",
"323 239 OFFCURVE",
"308 211 OFFCURVE",
"285 165 CURVE SMOOTH",
"257 107 OFFCURVE",
"221 24 OFFCURVE",
"221 -25 CURVE SMOOTH",
"221 -104 OFFCURVE",
"286 -141 OFFCURVE",
"350 -141 CURVE SMOOTH",
"459 -141 OFFCURVE",
"552 -42 OFFCURVE",
"552 51 CURVE SMOOTH",
"552 164 OFFCURVE",
"454 192 OFFCURVE",
"331 183 CURVE SMOOTH",
"305 182 OFFCURVE",
"263 185 OFFCURVE",
"189 194 CURVE SMOOTH",
"78 207 OFFCURVE",
"49 292 OFFCURVE",
"79 410 CURVE SMOOTH",
"89 450 OFFCURVE"
);
}
);
};
layerId = "59118767-2CA9-48AA-9373-694D24C960D8";
name = Regular;
paths = (
{
closed = 1;
nodes = (
"457 -141 OFFCURVE",
"552 -46 OFFCURVE",
"552 57 CURVE SMOOTH",
"552 182 OFFCURVE",
"414 187 OFFCURVE",
"331 184 CURVE SMOOTH",
"251 181 OFFCURVE",
"169 179 OFFCURVE",
"117 235 CURVE SMOOTH",
"26 333 OFFCURVE",
"175 463 OFFCURVE",
"113 463 CURVE SMOOTH",
"34 463 OFFCURVE",
"-34 250 OFFCURVE",
"44 158 CURVE SMOOTH",
"93 100 OFFCURVE",
"188 98 OFFCURVE",
"318 96 CURVE SMOOTH",
"378 95 OFFCURVE",
"466 80 OFFCURVE",
"466 9 CURVE SMOOTH",
"466 -34 OFFCURVE",
"433 -51 OFFCURVE",
"398 -51 CURVE SMOOTH",
"355 -51 OFFCURVE",
"310 -26 OFFCURVE",
"310 28 CURVE SMOOTH",
"310 51 OFFCURVE",
"318 83 OFFCURVE",
"332 117 CURVE SMOOTH",
"338 131 OFFCURVE",
"344 146 OFFCURVE",
"354 167 CURVE SMOOTH",
"377 216 OFFCURVE",
"413 275 OFFCURVE",
"413 331 CURVE SMOOTH",
"413 393 OFFCURVE",
"369 463 OFFCURVE",
"308 463 CURVE SMOOTH",
"261 463 OFFCURVE",
"240 421 OFFCURVE",
"240 388 CURVE SMOOTH",
"240 375 OFFCURVE",
"243 372 OFFCURVE",
"265 362 CURVE SMOOTH",
"290 350 OFFCURVE",
"323 332 OFFCURVE",
"323 276 CURVE SMOOTH",
"323 239 OFFCURVE",
"308 211 OFFCURVE",
"285 165 CURVE SMOOTH",
"257 108 OFFCURVE",
"221 25 OFFCURVE",
"221 -29 CURVE SMOOTH",
"221 -100 OFFCURVE",
"283 -141 OFFCURVE",
"352 -141 CURVE SMOOTH"
);
}
);
width = 572;
}
);
unicode = 0C6A;
},
{
color = 9;
glyphname = tlFive;
lastChange = "2015-12-14 11:08:33 +0000";
layers = (
{
background = {
paths = (
{
closed = 1;
nodes = (
"685 82 OFFCURVE",
"685 187 CURVE SMOOTH",
"685 319 OFFCURVE",
"503 311 OFFCURVE",
"503 457 CURVE SMOOTH",
"503 542 OFFCURVE",
"604 553 OFFCURVE",
"604 466 CURVE SMOOTH",
"604 257 OFFCURVE",
"10 176 OFFCURVE",
"10 -43 CURVE SMOOTH",
"10 -96 OFFCURVE",
"55 -139 OFFCURVE",
"119 -139 CURVE SMOOTH",
"171 -139 OFFCURVE",
"235 -111 OFFCURVE",
"298 -40 CURVE SMOOTH",
"366 36 OFFCURVE",
"416 167 OFFCURVE",
"416 277 CURVE SMOOTH",
"416 386 OFFCURVE",
"369 463 OFFCURVE",
"257 463 CURVE SMOOTH",
"189 463 OFFCURVE",
"113 428 OFFCURVE",
"82 384 CURVE SMOOTH",
"59 351 OFFCURVE",
"79 336 OFFCURVE",
"94 336 CURVE SMOOTH",
"107 336 OFFCURVE",
"118 346 OFFCURVE",
"133 355 CURVE SMOOTH",
"153 368 OFFCURVE",
"176 374 OFFCURVE",
"198 374 CURVE SMOOTH",
"277 374 OFFCURVE",
"326 300 OFFCURVE",
"332 212 CURVE",
"330 197 LINE",
"320 116 OFFCURVE",
"309 47 OFFCURVE",
"246 -13 CURVE SMOOTH",
"222 -36 OFFCURVE",
"196 -48 OFFCURVE",
"168 -48 CURVE SMOOTH",
"131 -48 OFFCURVE",
"109 -32 OFFCURVE",
"109 -5 CURVE SMOOTH",
"109 49 OFFCURVE",
"242 109 OFFCURVE",
"382 189 CURVE SMOOTH",
"439 222 OFFCURVE",
"498 258 OFFCURVE",
"548 295 CURVE SMOOTH",
"635 360 OFFCURVE",
"700 439 OFFCURVE",
"700 518 CURVE SMOOTH",
"700 583 OFFCURVE",
"658 614 OFFCURVE",
"606 614 CURVE SMOOTH",
"533 614 OFFCURVE",
"446 554 OFFCURVE",
"446 442 CURVE SMOOTH",
"446 269 OFFCURVE",
"591 243 OFFCURVE",
"591 154 CURVE SMOOTH",
"591 100 OFFCURVE",
"537 53 OFFCURVE",
"466 92 CURVE SMOOTH",
"450 101 OFFCURVE",
"406 42 OFFCURVE",
"406 12 CURVE SMOOTH",
"406 -8 OFFCURVE",
"419 -15 OFFCURVE",
"436 -15 CURVE SMOOTH",
"558 -15 OFFCURVE"
);
}
);
};
guideLines = (
{
position = "{665, -138}";
}
);
layerId = "59118767-2CA9-48AA-9373-694D24C960D8";
name = Regular;
paths = (
{
closed = 1;
nodes = (
"294 -139 OFFCURVE",
"396 51 OFFCURVE",
"413 222 CURVE",
"328 175 LINE",
"314 66 OFFCURVE",
"258 -48 OFFCURVE",
"166 -48 CURVE SMOOTH",
"132 -48 OFFCURVE",
"109 -32 OFFCURVE",
"109 -5 CURVE SMOOTH",
"109 52 OFFCURVE",
"220 85 OFFCURVE",
"345 155 CURVE",
"353 158 OFFCURVE",
"365 169 OFFCURVE",
"380 175 CURVE SMOOTH",
"434 198 OFFCURVE",
"522 237 OFFCURVE",
"568 265 CURVE SMOOTH",
"576 270 OFFCURVE",
"583 283 OFFCURVE",
"588 287 CURVE",
"670 351 OFFCURVE",
"730 441 OFFCURVE",
"730 519 CURVE SMOOTH",
"730 583 OFFCURVE",
"688 614 OFFCURVE",
"635 614 CURVE SMOOTH",
"546 614 OFFCURVE",
"456 523 OFFCURVE",
"456 438 CURVE SMOOTH",
"456 396 OFFCURVE",
"477 349 OFFCURVE",
"528 294 CURVE",
"531 283 LINE",
"573 241 OFFCURVE",
"621 205 OFFCURVE",
"621 154 CURVE SMOOTH",
"621 114 OFFCURVE",
"592 78 OFFCURVE",
"545 78 CURVE SMOOTH",
"514 78 OFFCURVE",
"501 93 OFFCURVE",
"492 93 CURVE SMOOTH",
"483 93 OFFCURVE",
"466 75 OFFCURVE",
"454 55 CURVE SMOOTH",
"424 9 OFFCURVE",
"449 -13 OFFCURVE",
"492 -13 CURVE SMOOTH",
"591 -13 OFFCURVE",
"715 86 OFFCURVE",
"715 189 CURVE SMOOTH",
"715 239 OFFCURVE",
"688 288 OFFCURVE",
"619 351 CURVE SMOOTH",
"559 406 OFFCURVE",
"518 470 OFFCURVE",
"549 508 CURVE SMOOTH",
"560 520 OFFCURVE",
"574 526 OFFCURVE",
"588 526 CURVE SMOOTH",
"612 526 OFFCURVE",
"634 507 OFFCURVE",
"634 466 CURVE SMOOTH",
"634 416 OFFCURVE",
"600 374 OFFCURVE",
"550 334 CURVE",
"494 299 OFFCURVE",
"406 256 OFFCURVE",
"348 235 CURVE",
"167 145 OFFCURVE",
"10 75 OFFCURVE",
"10 -41 CURVE SMOOTH",
"10 -98 OFFCURVE",
"55 -139 OFFCURVE",
"121 -139 CURVE SMOOTH"
);
},
{
closed = 1;
nodes = (
"415 245 LINE",
"424 412 OFFCURVE",
"347 463 OFFCURVE",
"263 463 CURVE SMOOTH",
"172 463 OFFCURVE",
"72 401 OFFCURVE",
"72 358 CURVE SMOOTH",
"72 343 OFFCURVE",
"84 336 OFFCURVE",
"94 336 CURVE SMOOTH",
"117 336 OFFCURVE",
"143 375 OFFCURVE",
"197 375 CURVE SMOOTH",
"262 375 OFFCURVE",
"332 319 OFFCURVE",
"332 205 CURVE"
);
}
);
width = 760;
}
);
unicode = 0C6B;
},
{
color = 9;
glyphname = tlSix;
lastChange = "2015-11-25 16:31:54 +0000";
layers = (
{
guideLines = (
{
angle = 90;
position = "{277, 111}";
showMeasurement = 1;
}
);
layerId = "59118767-2CA9-48AA-9373-694D24C960D8";
name = Regular;
paths = (
{
closed = 1;
nodes = (
"337 -14 OFFCURVE",
"433 -8 OFFCURVE",
"532 11 CURVE SMOOTH",
"562 17 OFFCURVE",
"580 17 OFFCURVE",
"600 60 CURVE SMOOTH",
"605 71 OFFCURVE",
"607 79 OFFCURVE",
"607 85 CURVE SMOOTH",
"607 108 OFFCURVE",
"583 100 OFFCURVE",
"545 95 CURVE SMOOTH",
"470 85 OFFCURVE",
"384 77 OFFCURVE",
"319 77 CURVE SMOOTH",
"204 77 OFFCURVE",
"120 101 OFFCURVE",
"120 176 CURVE SMOOTH",
"120 181 OFFCURVE",
"120 185 OFFCURVE",
"121 189 CURVE",
"134 184 OFFCURVE",
"148 182 OFFCURVE",
"164 182 CURVE SMOOTH",
"269 182 OFFCURVE",
"369 280 OFFCURVE",
"369 349 CURVE SMOOTH",
"369 386 OFFCURVE",
"348 416 OFFCURVE",
"305 416 CURVE SMOOTH",
"254 416 OFFCURVE",
"187 375 OFFCURVE",
"133 317 CURVE",
"118 337 OFFCURVE",
"110 360 OFFCURVE",
"110 386 CURVE SMOOTH",
"110 467 OFFCURVE",
"161 474 OFFCURVE",
"185 477 CURVE SMOOTH",
"227 482 OFFCURVE",
"275 568 OFFCURVE",
"275 598 CURVE SMOOTH",
"275 607 OFFCURVE",
"271 613 OFFCURVE",
"254 613 CURVE SMOOTH",
"174 613 OFFCURVE",
"34 479 OFFCURVE",
"34 337 CURVE SMOOTH",
"34 294 OFFCURVE",
"46 257 OFFCURVE",
"67 227 CURVE",
"43 185 OFFCURVE",
"30 149 OFFCURVE",
"30 112 CURVE SMOOTH",
"30 14 OFFCURVE",
"123 -14 OFFCURVE",
"256 -14 CURVE SMOOTH"
);
},
{
closed = 1;
nodes = (
"196 261 OFFCURVE",
"183 266 OFFCURVE",
"172 274 CURVE",
"203 312 OFFCURVE",
"240 339 OFFCURVE",
"267 339 CURVE SMOOTH",
"282 339 OFFCURVE",
"293 326 OFFCURVE",
"293 312 CURVE SMOOTH",
"293 283 OFFCURVE",
"246 261 OFFCURVE",
"213 261 CURVE SMOOTH"
);
}
);
width = 617;
}
);
unicode = 0C6C;
},
{
color = 9;
glyphname = tlSeven;
lastChange = "2015-12-14 11:09:19 +0000";
layers = (
{
layerId = "59118767-2CA9-48AA-9373-694D24C960D8";
name = Regular;
paths = (
{
closed = 1;
nodes = (
"311 -16 OFFCURVE",
"408 9 OFFCURVE",
"487 63 CURVE SMOOTH",
"524 88 OFFCURVE",
"489 137 OFFCURVE",
"438 114 CURVE SMOOTH",
"384 90 OFFCURVE",
"334 64 OFFCURVE",
"264 64 CURVE SMOOTH",
"198 64 OFFCURVE",
"142 105 OFFCURVE",
"142 148 CURVE SMOOTH",
"142 195 OFFCURVE",
"185 202 OFFCURVE",
"248 214 CURVE SMOOTH",
"296 223 OFFCURVE",
"356 228 OFFCURVE",
"414 260 CURVE SMOOTH",
"556 338 OFFCURVE",
"518 524 OFFCURVE",
"337 524 CURVE SMOOTH",
"210 524 OFFCURVE",
"107 458 OFFCURVE",
"64 399 CURVE SMOOTH",
"33 355 OFFCURVE",
"57 334 OFFCURVE",
"78 334 CURVE SMOOTH",
"112 334 OFFCURVE",
"159 440 OFFCURVE",
"286 440 CURVE SMOOTH",
"377 440 OFFCURVE",
"434 346 OFFCURVE",
"350 303 CURVE SMOOTH",
"323 289 OFFCURVE",
"285 291 OFFCURVE",
"197 275 CURVE SMOOTH",
"144 265 OFFCURVE",
"30 222 OFFCURVE",
"30 122 CURVE SMOOTH",
"30 28 OFFCURVE",
"118 -16 OFFCURVE",
"227 -16 CURVE SMOOTH"
);
}
);
width = 532;
}
);
unicode = 0C6D;
},
{
color = 9;
glyphname = tlEight;
lastChange = "2015-12-14 11:09:23 +0000";
layers = (
{
layerId = "59118767-2CA9-48AA-9373-694D24C960D8";
name = Regular;
paths = (
{
closed = 1;
nodes = (
"409 -13 OFFCURVE",
"578 98 OFFCURVE",
"578 298 CURVE SMOOTH",
"578 352 OFFCURVE",
"552 428 OFFCURVE",
"529 458 CURVE",
"482 427 LINE",
"576 432 OFFCURVE",
"672 432 OFFCURVE",
"689 432 CURVE SMOOTH",
"719 434 OFFCURVE",
"749 480 OFFCURVE",
"758 502 CURVE SMOOTH",
"765 518 OFFCURVE",
"755 525 OFFCURVE",
"738 525 CURVE SMOOTH",
"684 523 OFFCURVE",
"488 516 OFFCURVE",
"479 516 CURVE SMOOTH",
"463 516 OFFCURVE",
"445 505 OFFCURVE",
"424 479 CURVE SMOOTH",
"391 437 OFFCURVE",
"406 424 OFFCURVE",
"433 400 CURVE SMOOTH",
"490 346 OFFCURVE",
"496 284 OFFCURVE",
"496 247 CURVE SMOOTH",
"496 134 OFFCURVE",
"406 83 OFFCURVE",
"304 83 CURVE SMOOTH",
"199 83 OFFCURVE",
"111 138 OFFCURVE",
"111 232 CURVE SMOOTH",
"111 313 OFFCURVE",
"162 320 OFFCURVE",
"186 323 CURVE SMOOTH",
"228 328 OFFCURVE",
"276 414 OFFCURVE",
"276 444 CURVE SMOOTH",
"276 453 OFFCURVE",
"272 459 OFFCURVE",
"255 459 CURVE SMOOTH",
"152 459 OFFCURVE",
"30 291 OFFCURVE",
"30 174 CURVE SMOOTH",
"30 67 OFFCURVE",
"95 -13 OFFCURVE",
"256 -13 CURVE SMOOTH"
);
}
);
width = 770;
}
);
unicode = 0C6E;
},
{
color = 9;
glyphname = tlNine;
lastChange = "2015-12-14 11:09:11 +0000";
layers = (
{
layerId = "59118767-2CA9-48AA-9373-694D24C960D8";
name = Regular;
paths = (
{
closed = 1;
nodes = (
"208 -14 OFFCURVE",
"227 -12 OFFCURVE",
"242 -5 CURVE SMOOTH",
"269 8 OFFCURVE",
"295 41 OFFCURVE",
"295 65 CURVE SMOOTH",
"295 76 OFFCURVE",
"286 81 OFFCURVE",
"264 80 CURVE SMOOTH",
"251 79 OFFCURVE",
"231 78 OFFCURVE",
"200 78 CURVE SMOOTH",
"140 78 OFFCURVE",
"107 107 OFFCURVE",
"107 155 CURVE SMOOTH",
"107 169 OFFCURVE",
"111 178 OFFCURVE",
"119 184 CURVE",
"135 179 OFFCURVE",
"154 176 OFFCURVE",
"176 176 CURVE SMOOTH",
"222 176 OFFCURVE",
"269 207 OFFCURVE",
"286 249 CURVE SMOOTH",
"293 266 OFFCURVE",
"292 281 OFFCURVE",
"273 289 CURVE SMOOTH",
"249 299 OFFCURVE",
"209 294 OFFCURVE",
"171 280 CURVE",
"136 298 OFFCURVE",
"118 333 OFFCURVE",
"118 367 CURVE SMOOTH",
"118 441 OFFCURVE",
"211 428 OFFCURVE",
"279 429 CURVE SMOOTH",
"372 430 OFFCURVE",
"482 427 OFFCURVE",
"518 428 CURVE SMOOTH",
"552 429 OFFCURVE",
"576 433 OFFCURVE",
"583 436 CURVE SMOOTH",
"598 443 OFFCURVE",
"610 456 OFFCURVE",
"617 471 CURVE SMOOTH",
"637 515 OFFCURVE",
"630 524 OFFCURVE",
"572 521 CURVE SMOOTH",
"525 519 OFFCURVE",
"379 516 OFFCURVE",
"291 514 CURVE SMOOTH",
"134 514 OFFCURVE",
"30 455 OFFCURVE",
"30 316 CURVE SMOOTH",
"30 274 OFFCURVE",
"44 234 OFFCURVE",
"76 208 CURVE",
"46 178 OFFCURVE",
"31 140 OFFCURVE",
"31 104 CURVE SMOOTH",
"31 28 OFFCURVE",
"104 -14 OFFCURVE",
"176 -14 CURVE SMOOTH"
);
}
);
width = 637;
}
);
unicode = 0C6F;
},
{
color = 9;
glyphname = tlTick;
lastChange = "2015-11-11 04:57:48 +0000";
layers = (
{
layerId = "59118767-2CA9-48AA-9373-694D24C960D8";
name = Regular;
paths = (
{
closed = 1;
nodes = (
"31 329 OFFCURVE",
"34 331 OFFCURVE",
"36 333 CURVE SMOOTH",
"47 345 OFFCURVE",
"79 450 OFFCURVE",
"157 517 CURVE SMOOTH",
"229 579 OFFCURVE",
"282 558 OFFCURVE",
"298 574 CURVE SMOOTH",
"307 583 OFFCURVE",
"337 636 OFFCURVE",
"337 666 CURVE SMOOTH",
"337 680 OFFCURVE",
"331 690 OFFCURVE",
"311 690 CURVE SMOOTH",
"279 690 OFFCURVE",
"215 665 OFFCURVE",
"158 618 CURVE SMOOTH",
"55 533 OFFCURVE",
"16 419 OFFCURVE",
"4 382 CURVE SMOOTH",
"2 375 OFFCURVE",
"0 366 OFFCURVE",
"0 358 CURVE SMOOTH",
"0 343 OFFCURVE",
"6 329 OFFCURVE",
"24 329 CURVE SMOOTH"
);
}
);
width = 337;
}
);
},
{
color = 9;
glyphname = tlTeardrop;
lastChange = "2015-11-11 04:57:48 +0000";
layers = (
{
layerId = "59118767-2CA9-48AA-9373-694D24C960D8";
name = Regular;
paths = (
{
closed = 1;
nodes = (
"86 -192 OFFCURVE",
"105 -158 OFFCURVE",
"105 -125 CURVE SMOOTH",
"105 -98 OFFCURVE",
"92 -9 OFFCURVE",
"71 -9 CURVE SMOOTH",
"50 -9 OFFCURVE",
"0 -95 OFFCURVE",
"0 -139 CURVE SMOOTH",
"0 -158 OFFCURVE",
"10 -192 OFFCURVE",
"48 -192 CURVE SMOOTH"
);
}
);
width = 105;
}
);
},
{
color = 7;
glyphname = tlKAc2;
lastChange = "2015-12-20 15:23:33 +0000";
layers = (
{
anchors = (
{
name = bottom;
position = "{-50, -438}";
}
);
background = {
paths = (
{
closed = 1;
nodes = (
"135 -88 OFFCURVE",
"163 -86 OFFCURVE",
"194 -85 CURVE SMOOTH",
"326 -78 OFFCURVE",
"400 -83 OFFCURVE",
"415 -83 CURVE SMOOTH",
"451 -81 OFFCURVE",
"488 -25 OFFCURVE",
"486 -9 CURVE SMOOTH",
"486 -2 OFFCURVE",
"479 2 OFFCURVE",
"474 2 CURVE",
"380 0 OFFCURVE",
"214 -5 OFFCURVE",
"110 -9 CURVE",
"110 -90 LINE"
);
}
);
};
layerId = "59118767-2CA9-48AA-9373-694D24C960D8";
name = Regular;
paths = (
{
closed = 1;
nodes = (
"258 -450 OFFCURVE",
"347 -316 OFFCURVE",
"347 -200 CURVE SMOOTH",
"347 -152 OFFCURVE",
"334 -103 OFFCURVE",
"306 -59 CURVE",
"278 -99 LINE",
"418 -83 LINE SMOOTH",
"444 -80 OFFCURVE",
"486 -38 OFFCURVE",
"486 -6 CURVE SMOOTH",
"486 6 OFFCURVE",
"476 4 OFFCURVE",
"448 1 CURVE SMOOTH",
"384 -6 OFFCURVE",
"306 -16 OFFCURVE",
"236 -26 CURVE SMOOTH",
"183 -34 OFFCURVE",
"162 -46 OFFCURVE",
"153 -74 CURVE SMOOTH",
"146 -94 OFFCURVE",
"145 -114 OFFCURVE",
"156 -114 CURVE SMOOTH",
"239 -113 OFFCURVE",
"273 -170 OFFCURVE",
"273 -229 CURVE SMOOTH",
"273 -300 OFFCURVE",
"234 -356 OFFCURVE",
"158 -356 CURVE SMOOTH",
"89 -356 OFFCURVE",
"33 -304 OFFCURVE",
"33 -229 CURVE SMOOTH",
"33 -47 OFFCURVE",
"184 103 OFFCURVE",
"184 373 CURVE SMOOTH",
"184 437 OFFCURVE",
"174 498 OFFCURVE",
"153 552 CURVE SMOOTH",
"135 597 OFFCURVE",
"114 613 OFFCURVE",
"93 613 CURVE SMOOTH",
"70 613 OFFCURVE",
"48 593 OFFCURVE",
"34 567 CURVE SMOOTH",
"17 535 OFFCURVE",
"22 532 OFFCURVE",
"42 492 CURVE SMOOTH",
"64 450 OFFCURVE",
"87 389 OFFCURVE",
"87 295 CURVE SMOOTH",
"87 51 OFFCURVE",
"-50 -92 OFFCURVE",
"-50 -273 CURVE SMOOTH",
"-50 -379 OFFCURVE",
"20 -450 OFFCURVE",
"122 -450 CURVE SMOOTH"
);
}
);
width = 476;
},
{
associatedMasterId = "59118767-2CA9-48AA-9373-694D24C960D8";
background = {
paths = (
{
closed = 1;
nodes = (
"135 -88 OFFCURVE",
"163 -86 OFFCURVE",
"194 -85 CURVE SMOOTH",
"326 -78 OFFCURVE",
"400 -83 OFFCURVE",
"415 -83 CURVE SMOOTH",
"451 -81 OFFCURVE",
"488 -25 OFFCURVE",
"486 -9 CURVE SMOOTH",
"486 -2 OFFCURVE",
"479 2 OFFCURVE",
"474 2 CURVE",
"380 0 OFFCURVE",
"214 -5 OFFCURVE",
"110 -9 CURVE",
"110 -90 LINE"
);
}
);
};
layerId = "8994C05F-FBF1-4743-97D8-D9403EE917CC";
name = "Regular Dec 8 15, 12:12";
paths = (
{
closed = 1;
nodes = (
"258 -450 OFFCURVE",
"347 -316 OFFCURVE",
"347 -200 CURVE SMOOTH",
"347 -152 OFFCURVE",
"334 -103 OFFCURVE",
"306 -59 CURVE",
"278 -97 LINE",
"437 -81 LINE SMOOTH",
"484 -76 OFFCURVE",
"487 4 OFFCURVE",
"448 0 CURVE SMOOTH",
"384 -6 OFFCURVE",
"306 -16 OFFCURVE",
"236 -26 CURVE SMOOTH",
"183 -34 OFFCURVE",
"162 -46 OFFCURVE",
"153 -74 CURVE SMOOTH",
"146 -94 OFFCURVE",
"145 -114 OFFCURVE",
"156 -114 CURVE SMOOTH",
"239 -113 OFFCURVE",
"273 -170 OFFCURVE",
"273 -229 CURVE SMOOTH",
"273 -300 OFFCURVE",
"234 -356 OFFCURVE",
"158 -356 CURVE SMOOTH",
"89 -356 OFFCURVE",
"33 -304 OFFCURVE",
"33 -229 CURVE SMOOTH",
"33 -47 OFFCURVE",
"184 103 OFFCURVE",
"184 373 CURVE SMOOTH",
"184 437 OFFCURVE",
"174 498 OFFCURVE",
"153 552 CURVE SMOOTH",
"135 597 OFFCURVE",
"114 613 OFFCURVE",
"93 613 CURVE SMOOTH",
"70 613 OFFCURVE",
"48 593 OFFCURVE",
"34 567 CURVE SMOOTH",
"17 535 OFFCURVE",
"22 532 OFFCURVE",
"42 492 CURVE SMOOTH",
"64 450 OFFCURVE",
"87 389 OFFCURVE",
"87 295 CURVE SMOOTH",
"87 51 OFFCURVE",
"-50 -92 OFFCURVE",
"-50 -273 CURVE SMOOTH",
"-50 -379 OFFCURVE",
"20 -450 OFFCURVE",
"122 -450 CURVE SMOOTH"
);
}
);
width = 445;
}
);
leftKerningGroup = tlKAc2;
rightKerningGroup = tlKAc2;
script = telugu;
category = Mark;
subCategory = "Spacing Combining";
},
{
color = 7;
glyphname = tlKAc2.01;
lastChange = "2015-12-20 15:23:24 +0000";
layers = (
{
anchors = (
{
name = _bottom;
position = "{-150, 0}";
},
{
name = bottom;
position = "{-150, -438}";
}
);
layerId = "59118767-2CA9-48AA-9373-694D24C960D8";
name = Regular;
paths = (
{
closed = 1;
nodes = (
"-90 -441 OFFCURVE",
"0 -355 OFFCURVE",
"0 -292 CURVE SMOOTH",
"0 -246 OFFCURVE",
"-26 -224 OFFCURVE",
"-79 -224 CURVE SMOOTH",
"-110 -224 OFFCURVE",
"-168 -243 OFFCURVE",
"-192 -243 CURVE SMOOTH",
"-208 -243 OFFCURVE",
"-217 -240 OFFCURVE",
"-217 -228 CURVE SMOOTH",
"-217 -192 OFFCURVE",
"-173 -163 OFFCURVE",
"-129 -163 CURVE SMOOTH",
"-96 -163 OFFCURVE",
"-90 -188 OFFCURVE",
"-73 -188 CURVE SMOOTH",
"-57 -188 OFFCURVE",
"-20 -158 OFFCURVE",
"-20 -130 CURVE SMOOTH",
"-20 -105 OFFCURVE",
"-42 -92 OFFCURVE",
"-80 -92 CURVE SMOOTH",
"-201 -92 OFFCURVE",
"-292 -203 OFFCURVE",
"-292 -260 CURVE SMOOTH",
"-292 -296 OFFCURVE",
"-268 -316 OFFCURVE",
"-225 -316 CURVE SMOOTH",
"-183 -316 OFFCURVE",
"-143 -294 OFFCURVE",
"-111 -294 CURVE SMOOTH",
"-82 -294 OFFCURVE",
"-70 -306 OFFCURVE",
"-70 -320 CURVE SMOOTH",
"-70 -344 OFFCURVE",
"-105 -370 OFFCURVE",
"-162 -370 CURVE SMOOTH",
"-211 -370 OFFCURVE",
"-243 -344 OFFCURVE",
"-257 -344 CURVE SMOOTH",
"-275 -344 OFFCURVE",
"-299 -374 OFFCURVE",
"-299 -396 CURVE SMOOTH",
"-299 -424 OFFCURVE",
"-267 -441 OFFCURVE",
"-214 -441 CURVE SMOOTH"
);
}
);
width = 0;
}
);
leftKerningGroup = tlKAc2;
rightKerningGroup = tlKAc2;
script = telugu;
category = Mark;
subCategory = "Spacing Combining";
},
{
color = 8;
glyphname = tlKAc2.following;
lastChange = "2015-12-20 15:24:00 +0000";
layers = (
{
background = {
paths = (
{
closed = 1;
nodes = (
"235 -88 OFFCURVE",
"263 -86 OFFCURVE",
"294 -85 CURVE SMOOTH",
"426 -78 OFFCURVE",
"500 -83 OFFCURVE",
"515 -83 CURVE SMOOTH",
"551 -81 OFFCURVE",
"588 -25 OFFCURVE",
"586 -9 CURVE SMOOTH",
"586 -2 OFFCURVE",
"579 2 OFFCURVE",
"574 2 CURVE",
"480 0 OFFCURVE",
"314 -5 OFFCURVE",
"210 -9 CURVE",
"210 -90 LINE"
);
}
);
};
layerId = "59118767-2CA9-48AA-9373-694D24C960D8";
name = Regular;
paths = (
{
closed = 1;
nodes = (
"358 -450 OFFCURVE",
"447 -316 OFFCURVE",
"447 -200 CURVE SMOOTH",
"447 -152 OFFCURVE",
"434 -103 OFFCURVE",
"406 -59 CURVE",
"378 -99 LINE",
"518 -83 LINE SMOOTH",
"544 -80 OFFCURVE",
"586 -38 OFFCURVE",
"586 -6 CURVE SMOOTH",
"586 6 OFFCURVE",
"576 4 OFFCURVE",
"548 1 CURVE SMOOTH",
"484 -6 OFFCURVE",
"406 -16 OFFCURVE",
"336 -26 CURVE SMOOTH",
"283 -34 OFFCURVE",
"262 -46 OFFCURVE",
"253 -74 CURVE SMOOTH",
"246 -94 OFFCURVE",
"245 -114 OFFCURVE",
"256 -114 CURVE SMOOTH",
"339 -113 OFFCURVE",
"373 -170 OFFCURVE",
"373 -229 CURVE SMOOTH",
"373 -300 OFFCURVE",
"334 -356 OFFCURVE",
"258 -356 CURVE SMOOTH",
"189 -356 OFFCURVE",
"133 -304 OFFCURVE",
"133 -229 CURVE SMOOTH",
"133 -47 OFFCURVE",
"284 103 OFFCURVE",
"284 373 CURVE SMOOTH",
"284 437 OFFCURVE",
"274 498 OFFCURVE",
"253 552 CURVE SMOOTH",
"235 597 OFFCURVE",
"214 613 OFFCURVE",
"193 613 CURVE SMOOTH",
"170 613 OFFCURVE",
"148 593 OFFCURVE",
"134 567 CURVE SMOOTH",
"117 535 OFFCURVE",
"122 532 OFFCURVE",
"142 492 CURVE SMOOTH",
"164 450 OFFCURVE",
"187 389 OFFCURVE",
"187 295 CURVE SMOOTH",
"187 51 OFFCURVE",
"50 -92 OFFCURVE",
"50 -273 CURVE SMOOTH",
"50 -379 OFFCURVE",
"120 -450 OFFCURVE",
"222 -450 CURVE SMOOTH"
);
}
);
width = 576;
},
{
associatedMasterId = "59118767-2CA9-48AA-9373-694D24C960D8";
background = {
paths = (
{
closed = 1;
nodes = (
"135 -88 OFFCURVE",
"163 -86 OFFCURVE",
"194 -85 CURVE SMOOTH",
"326 -78 OFFCURVE",
"400 -83 OFFCURVE",
"415 -83 CURVE SMOOTH",
"451 -81 OFFCURVE",
"488 -25 OFFCURVE",
"486 -9 CURVE SMOOTH",
"486 -2 OFFCURVE",
"479 2 OFFCURVE",
"474 2 CURVE",
"380 0 OFFCURVE",
"214 -5 OFFCURVE",
"110 -9 CURVE",
"110 -90 LINE"
);
}
);
};
layerId = "8994C05F-FBF1-4743-97D8-D9403EE917CC";
name = "Regular Dec 8 15, 12:12";
paths = (
{
closed = 1;
nodes = (
"258 -450 OFFCURVE",
"347 -316 OFFCURVE",
"347 -200 CURVE SMOOTH",
"347 -152 OFFCURVE",
"334 -103 OFFCURVE",
"306 -59 CURVE",
"278 -97 LINE",
"437 -81 LINE SMOOTH",
"484 -76 OFFCURVE",
"487 4 OFFCURVE",
"448 0 CURVE SMOOTH",
"384 -6 OFFCURVE",
"306 -16 OFFCURVE",
"236 -26 CURVE SMOOTH",
"183 -34 OFFCURVE",
"162 -46 OFFCURVE",
"153 -74 CURVE SMOOTH",
"146 -94 OFFCURVE",
"145 -114 OFFCURVE",
"156 -114 CURVE SMOOTH",
"239 -113 OFFCURVE",
"273 -170 OFFCURVE",
"273 -229 CURVE SMOOTH",
"273 -300 OFFCURVE",
"234 -356 OFFCURVE",
"158 -356 CURVE SMOOTH",
"89 -356 OFFCURVE",
"33 -304 OFFCURVE",
"33 -229 CURVE SMOOTH",
"33 -47 OFFCURVE",
"184 103 OFFCURVE",
"184 373 CURVE SMOOTH",
"184 437 OFFCURVE",
"174 498 OFFCURVE",
"153 552 CURVE SMOOTH",
"135 597 OFFCURVE",
"114 613 OFFCURVE",
"93 613 CURVE SMOOTH",
"70 613 OFFCURVE",
"48 593 OFFCURVE",
"34 567 CURVE SMOOTH",
"17 535 OFFCURVE",
"22 532 OFFCURVE",
"42 492 CURVE SMOOTH",
"64 450 OFFCURVE",
"87 389 OFFCURVE",
"87 295 CURVE SMOOTH",
"87 51 OFFCURVE",
"-50 -92 OFFCURVE",
"-50 -273 CURVE SMOOTH",
"-50 -379 OFFCURVE",
"20 -450 OFFCURVE",
"122 -450 CURVE SMOOTH"
);
}
);
width = 445;
}
);
leftKerningGroup = tlKAc2;
rightKerningGroup = tlKAc2;
script = telugu;
category = Mark;
subCategory = "Spacing Combining";
},
{
color = 7;
glyphname = tlKHAc2;
lastChange = "2015-12-19 07:55:52 +0000";
layers = (
{
anchors = (
{
name = _bottom;
position = "{-233, 0}";
},
{
name = bottom;
position = "{-233, -528}";
}
);
guideLines = (
{
position = "{2666, -473}";
}
);
layerId = "59118767-2CA9-48AA-9373-694D24C960D8";
name = Regular;
paths = (
{
closed = 1;
nodes = (
"-348 -438 OFFCURVE",
"-275 -401 OFFCURVE",
"-231 -349 CURVE SMOOTH",
"-191 -302 OFFCURVE",
"-171 -250 OFFCURVE",
"-171 -205 CURVE SMOOTH",
"-171 -142 OFFCURVE",
"-211 -94 OFFCURVE",
"-291 -94 CURVE SMOOTH",
"-340 -94 OFFCURVE",
"-383 -114 OFFCURVE",
"-413 -144 CURVE",
"-444 -181 OFFCURVE",
"-404 -207 OFFCURVE",
"-374 -182 CURVE",
"-356 -168 OFFCURVE",
"-336 -160 OFFCURVE",
"-316 -160 CURVE SMOOTH",
"-267 -160 OFFCURVE",
"-232 -198 OFFCURVE",
"-232 -247 CURVE SMOOTH",
"-232 -261 OFFCURVE",
"-234 -276 OFFCURVE",
"-241 -291 CURVE",
"-272 -265 OFFCURVE",
"-299 -247 OFFCURVE",
"-338 -247 CURVE SMOOTH",
"-404 -247 OFFCURVE",
"-466 -304 OFFCURVE",
"-466 -375 CURVE SMOOTH",
"-466 -419 OFFCURVE",
"-438 -438 OFFCURVE",
"-401 -438 CURVE SMOOTH"
);
},
{
closed = 1;
nodes = (
"-252 -530 OFFCURVE",
"-229 -509 OFFCURVE",
"-229 -489 CURVE SMOOTH",
"-229 -467 OFFCURVE",
"-245 -418 OFFCURVE",
"-261 -418 CURVE SMOOTH",
"-278 -418 OFFCURVE",
"-308 -462 OFFCURVE",
"-308 -490 CURVE SMOOTH",
"-308 -510 OFFCURVE",
"-293 -530 OFFCURVE",
"-273 -530 CURVE SMOOTH"
);
},
{
closed = 1;
nodes = (
"-397 -373 OFFCURVE",
"-410 -363 OFFCURVE",
"-410 -350 CURVE SMOOTH",
"-410 -331 OFFCURVE",
"-391 -306 OFFCURVE",
"-356 -306 CURVE SMOOTH",
"-332 -306 OFFCURVE",
"-305 -320 OFFCURVE",
"-283 -339 CURVE",
"-311 -360 OFFCURVE",
"-346 -373 OFFCURVE",
"-379 -373 CURVE SMOOTH"
);
},
{
closed = 1;
nodes = (
"-61 -434 OFFCURVE",
"0 -349 OFFCURVE",
"0 -256 CURVE SMOOTH",
"0 -160 OFFCURVE",
"-36 -95 OFFCURVE",
"-75 -95 CURVE SMOOTH",
"-100 -95 OFFCURVE",
"-126 -134 OFFCURVE",
"-126 -158 CURVE SMOOTH",
"-126 -168 OFFCURVE",
"-121 -173 OFFCURVE",
"-117 -176 CURVE SMOOTH",
"-92 -197 OFFCURVE",
"-61 -236 OFFCURVE",
"-61 -297 CURVE SMOOTH",
"-61 -340 OFFCURVE",
"-91 -369 OFFCURVE",
"-134 -369 CURVE SMOOTH",
"-173 -369 OFFCURVE",
"-218 -337 OFFCURVE",
"-231 -304 CURVE",
"-273 -350 LINE",
"-258 -398 OFFCURVE",
"-207 -434 OFFCURVE",
"-161 -434 CURVE SMOOTH"
);
}
);
width = 0;
}
);
leftKerningGroup = tlKHAc2;
rightKerningGroup = tlKHAc2;
script = telugu;
category = Mark;
subCategory = Nonspacing;
},
{
color = 8;
glyphname = tlKHAc2.following;
lastChange = "2015-12-18 15:28:33 +0000";
layers = (
{
guideLines = (
{
position = "{3182, -473}";
}
);
layerId = "59118767-2CA9-48AA-9373-694D24C960D8";
name = Regular;
paths = (
{
closed = 1;
nodes = (
"168 -438 OFFCURVE",
"241 -401 OFFCURVE",
"285 -349 CURVE SMOOTH",
"325 -302 OFFCURVE",
"345 -250 OFFCURVE",
"345 -205 CURVE SMOOTH",
"345 -142 OFFCURVE",
"305 -94 OFFCURVE",
"225 -94 CURVE SMOOTH",
"176 -94 OFFCURVE",
"133 -114 OFFCURVE",
"103 -144 CURVE",
"72 -181 OFFCURVE",
"112 -207 OFFCURVE",
"142 -182 CURVE",
"160 -168 OFFCURVE",
"180 -160 OFFCURVE",
"200 -160 CURVE SMOOTH",
"249 -160 OFFCURVE",
"284 -198 OFFCURVE",
"284 -247 CURVE SMOOTH",
"284 -261 OFFCURVE",
"282 -276 OFFCURVE",
"275 -291 CURVE",
"244 -265 OFFCURVE",
"217 -247 OFFCURVE",
"178 -247 CURVE SMOOTH",
"112 -247 OFFCURVE",
"50 -304 OFFCURVE",
"50 -375 CURVE SMOOTH",
"50 -419 OFFCURVE",
"78 -438 OFFCURVE",
"115 -438 CURVE SMOOTH"
);
},
{
closed = 1;
nodes = (
"264 -530 OFFCURVE",
"287 -509 OFFCURVE",
"287 -489 CURVE SMOOTH",
"287 -467 OFFCURVE",
"271 -418 OFFCURVE",
"255 -418 CURVE SMOOTH",
"238 -418 OFFCURVE",
"208 -462 OFFCURVE",
"208 -490 CURVE SMOOTH",
"208 -510 OFFCURVE",
"223 -530 OFFCURVE",
"243 -530 CURVE SMOOTH"
);
},
{
closed = 1;
nodes = (
"119 -373 OFFCURVE",
"106 -363 OFFCURVE",
"106 -350 CURVE SMOOTH",
"106 -331 OFFCURVE",
"125 -306 OFFCURVE",
"160 -306 CURVE SMOOTH",
"184 -306 OFFCURVE",
"211 -320 OFFCURVE",
"233 -339 CURVE",
"205 -360 OFFCURVE",
"170 -373 OFFCURVE",
"137 -373 CURVE SMOOTH"
);
},
{
closed = 1;
nodes = (
"455 -434 OFFCURVE",
"516 -349 OFFCURVE",
"516 -256 CURVE SMOOTH",
"516 -160 OFFCURVE",
"480 -95 OFFCURVE",
"441 -95 CURVE SMOOTH",
"416 -95 OFFCURVE",
"390 -134 OFFCURVE",
"390 -158 CURVE SMOOTH",
"390 -168 OFFCURVE",
"395 -173 OFFCURVE",
"399 -176 CURVE SMOOTH",
"424 -197 OFFCURVE",
"455 -236 OFFCURVE",
"455 -297 CURVE SMOOTH",
"455 -340 OFFCURVE",
"425 -369 OFFCURVE",
"382 -369 CURVE SMOOTH",
"343 -369 OFFCURVE",
"298 -337 OFFCURVE",
"285 -304 CURVE",
"243 -350 LINE",
"258 -398 OFFCURVE",
"309 -434 OFFCURVE",
"355 -434 CURVE SMOOTH"
);
}
);
width = 516;
}
);
leftKerningGroup = tlKHAc2;
rightKerningGroup = tlKHAc2;
script = telugu;
category = Mark;
subCategory = Spacing;
},
{
color = 7;
glyphname = tlGAc2;
lastChange = "2015-12-19 07:55:59 +0000";
layers = (
{
anchors = (
{
name = _bottom;
position = "{-197, 0}";
},
{
name = bottom;
position = "{-197, -438}";
}
);
layerId = "59118767-2CA9-48AA-9373-694D24C960D8";
name = Regular;
paths = (
{
closed = 1;
nodes = (
"-53 -438 OFFCURVE",
"-14 -398 OFFCURVE",
"-10 -379 CURVE SMOOTH",
"-3 -349 OFFCURVE",
"0 -319 OFFCURVE",
"0 -290 CURVE SMOOTH",
"0 -180 OFFCURVE",
"-51 -94 OFFCURVE",
"-158 -94 CURVE SMOOTH",
"-294 -94 OFFCURVE",
"-395 -273 OFFCURVE",
"-395 -415 CURVE SMOOTH",
"-395 -427 OFFCURVE",
"-390 -434 OFFCURVE",
"-381 -434 CURVE SMOOTH",
"-359 -434 OFFCURVE",
"-307 -387 OFFCURVE",
"-307 -349 CURVE SMOOTH",
"-307 -252 OFFCURVE",
"-250 -187 OFFCURVE",
"-177 -187 CURVE SMOOTH",
"-131 -187 OFFCURVE",
"-75 -240 OFFCURVE",
"-75 -324 CURVE SMOOTH",
"-75 -371 OFFCURVE",
"-84 -405 OFFCURVE",
"-84 -422 CURVE SMOOTH",
"-84 -432 OFFCURVE",
"-79 -438 OFFCURVE",
"-71 -438 CURVE SMOOTH"
);
}
);
width = 0;
}
);
script = telugu;
category = Mark;
subCategory = Nonspacing;
},
{
color = 8;
glyphname = tlGAc2.following;
lastChange = "2015-12-18 15:29:23 +0000";
layers = (
{
layerId = "59118767-2CA9-48AA-9373-694D24C960D8";
name = Regular;
paths = (
{
closed = 1;
nodes = (
"392 -438 OFFCURVE",
"431 -398 OFFCURVE",
"435 -379 CURVE SMOOTH",
"442 -349 OFFCURVE",
"445 -319 OFFCURVE",
"445 -290 CURVE SMOOTH",
"445 -180 OFFCURVE",
"394 -94 OFFCURVE",
"287 -94 CURVE SMOOTH",
"151 -94 OFFCURVE",
"50 -273 OFFCURVE",
"50 -415 CURVE SMOOTH",
"50 -427 OFFCURVE",
"55 -434 OFFCURVE",
"64 -434 CURVE SMOOTH",
"86 -434 OFFCURVE",
"138 -387 OFFCURVE",
"138 -349 CURVE SMOOTH",
"138 -252 OFFCURVE",
"195 -187 OFFCURVE",
"268 -187 CURVE SMOOTH",
"314 -187 OFFCURVE",
"370 -240 OFFCURVE",
"370 -324 CURVE SMOOTH",
"370 -371 OFFCURVE",
"361 -405 OFFCURVE",
"361 -422 CURVE SMOOTH",
"361 -432 OFFCURVE",
"366 -438 OFFCURVE",
"374 -438 CURVE SMOOTH"
);
}
);
width = 445;
}
);
script = telugu;
category = Mark;
subCategory = Spacing;
},
{
color = 7;
glyphname = tlGHAc2;
lastChange = "2015-12-19 07:56:09 +0000";
layers = (
{
anchors = (
{
name = _bottom;
position = "{-280, 0}";
},
{
name = bottom;
position = "{-280, -438}";
}
);
layerId = "59118767-2CA9-48AA-9373-694D24C960D8";
name = Regular;
paths = (
{
closed = 1;
nodes = (
"-78 -438 OFFCURVE",
"0 -368 OFFCURVE",
"0 -256 CURVE SMOOTH",
"0 -160 OFFCURVE",
"-36 -95 OFFCURVE",
"-75 -95 CURVE SMOOTH",
"-100 -95 OFFCURVE",
"-126 -134 OFFCURVE",
"-126 -158 CURVE SMOOTH",
"-126 -168 OFFCURVE",
"-121 -173 OFFCURVE",
"-117 -176 CURVE SMOOTH",
"-92 -197 OFFCURVE",
"-57 -236 OFFCURVE",
"-57 -297 CURVE SMOOTH",
"-57 -344 OFFCURVE",
"-93 -370 OFFCURVE",
"-128 -370 CURVE SMOOTH",
"-161 -370 OFFCURVE",
"-193 -347 OFFCURVE",
"-193 -296 CURVE",
"-240 -355 LINE",
"-232 -401 OFFCURVE",
"-202 -438 OFFCURVE",
"-153 -438 CURVE SMOOTH"
);
},
{
closed = 1;
nodes = (
"-395 -540 OFFCURVE",
"-368 -515 OFFCURVE",
"-373 -494 CURVE SMOOTH",
"-375 -482 OFFCURVE",
"-377 -471 OFFCURVE",
"-383 -457 CURVE SMOOTH",
"-389 -440 OFFCURVE",
"-397 -428 OFFCURVE",
"-406 -428 CURVE SMOOTH",
"-413 -428 OFFCURVE",
"-423 -435 OFFCURVE",
"-434 -452 CURVE SMOOTH",
"-445 -467 OFFCURVE",
"-455 -481 OFFCURVE",
"-455 -500 CURVE SMOOTH",
"-455 -520 OFFCURVE",
"-436 -540 OFFCURVE",
"-417 -540 CURVE SMOOTH"
);
},
{
closed = 1;
nodes = (
"-426 -438 OFFCURVE",
"-343 -351 OFFCURVE",
"-343 -282 CURVE SMOOTH",
"-343 -242 OFFCURVE",
"-366 -213 OFFCURVE",
"-405 -213 CURVE SMOOTH",
"-495 -213 OFFCURVE",
"-561 -301 OFFCURVE",
"-561 -373 CURVE SMOOTH",
"-561 -419 OFFCURVE",
"-532 -438 OFFCURVE",
"-497 -438 CURVE SMOOTH"
);
},
{
closed = 1;
nodes = (
"-485 -367 OFFCURVE",
"-500 -352 OFFCURVE",
"-500 -336 CURVE SMOOTH",
"-500 -301 OFFCURVE",
"-468 -284 OFFCURVE",
"-438 -284 CURVE SMOOTH",
"-420 -284 OFFCURVE",
"-401 -290 OFFCURVE",
"-390 -303 CURVE",
"-397 -338 OFFCURVE",
"-428 -367 OFFCURVE",
"-461 -367 CURVE SMOOTH"
);
},
{
closed = 1;
nodes = (
"-246 -438 OFFCURVE",
"-165 -352 OFFCURVE",
"-165 -256 CURVE SMOOTH",
"-165 -160 OFFCURVE",
"-203 -95 OFFCURVE",
"-243 -95 CURVE SMOOTH",
"-269 -95 OFFCURVE",
"-297 -134 OFFCURVE",
"-297 -158 CURVE SMOOTH",
"-297 -168 OFFCURVE",
"-291 -173 OFFCURVE",
"-287 -176 CURVE SMOOTH",
"-261 -197 OFFCURVE",
"-225 -232 OFFCURVE",
"-225 -297 CURVE SMOOTH",
"-225 -342 OFFCURVE",
"-262 -366 OFFCURVE",
"-285 -366 CURVE SMOOTH",
"-328 -366 OFFCURVE",
"-342 -342 OFFCURVE",
"-353 -307 CURVE",
"-396 -387 LINE",
"-381 -420 OFFCURVE",
"-354 -438 OFFCURVE",
"-315 -438 CURVE SMOOTH"
);
}
);
width = 0;
}
);
script = telugu;
category = Mark;
subCategory = Nonspacing;
},
{
color = 8;
glyphname = tlGHAc2.following;
lastChange = "2015-12-16 10:37:38 +0000";
layers = (
{
layerId = "59118767-2CA9-48AA-9373-694D24C960D8";
name = Regular;
paths = (
{
closed = 1;
nodes = (
"533 -438 OFFCURVE",
"611 -368 OFFCURVE",
"611 -256 CURVE SMOOTH",
"611 -160 OFFCURVE",
"575 -95 OFFCURVE",
"536 -95 CURVE SMOOTH",
"511 -95 OFFCURVE",
"485 -134 OFFCURVE",
"485 -158 CURVE SMOOTH",
"485 -168 OFFCURVE",
"490 -173 OFFCURVE",
"494 -176 CURVE SMOOTH",
"519 -197 OFFCURVE",
"554 -236 OFFCURVE",
"554 -297 CURVE SMOOTH",
"554 -344 OFFCURVE",
"518 -370 OFFCURVE",
"483 -370 CURVE SMOOTH",
"450 -370 OFFCURVE",
"418 -347 OFFCURVE",
"418 -296 CURVE",
"371 -355 LINE",
"379 -401 OFFCURVE",
"409 -438 OFFCURVE",
"458 -438 CURVE SMOOTH"
);
},
{
closed = 1;
nodes = (
"216 -540 OFFCURVE",
"243 -515 OFFCURVE",
"238 -494 CURVE SMOOTH",
"236 -482 OFFCURVE",
"234 -471 OFFCURVE",
"228 -457 CURVE SMOOTH",
"222 -440 OFFCURVE",
"214 -428 OFFCURVE",
"205 -428 CURVE SMOOTH",
"198 -428 OFFCURVE",
"188 -435 OFFCURVE",
"177 -452 CURVE SMOOTH",
"166 -467 OFFCURVE",
"156 -481 OFFCURVE",
"156 -500 CURVE SMOOTH",
"156 -520 OFFCURVE",
"175 -540 OFFCURVE",
"194 -540 CURVE SMOOTH"
);
},
{
closed = 1;
nodes = (
"185 -438 OFFCURVE",
"268 -351 OFFCURVE",
"268 -282 CURVE SMOOTH",
"268 -242 OFFCURVE",
"245 -213 OFFCURVE",
"206 -213 CURVE SMOOTH",
"116 -213 OFFCURVE",
"50 -301 OFFCURVE",
"50 -373 CURVE SMOOTH",
"50 -419 OFFCURVE",
"79 -438 OFFCURVE",
"114 -438 CURVE SMOOTH"
);
},
{
closed = 1;
nodes = (
"126 -367 OFFCURVE",
"111 -352 OFFCURVE",
"111 -336 CURVE SMOOTH",
"111 -301 OFFCURVE",
"143 -284 OFFCURVE",
"173 -284 CURVE SMOOTH",
"191 -284 OFFCURVE",
"210 -290 OFFCURVE",
"221 -303 CURVE",
"214 -338 OFFCURVE",
"183 -367 OFFCURVE",
"150 -367 CURVE SMOOTH"
);
},
{
closed = 1;
nodes = (
"365 -438 OFFCURVE",
"446 -352 OFFCURVE",
"446 -256 CURVE SMOOTH",
"446 -160 OFFCURVE",
"408 -95 OFFCURVE",
"368 -95 CURVE SMOOTH",
"342 -95 OFFCURVE",
"314 -134 OFFCURVE",
"314 -158 CURVE SMOOTH",
"314 -168 OFFCURVE",
"320 -173 OFFCURVE",
"324 -176 CURVE SMOOTH",
"350 -197 OFFCURVE",
"386 -232 OFFCURVE",
"386 -297 CURVE SMOOTH",
"386 -342 OFFCURVE",
"349 -366 OFFCURVE",
"326 -366 CURVE SMOOTH",
"283 -366 OFFCURVE",
"269 -342 OFFCURVE",
"258 -307 CURVE",
"215 -387 LINE",
"230 -420 OFFCURVE",
"257 -438 OFFCURVE",
"296 -438 CURVE SMOOTH"
);
}
);
width = 611;
}
);
script = telugu;
category = Mark;
subCategory = Spacing;
},
{
color = 7;
glyphname = tlNGAc2;
lastChange = "2015-12-19 09:31:25 +0000";
layers = (
{
anchors = (
{
name = _bottom;
position = "{-219, 0}";
},
{
name = bottom;
position = "{-219, -438}";
}
);
layerId = "59118767-2CA9-48AA-9373-694D24C960D8";
name = Regular;
paths = (
{
closed = 1;
nodes = (
"-298 -438 OFFCURVE",
"-238 -400 OFFCURVE",
"-189 -344 CURVE",
"-181 -336 OFFCURVE",
"-174 -329 OFFCURVE",
"-174 -320 CURVE SMOOTH",
"-174 -308 OFFCURVE",
"-181 -300 OFFCURVE",
"-194 -300 CURVE SMOOTH",
"-204 -300 OFFCURVE",
"-211 -304 OFFCURVE",
"-226 -319 CURVE SMOOTH",
"-243 -337 OFFCURVE",
"-273 -369 OFFCURVE",
"-303 -369 CURVE SMOOTH",
"-318 -369 OFFCURVE",
"-325 -362 OFFCURVE",
"-325 -346 CURVE SMOOTH",
"-325 -288 OFFCURVE",
"-226 -236 OFFCURVE",
"-226 -159 CURVE SMOOTH",
"-226 -118 OFFCURVE",
"-253 -95 OFFCURVE",
"-299 -95 CURVE SMOOTH",
"-384 -95 OFFCURVE",
"-438 -167 OFFCURVE",
"-438 -220 CURVE SMOOTH",
"-438 -260 OFFCURVE",
"-410 -285 OFFCURVE",
"-367 -285 CURVE SMOOTH",
"-362 -285 OFFCURVE",
"-358 -285 OFFCURVE",
"-354 -284 CURVE",
"-383 -317 OFFCURVE",
"-416 -352 OFFCURVE",
"-416 -387 CURVE SMOOTH",
"-416 -418 OFFCURVE",
"-391 -438 OFFCURVE",
"-353 -438 CURVE SMOOTH"
);
},
{
closed = 1;
nodes = (
"-356 -232 OFFCURVE",
"-373 -217 OFFCURVE",
"-373 -192 CURVE SMOOTH",
"-373 -170 OFFCURVE",
"-358 -154 OFFCURVE",
"-336 -154 CURVE SMOOTH",
"-317 -154 OFFCURVE",
"-305 -170 OFFCURVE",
"-305 -194 CURVE SMOOTH",
"-305 -205 OFFCURVE",
"-307 -218 OFFCURVE",
"-315 -231 CURVE",
"-320 -232 OFFCURVE",
"-325 -232 OFFCURVE",
"-330 -232 CURVE SMOOTH"
);
},
{
closed = 1;
nodes = (
"-66 -438 OFFCURVE",
"0 -347 OFFCURVE",
"0 -294 CURVE SMOOTH",
"0 -274 OFFCURVE",
"-10 -259 OFFCURVE",
"-35 -259 CURVE SMOOTH",
"-71 -259 OFFCURVE",
"-90 -297 OFFCURVE",
"-90 -310 CURVE SMOOTH",
"-90 -315 OFFCURVE",
"-87 -318 OFFCURVE",
"-84 -321 CURVE SMOOTH",
"-75 -328 OFFCURVE",
"-72 -335 OFFCURVE",
"-72 -342 CURVE SMOOTH",
"-72 -355 OFFCURVE",
"-89 -366 OFFCURVE",
"-111 -366 CURVE SMOOTH",
"-145 -366 OFFCURVE",
"-174 -354 OFFCURVE",
"-174 -317 CURVE",
"-237 -371 LINE",
"-219 -415 OFFCURVE",
"-188 -438 OFFCURVE",
"-145 -438 CURVE SMOOTH"
);
},
{
closed = 1;
nodes = (
"-245 -266 OFFCURVE",
"-178 -265 OFFCURVE",
"-137 -264 CURVE SMOOTH",
"-114 -263 OFFCURVE",
"-85 -232 OFFCURVE",
"-85 -218 CURVE SMOOTH",
"-85 -210 OFFCURVE",
"-92 -206 OFFCURVE",
"-100 -206 CURVE SMOOTH",
"-172 -207 OFFCURVE",
"-210 -209 OFFCURVE",
"-288 -212 CURVE",
"-288 -267 LINE"
);
},
{
closed = 1;
nodes = (
"-153 -186 OFFCURVE",
"-113 -131 OFFCURVE",
"-113 -106 CURVE SMOOTH",
"-113 -86 OFFCURVE",
"-132 -66 OFFCURVE",
"-152 -66 CURVE SMOOTH",
"-173 -66 OFFCURVE",
"-199 -87 OFFCURVE",
"-199 -107 CURVE SMOOTH",
"-199 -121 OFFCURVE",
"-178 -186 OFFCURVE",
"-164 -186 CURVE SMOOTH"
);
}
);
width = 0;
}
);
script = telugu;
category = Mark;
subCategory = Nonspacing;
},
{
color = 8;
glyphname = tlNGAc2.following;
lastChange = "2015-12-16 10:37:38 +0000";
layers = (
{
layerId = "59118767-2CA9-48AA-9373-694D24C960D8";
name = Regular;
paths = (
{
closed = 1;
nodes = (
"190 -438 OFFCURVE",
"250 -400 OFFCURVE",
"299 -344 CURVE",
"307 -336 OFFCURVE",
"314 -329 OFFCURVE",
"314 -320 CURVE SMOOTH",
"314 -308 OFFCURVE",
"307 -300 OFFCURVE",
"294 -300 CURVE SMOOTH",
"284 -300 OFFCURVE",
"277 -304 OFFCURVE",
"262 -319 CURVE SMOOTH",
"245 -337 OFFCURVE",
"215 -369 OFFCURVE",
"185 -369 CURVE SMOOTH",
"170 -369 OFFCURVE",
"163 -362 OFFCURVE",
"163 -346 CURVE SMOOTH",
"163 -288 OFFCURVE",
"262 -236 OFFCURVE",
"262 -159 CURVE SMOOTH",
"262 -118 OFFCURVE",
"235 -95 OFFCURVE",
"189 -95 CURVE SMOOTH",
"104 -95 OFFCURVE",
"50 -167 OFFCURVE",
"50 -220 CURVE SMOOTH",
"50 -260 OFFCURVE",
"78 -285 OFFCURVE",
"121 -285 CURVE SMOOTH",
"126 -285 OFFCURVE",
"130 -285 OFFCURVE",
"134 -284 CURVE",
"105 -317 OFFCURVE",
"72 -352 OFFCURVE",
"72 -387 CURVE SMOOTH",
"72 -418 OFFCURVE",
"97 -438 OFFCURVE",
"135 -438 CURVE SMOOTH"
);
},
{
closed = 1;
nodes = (
"132 -232 OFFCURVE",
"115 -217 OFFCURVE",
"115 -192 CURVE SMOOTH",
"115 -170 OFFCURVE",
"130 -154 OFFCURVE",
"152 -154 CURVE SMOOTH",
"171 -154 OFFCURVE",
"183 -170 OFFCURVE",
"183 -194 CURVE SMOOTH",
"183 -205 OFFCURVE",
"181 -218 OFFCURVE",
"173 -231 CURVE",
"168 -232 OFFCURVE",
"163 -232 OFFCURVE",
"158 -232 CURVE SMOOTH"
);
},
{
closed = 1;
nodes = (
"422 -438 OFFCURVE",
"488 -347 OFFCURVE",
"488 -294 CURVE SMOOTH",
"488 -274 OFFCURVE",
"478 -259 OFFCURVE",
"453 -259 CURVE SMOOTH",
"417 -259 OFFCURVE",
"398 -297 OFFCURVE",
"398 -310 CURVE SMOOTH",
"398 -315 OFFCURVE",
"401 -318 OFFCURVE",
"404 -321 CURVE SMOOTH",
"413 -328 OFFCURVE",
"416 -335 OFFCURVE",
"416 -342 CURVE SMOOTH",
"416 -355 OFFCURVE",
"399 -366 OFFCURVE",
"377 -366 CURVE SMOOTH",
"343 -366 OFFCURVE",
"314 -354 OFFCURVE",
"314 -317 CURVE",
"251 -371 LINE",
"269 -415 OFFCURVE",
"300 -438 OFFCURVE",
"343 -438 CURVE SMOOTH"
);
},
{
closed = 1;
nodes = (
"243 -266 OFFCURVE",
"310 -265 OFFCURVE",
"351 -264 CURVE SMOOTH",
"374 -263 OFFCURVE",
"403 -232 OFFCURVE",
"403 -218 CURVE SMOOTH",
"403 -210 OFFCURVE",
"396 -206 OFFCURVE",
"388 -206 CURVE SMOOTH",
"316 -207 OFFCURVE",
"278 -209 OFFCURVE",
"200 -212 CURVE",
"200 -267 LINE"
);
},
{
closed = 1;
nodes = (
"335 -186 OFFCURVE",
"375 -131 OFFCURVE",
"375 -106 CURVE SMOOTH",
"375 -86 OFFCURVE",
"356 -66 OFFCURVE",
"336 -66 CURVE SMOOTH",
"315 -66 OFFCURVE",
"289 -87 OFFCURVE",
"289 -107 CURVE SMOOTH",
"289 -121 OFFCURVE",
"310 -186 OFFCURVE",
"324 -186 CURVE SMOOTH"
);
}
);
width = 488;
}
);
script = telugu;
category = Mark;
subCategory = Spacing;
},
{
color = 7;
glyphname = tlCAc2;
lastChange = "2015-12-16 08:18:14 +0000";
layers = (
{
guideLines = (
{
position = "{244, -337}";
}
);
layerId = "59118767-2CA9-48AA-9373-694D24C960D8";
name = Regular;
paths = (
{
closed = 1;
nodes = (
"236 -438 OFFCURVE",
"290 -303 OFFCURVE",
"290 -111 CURVE SMOOTH",
"290 81 OFFCURVE",
"223 404 OFFCURVE",
"135 555 CURVE SMOOTH",
"118 584 OFFCURVE",
"92 599 OFFCURVE",
"71 599 CURVE SMOOTH",
"54 599 OFFCURVE",
"34 587 OFFCURVE",
"19 558 CURVE SMOOTH",
"12 544 OFFCURVE",
"8 534 OFFCURVE",
"8 525 CURVE SMOOTH",
"8 509 OFFCURVE",
"23 499 OFFCURVE",
"61 432 CURVE SMOOTH",
"147 278 OFFCURVE",
"215 23 OFFCURVE",
"215 -183 CURVE SMOOTH",
"215 -295 OFFCURVE",
"187 -366 OFFCURVE",
"128 -366 CURVE SMOOTH",
"93 -366 OFFCURVE",
"70 -328 OFFCURVE",
"63 -280 CURVE",
"-6 -350 LINE",
"7 -404 OFFCURVE",
"57 -438 OFFCURVE",
"108 -438 CURVE SMOOTH"
);
},
{
closed = 1;
nodes = (
"-73 -438 OFFCURVE",
"14 -398 OFFCURVE",
"59 -309 CURVE",
"63 -301 OFFCURVE",
"63 -283 OFFCURVE",
"63 -280 CURVE SMOOTH",
"63 -271 OFFCURVE",
"55 -263 OFFCURVE",
"45 -263 CURVE SMOOTH",
"36 -263 OFFCURVE",
"24 -268 OFFCURVE",
"18 -280 CURVE SMOOTH",
"-7 -332 OFFCURVE",
"-45 -368 OFFCURVE",
"-73 -368 CURVE SMOOTH",
"-98 -368 OFFCURVE",
"-105 -350 OFFCURVE",
"-105 -325 CURVE SMOOTH",
"-105 -250 OFFCURVE",
"-4 -160 OFFCURVE",
"-4 -144 CURVE SMOOTH",
"-4 -132 OFFCURVE",
"-13 -126 OFFCURVE",
"-29 -126 CURVE SMOOTH",
"-102 -126 OFFCURVE",
"-154 -127 OFFCURVE",
"-166 -131 CURVE SMOOTH",
"-198 -143 OFFCURVE",
"-210 -188 OFFCURVE",
"-210 -198 CURVE SMOOTH",
"-210 -203 OFFCURVE",
"-205 -207 OFFCURVE",
"-196 -207 CURVE SMOOTH",
"-189 -207 OFFCURVE",
"-101 -202 OFFCURVE",
"-62 -199 CURVE",
"-70 -168 LINE",
"-78 -195 OFFCURVE",
"-189 -270 OFFCURVE",
"-189 -371 CURVE SMOOTH",
"-189 -415 OFFCURVE",
"-160 -438 OFFCURVE",
"-119 -438 CURVE SMOOTH"
);
}
);
width = 330;
}
);
script = telugu;
category = Mark;
subCategory = Spacing;
},
{
color = 8;
glyphname = tlCAc2.following;
lastChange = "2015-12-16 10:37:38 +0000";
layers = (
{
guideLines = (
{
position = "{504, -337}";
}
);
layerId = "59118767-2CA9-48AA-9373-694D24C960D8";
name = Regular;
paths = (
{
closed = 1;
nodes = (
"496 -438 OFFCURVE",
"550 -303 OFFCURVE",
"550 -111 CURVE SMOOTH",
"550 81 OFFCURVE",
"483 404 OFFCURVE",
"395 555 CURVE SMOOTH",
"378 584 OFFCURVE",
"352 599 OFFCURVE",
"331 599 CURVE SMOOTH",
"314 599 OFFCURVE",
"294 587 OFFCURVE",
"279 558 CURVE SMOOTH",
"272 544 OFFCURVE",
"268 534 OFFCURVE",
"268 525 CURVE SMOOTH",
"268 509 OFFCURVE",
"283 499 OFFCURVE",
"321 432 CURVE SMOOTH",
"407 278 OFFCURVE",
"475 23 OFFCURVE",
"475 -183 CURVE SMOOTH",
"475 -295 OFFCURVE",
"447 -366 OFFCURVE",
"388 -366 CURVE SMOOTH",
"353 -366 OFFCURVE",
"330 -328 OFFCURVE",
"323 -280 CURVE",
"254 -350 LINE",
"267 -404 OFFCURVE",
"317 -438 OFFCURVE",
"368 -438 CURVE SMOOTH"
);
},
{
closed = 1;
nodes = (
"187 -438 OFFCURVE",
"274 -398 OFFCURVE",
"319 -309 CURVE",
"323 -301 OFFCURVE",
"323 -283 OFFCURVE",
"323 -280 CURVE SMOOTH",
"323 -271 OFFCURVE",
"315 -263 OFFCURVE",
"305 -263 CURVE SMOOTH",
"296 -263 OFFCURVE",
"284 -268 OFFCURVE",
"278 -280 CURVE SMOOTH",
"253 -332 OFFCURVE",
"215 -368 OFFCURVE",
"187 -368 CURVE SMOOTH",
"162 -368 OFFCURVE",
"155 -350 OFFCURVE",
"155 -325 CURVE SMOOTH",
"155 -250 OFFCURVE",
"256 -160 OFFCURVE",
"256 -144 CURVE SMOOTH",
"256 -132 OFFCURVE",
"247 -126 OFFCURVE",
"231 -126 CURVE SMOOTH",
"158 -126 OFFCURVE",
"106 -127 OFFCURVE",
"94 -131 CURVE SMOOTH",
"62 -143 OFFCURVE",
"50 -188 OFFCURVE",
"50 -198 CURVE SMOOTH",
"50 -203 OFFCURVE",
"55 -207 OFFCURVE",
"64 -207 CURVE SMOOTH",
"71 -207 OFFCURVE",
"159 -202 OFFCURVE",
"198 -199 CURVE",
"190 -168 LINE",
"182 -195 OFFCURVE",
"71 -270 OFFCURVE",
"71 -371 CURVE SMOOTH",
"71 -415 OFFCURVE",
"100 -438 OFFCURVE",
"141 -438 CURVE SMOOTH"
);
}
);
width = 590;
}
);
script = telugu;
category = Mark;
subCategory = Spacing;
},
{
color = 7;
glyphname = tlCHAc2;
lastChange = "2015-12-16 08:18:15 +0000";
layers = (
{
layerId = "59118767-2CA9-48AA-9373-694D24C960D8";
name = Regular;
paths = (
{
closed = 1;
nodes = (
"236 -424 OFFCURVE",
"290 -289 OFFCURVE",
"290 -97 CURVE SMOOTH",
"290 95 OFFCURVE",
"223 418 OFFCURVE",
"135 569 CURVE SMOOTH",
"118 598 OFFCURVE",
"92 613 OFFCURVE",
"71 613 CURVE SMOOTH",
"54 613 OFFCURVE",
"34 601 OFFCURVE",
"19 572 CURVE SMOOTH",
"12 558 OFFCURVE",
"8 548 OFFCURVE",
"8 539 CURVE SMOOTH",
"8 523 OFFCURVE",
"23 513 OFFCURVE",
"61 446 CURVE SMOOTH",
"147 292 OFFCURVE",
"215 37 OFFCURVE",
"215 -169 CURVE SMOOTH",
"215 -281 OFFCURVE",
"187 -352 OFFCURVE",
"128 -352 CURVE SMOOTH",
"93 -352 OFFCURVE",
"70 -314 OFFCURVE",
"63 -266 CURVE",
"-6 -336 LINE",
"7 -390 OFFCURVE",
"57 -424 OFFCURVE",
"108 -424 CURVE SMOOTH"
);
},
{
closed = 1;
nodes = (
"19 -526 OFFCURVE",
"47 -501 OFFCURVE",
"42 -480 CURVE SMOOTH",
"40 -468 OFFCURVE",
"38 -457 OFFCURVE",
"32 -443 CURVE SMOOTH",
"25 -426 OFFCURVE",
"17 -414 OFFCURVE",
"8 -414 CURVE SMOOTH",
"0 -414 OFFCURVE",
"-10 -421 OFFCURVE",
"-22 -438 CURVE SMOOTH",
"-33 -453 OFFCURVE",
"-43 -467 OFFCURVE",
"-43 -486 CURVE SMOOTH",
"-43 -506 OFFCURVE",
"-24 -526 OFFCURVE",
"-4 -526 CURVE SMOOTH"
);
},
{
closed = 1;
nodes = (
"-73 -424 OFFCURVE",
"14 -384 OFFCURVE",
"59 -295 CURVE",
"63 -287 OFFCURVE",
"63 -269 OFFCURVE",
"63 -266 CURVE SMOOTH",
"63 -257 OFFCURVE",
"55 -249 OFFCURVE",
"45 -249 CURVE SMOOTH",
"36 -249 OFFCURVE",
"24 -254 OFFCURVE",
"18 -266 CURVE SMOOTH",
"-7 -318 OFFCURVE",
"-45 -354 OFFCURVE",
"-73 -354 CURVE SMOOTH",
"-98 -354 OFFCURVE",
"-105 -336 OFFCURVE",
"-105 -311 CURVE SMOOTH",
"-105 -236 OFFCURVE",
"-4 -146 OFFCURVE",
"-4 -130 CURVE SMOOTH",
"-4 -118 OFFCURVE",
"-13 -112 OFFCURVE",
"-29 -112 CURVE SMOOTH",
"-102 -112 OFFCURVE",
"-154 -113 OFFCURVE",
"-166 -117 CURVE SMOOTH",
"-198 -129 OFFCURVE",
"-210 -174 OFFCURVE",
"-210 -184 CURVE SMOOTH",
"-210 -189 OFFCURVE",
"-205 -193 OFFCURVE",
"-196 -193 CURVE SMOOTH",
"-189 -193 OFFCURVE",
"-101 -188 OFFCURVE",
"-62 -185 CURVE",
"-70 -154 LINE",
"-78 -181 OFFCURVE",
"-189 -256 OFFCURVE",
"-189 -357 CURVE SMOOTH",
"-189 -401 OFFCURVE",
"-160 -424 OFFCURVE",
"-119 -424 CURVE SMOOTH"
);
}
);
width = 330;
}
);
script = telugu;
category = Mark;
subCategory = Spacing;
},
{
color = 8;
glyphname = tlCHAc2.following;
lastChange = "2015-12-16 10:37:38 +0000";
layers = (
{
layerId = "59118767-2CA9-48AA-9373-694D24C960D8";
name = Regular;
paths = (
{
closed = 1;
nodes = (
"496 -424 OFFCURVE",
"550 -289 OFFCURVE",
"550 -97 CURVE SMOOTH",
"550 95 OFFCURVE",
"483 418 OFFCURVE",
"395 569 CURVE SMOOTH",
"378 598 OFFCURVE",
"352 613 OFFCURVE",
"331 613 CURVE SMOOTH",
"314 613 OFFCURVE",
"294 601 OFFCURVE",
"279 572 CURVE SMOOTH",
"272 558 OFFCURVE",
"268 548 OFFCURVE",
"268 539 CURVE SMOOTH",
"268 523 OFFCURVE",
"283 513 OFFCURVE",
"321 446 CURVE SMOOTH",
"407 292 OFFCURVE",
"475 37 OFFCURVE",
"475 -169 CURVE SMOOTH",
"475 -281 OFFCURVE",
"447 -352 OFFCURVE",
"388 -352 CURVE SMOOTH",
"353 -352 OFFCURVE",
"330 -314 OFFCURVE",
"323 -266 CURVE",
"254 -336 LINE",
"267 -390 OFFCURVE",
"317 -424 OFFCURVE",
"368 -424 CURVE SMOOTH"
);
},
{
closed = 1;
nodes = (
"279 -526 OFFCURVE",
"307 -501 OFFCURVE",
"302 -480 CURVE SMOOTH",
"300 -468 OFFCURVE",
"298 -457 OFFCURVE",
"292 -443 CURVE SMOOTH",
"285 -426 OFFCURVE",
"277 -414 OFFCURVE",
"268 -414 CURVE SMOOTH",
"260 -414 OFFCURVE",
"250 -421 OFFCURVE",
"238 -438 CURVE SMOOTH",
"227 -453 OFFCURVE",
"217 -467 OFFCURVE",
"217 -486 CURVE SMOOTH",
"217 -506 OFFCURVE",
"236 -526 OFFCURVE",
"256 -526 CURVE SMOOTH"
);
},
{
closed = 1;
nodes = (
"187 -424 OFFCURVE",
"274 -384 OFFCURVE",
"319 -295 CURVE",
"323 -287 OFFCURVE",
"323 -269 OFFCURVE",
"323 -266 CURVE SMOOTH",
"323 -257 OFFCURVE",
"315 -249 OFFCURVE",
"305 -249 CURVE SMOOTH",
"296 -249 OFFCURVE",
"284 -254 OFFCURVE",
"278 -266 CURVE SMOOTH",
"253 -318 OFFCURVE",
"215 -354 OFFCURVE",
"187 -354 CURVE SMOOTH",
"162 -354 OFFCURVE",
"155 -336 OFFCURVE",
"155 -311 CURVE SMOOTH",
"155 -236 OFFCURVE",
"256 -146 OFFCURVE",
"256 -130 CURVE SMOOTH",
"256 -118 OFFCURVE",
"247 -112 OFFCURVE",
"231 -112 CURVE SMOOTH",
"158 -112 OFFCURVE",
"106 -113 OFFCURVE",
"94 -117 CURVE SMOOTH",
"62 -129 OFFCURVE",
"50 -174 OFFCURVE",
"50 -184 CURVE SMOOTH",
"50 -189 OFFCURVE",
"55 -193 OFFCURVE",
"64 -193 CURVE SMOOTH",
"71 -193 OFFCURVE",
"159 -188 OFFCURVE",
"198 -185 CURVE",
"190 -154 LINE",
"182 -181 OFFCURVE",
"71 -256 OFFCURVE",
"71 -357 CURVE SMOOTH",
"71 -401 OFFCURVE",
"100 -424 OFFCURVE",
"141 -424 CURVE SMOOTH"
);
}
);
width = 590;
}
);
script = telugu;
category = Mark;
subCategory = Spacing;
},
{
color = 7;
glyphname = tlJAc2;
lastChange = "2015-12-19 09:31:38 +0000";
layers = (
{
anchors = (
{
name = _bottom;
position = "{-219, 0}";
},
{
name = bottom;
position = "{-219, -438}";
}
);
layerId = "59118767-2CA9-48AA-9373-694D24C960D8";
name = Regular;
paths = (
{
closed = 1;
nodes = (
"-298 -438 OFFCURVE",
"-238 -400 OFFCURVE",
"-189 -344 CURVE",
"-181 -336 OFFCURVE",
"-174 -329 OFFCURVE",
"-174 -320 CURVE SMOOTH",
"-174 -308 OFFCURVE",
"-181 -300 OFFCURVE",
"-194 -300 CURVE SMOOTH",
"-204 -300 OFFCURVE",
"-211 -304 OFFCURVE",
"-226 -319 CURVE SMOOTH",
"-243 -337 OFFCURVE",
"-273 -369 OFFCURVE",
"-303 -369 CURVE SMOOTH",
"-318 -369 OFFCURVE",
"-325 -362 OFFCURVE",
"-325 -346 CURVE SMOOTH",
"-325 -288 OFFCURVE",
"-226 -236 OFFCURVE",
"-226 -159 CURVE SMOOTH",
"-226 -118 OFFCURVE",
"-253 -95 OFFCURVE",
"-299 -95 CURVE SMOOTH",
"-384 -95 OFFCURVE",
"-438 -167 OFFCURVE",
"-438 -220 CURVE SMOOTH",
"-438 -260 OFFCURVE",
"-410 -285 OFFCURVE",
"-367 -285 CURVE SMOOTH",
"-362 -285 OFFCURVE",
"-358 -285 OFFCURVE",
"-354 -284 CURVE",
"-383 -317 OFFCURVE",
"-416 -352 OFFCURVE",
"-416 -387 CURVE SMOOTH",
"-416 -418 OFFCURVE",
"-391 -438 OFFCURVE",
"-353 -438 CURVE SMOOTH"
);
},
{
closed = 1;
nodes = (
"-356 -232 OFFCURVE",
"-373 -217 OFFCURVE",
"-373 -192 CURVE SMOOTH",
"-373 -170 OFFCURVE",
"-358 -154 OFFCURVE",
"-336 -154 CURVE SMOOTH",
"-317 -154 OFFCURVE",
"-305 -170 OFFCURVE",
"-305 -194 CURVE SMOOTH",
"-305 -205 OFFCURVE",
"-307 -218 OFFCURVE",
"-315 -231 CURVE",
"-320 -232 OFFCURVE",
"-325 -232 OFFCURVE",
"-330 -232 CURVE SMOOTH"
);
},
{
closed = 1;
nodes = (
"-66 -438 OFFCURVE",
"0 -347 OFFCURVE",
"0 -294 CURVE SMOOTH",
"0 -274 OFFCURVE",
"-10 -259 OFFCURVE",
"-35 -259 CURVE SMOOTH",
"-71 -259 OFFCURVE",
"-90 -297 OFFCURVE",
"-90 -310 CURVE SMOOTH",
"-90 -315 OFFCURVE",
"-87 -318 OFFCURVE",
"-84 -321 CURVE SMOOTH",
"-75 -328 OFFCURVE",
"-72 -335 OFFCURVE",
"-72 -342 CURVE SMOOTH",
"-72 -355 OFFCURVE",
"-89 -366 OFFCURVE",
"-111 -366 CURVE SMOOTH",
"-145 -366 OFFCURVE",
"-174 -354 OFFCURVE",
"-174 -317 CURVE",
"-237 -371 LINE",
"-219 -415 OFFCURVE",
"-188 -438 OFFCURVE",
"-145 -438 CURVE SMOOTH"
);
},
{
closed = 1;
nodes = (
"-116 -276 OFFCURVE",
"-61 -223 OFFCURVE",
"-61 -139 CURVE SMOOTH",
"-61 -103 OFFCURVE",
"-72 -95 OFFCURVE",
"-92 -95 CURVE SMOOTH",
"-124 -95 OFFCURVE",
"-150 -137 OFFCURVE",
"-150 -152 CURVE SMOOTH",
"-150 -166 OFFCURVE",
"-125 -172 OFFCURVE",
"-125 -201 CURVE SMOOTH",
"-125 -215 OFFCURVE",
"-140 -222 OFFCURVE",
"-160 -222 CURVE SMOOTH",
"-190 -222 OFFCURVE",
"-232 -204 OFFCURVE",
"-243 -163 CURVE",
"-286 -224 LINE SMOOTH",
"-265 -259 OFFCURVE",
"-228 -276 OFFCURVE",
"-190 -276 CURVE SMOOTH"
);
}
);
width = 0;
}
);
script = telugu;
category = Mark;
subCategory = Nonspacing;
},
{
color = 8;
glyphname = tlJAc2.following;
lastChange = "2015-12-16 10:37:38 +0000";
layers = (
{
layerId = "59118767-2CA9-48AA-9373-694D24C960D8";
name = Regular;
paths = (
{
closed = 1;
nodes = (
"190 -438 OFFCURVE",
"250 -400 OFFCURVE",
"299 -344 CURVE",
"307 -336 OFFCURVE",
"314 -329 OFFCURVE",
"314 -320 CURVE SMOOTH",
"314 -308 OFFCURVE",
"307 -300 OFFCURVE",
"294 -300 CURVE SMOOTH",
"284 -300 OFFCURVE",
"277 -304 OFFCURVE",
"262 -319 CURVE SMOOTH",
"245 -337 OFFCURVE",
"215 -369 OFFCURVE",
"185 -369 CURVE SMOOTH",
"170 -369 OFFCURVE",
"163 -362 OFFCURVE",
"163 -346 CURVE SMOOTH",
"163 -288 OFFCURVE",
"262 -236 OFFCURVE",
"262 -159 CURVE SMOOTH",
"262 -118 OFFCURVE",
"235 -95 OFFCURVE",
"189 -95 CURVE SMOOTH",
"104 -95 OFFCURVE",
"50 -167 OFFCURVE",
"50 -220 CURVE SMOOTH",
"50 -260 OFFCURVE",
"78 -285 OFFCURVE",
"121 -285 CURVE SMOOTH",
"126 -285 OFFCURVE",
"130 -285 OFFCURVE",
"134 -284 CURVE",
"105 -317 OFFCURVE",
"72 -352 OFFCURVE",
"72 -387 CURVE SMOOTH",
"72 -418 OFFCURVE",
"97 -438 OFFCURVE",
"135 -438 CURVE SMOOTH"
);
},
{
closed = 1;
nodes = (
"132 -232 OFFCURVE",
"115 -217 OFFCURVE",
"115 -192 CURVE SMOOTH",
"115 -170 OFFCURVE",
"130 -154 OFFCURVE",
"152 -154 CURVE SMOOTH",
"171 -154 OFFCURVE",
"183 -170 OFFCURVE",
"183 -194 CURVE SMOOTH",
"183 -205 OFFCURVE",
"181 -218 OFFCURVE",
"173 -231 CURVE",
"168 -232 OFFCURVE",
"163 -232 OFFCURVE",
"158 -232 CURVE SMOOTH"
);
},
{
closed = 1;
nodes = (
"422 -438 OFFCURVE",
"488 -347 OFFCURVE",
"488 -294 CURVE SMOOTH",
"488 -274 OFFCURVE",
"478 -259 OFFCURVE",
"453 -259 CURVE SMOOTH",
"417 -259 OFFCURVE",
"398 -297 OFFCURVE",
"398 -310 CURVE SMOOTH",
"398 -315 OFFCURVE",
"401 -318 OFFCURVE",
"404 -321 CURVE SMOOTH",
"413 -328 OFFCURVE",
"416 -335 OFFCURVE",
"416 -342 CURVE SMOOTH",
"416 -355 OFFCURVE",
"399 -366 OFFCURVE",
"377 -366 CURVE SMOOTH",
"343 -366 OFFCURVE",
"314 -354 OFFCURVE",
"314 -317 CURVE",
"251 -371 LINE",
"269 -415 OFFCURVE",
"300 -438 OFFCURVE",
"343 -438 CURVE SMOOTH"
);
},
{
closed = 1;
nodes = (
"372 -276 OFFCURVE",
"427 -223 OFFCURVE",
"427 -139 CURVE SMOOTH",
"427 -103 OFFCURVE",
"416 -95 OFFCURVE",
"396 -95 CURVE SMOOTH",
"364 -95 OFFCURVE",
"338 -137 OFFCURVE",
"338 -152 CURVE SMOOTH",
"338 -166 OFFCURVE",
"363 -172 OFFCURVE",
"363 -201 CURVE SMOOTH",
"363 -215 OFFCURVE",
"348 -222 OFFCURVE",
"328 -222 CURVE SMOOTH",
"298 -222 OFFCURVE",
"256 -204 OFFCURVE",
"245 -163 CURVE",
"202 -224 LINE SMOOTH",
"223 -259 OFFCURVE",
"260 -276 OFFCURVE",
"298 -276 CURVE SMOOTH"
);
}
);
width = 488;
}
);
script = telugu;
category = Mark;
subCategory = Spacing;
},
{
color = 7;
glyphname = tlJHAc2;
lastChange = "2015-12-19 09:31:49 +0000";
layers = (
{
anchors = (
{
name = _bottom;
position = "{-313, 0}";
},
{
name = bottom;
position = "{-313, -548}";
}
);
layerId = "59118767-2CA9-48AA-9373-694D24C960D8";
name = Regular;
paths = (
{
closed = 1;
nodes = (
"-399 -438 OFFCURVE",
"-326 -303 OFFCURVE",
"-331 -210 CURVE SMOOTH",
"-335 -137 OFFCURVE",
"-380 -94 OFFCURVE",
"-455 -94 CURVE SMOOTH",
"-476 -94 OFFCURVE",
"-500 -98 OFFCURVE",
"-525 -104 CURVE SMOOTH",
"-549 -112 OFFCURVE",
"-582 -156 OFFCURVE",
"-581 -176 CURVE SMOOTH",
"-580 -183 OFFCURVE",
"-576 -187 OFFCURVE",
"-568 -187 CURVE SMOOTH",
"-563 -187 OFFCURVE",
"-559 -186 OFFCURVE",
"-553 -184 CURVE",
"-554 -184 LINE",
"-514 -176 LINE",
"-515 -176 LINE",
"-504 -176 OFFCURVE",
"-491 -173 OFFCURVE",
"-478 -173 CURVE SMOOTH",
"-427 -173 OFFCURVE",
"-399 -204 OFFCURVE",
"-396 -255 CURVE SMOOTH",
"-392 -330 OFFCURVE",
"-454 -359 OFFCURVE",
"-494 -359 CURVE SMOOTH",
"-534 -359 OFFCURVE",
"-563 -329 OFFCURVE",
"-565 -293 CURVE SMOOTH",
"-567 -252 OFFCURVE",
"-527 -185 OFFCURVE",
"-483 -156 CURVE",
"-487 -152 LINE",
"-555 -172 LINE",
"-603 -214 OFFCURVE",
"-625 -275 OFFCURVE",
"-625 -335 CURVE SMOOTH",
"-625 -402 OFFCURVE",
"-586 -438 OFFCURVE",
"-521 -438 CURVE SMOOTH"
);
},
{
closed = 1;
nodes = (
"-217 -543 OFFCURVE",
"-189 -518 OFFCURVE",
"-194 -497 CURVE SMOOTH",
"-196 -485 OFFCURVE",
"-198 -474 OFFCURVE",
"-204 -460 CURVE SMOOTH",
"-211 -443 OFFCURVE",
"-219 -431 OFFCURVE",
"-228 -431 CURVE SMOOTH",
"-236 -431 OFFCURVE",
"-246 -438 OFFCURVE",
"-258 -455 CURVE SMOOTH",
"-269 -470 OFFCURVE",
"-279 -484 OFFCURVE",
"-279 -503 CURVE SMOOTH",
"-279 -523 OFFCURVE",
"-260 -543 OFFCURVE",
"-240 -543 CURVE SMOOTH"
);
},
{
closed = 1;
nodes = (
"-248 -438 OFFCURVE",
"-170 -358 OFFCURVE",
"-170 -256 CURVE SMOOTH",
"-170 -160 OFFCURVE",
"-199 -95 OFFCURVE",
"-238 -95 CURVE SMOOTH",
"-263 -95 OFFCURVE",
"-289 -134 OFFCURVE",
"-289 -158 CURVE SMOOTH",
"-289 -168 OFFCURVE",
"-284 -173 OFFCURVE",
"-280 -176 CURVE SMOOTH",
"-255 -197 OFFCURVE",
"-227 -236 OFFCURVE",
"-227 -297 CURVE SMOOTH",
"-227 -344 OFFCURVE",
"-263 -370 OFFCURVE",
"-298 -370 CURVE SMOOTH",
"-331 -370 OFFCURVE",
"-363 -347 OFFCURVE",
"-363 -296 CURVE",
"-410 -355 LINE",
"-402 -401 OFFCURVE",
"-372 -438 OFFCURVE",
"-323 -438 CURVE SMOOTH"
);
},
{
closed = 1;
nodes = (
"-78 -438 OFFCURVE",
"0 -358 OFFCURVE",
"0 -256 CURVE SMOOTH",
"0 -160 OFFCURVE",
"-32 -95 OFFCURVE",
"-71 -95 CURVE SMOOTH",
"-96 -95 OFFCURVE",
"-122 -134 OFFCURVE",
"-122 -158 CURVE SMOOTH",
"-122 -168 OFFCURVE",
"-117 -173 OFFCURVE",
"-113 -176 CURVE SMOOTH",
"-88 -197 OFFCURVE",
"-57 -236 OFFCURVE",
"-57 -297 CURVE SMOOTH",
"-57 -344 OFFCURVE",
"-93 -370 OFFCURVE",
"-128 -370 CURVE SMOOTH",
"-161 -370 OFFCURVE",
"-193 -347 OFFCURVE",
"-193 -296 CURVE",
"-240 -355 LINE",
"-232 -401 OFFCURVE",
"-202 -438 OFFCURVE",
"-153 -438 CURVE SMOOTH"
);
}
);
width = 0;
}
);
script = telugu;
category = Mark;
subCategory = Nonspacing;
},
{
color = 8;
glyphname = tlJHAc2.following;
lastChange = "2015-12-16 10:37:38 +0000";
layers = (
{
layerId = "59118767-2CA9-48AA-9373-694D24C960D8";
name = Regular;
paths = (
{
closed = 1;
nodes = (
"276 -438 OFFCURVE",
"349 -303 OFFCURVE",
"344 -210 CURVE SMOOTH",
"340 -137 OFFCURVE",
"295 -94 OFFCURVE",
"220 -94 CURVE SMOOTH",
"199 -94 OFFCURVE",
"175 -98 OFFCURVE",
"150 -104 CURVE SMOOTH",
"126 -112 OFFCURVE",
"93 -156 OFFCURVE",
"94 -176 CURVE SMOOTH",
"95 -183 OFFCURVE",
"99 -187 OFFCURVE",
"107 -187 CURVE SMOOTH",
"112 -187 OFFCURVE",
"116 -186 OFFCURVE",
"122 -184 CURVE",
"121 -184 LINE",
"161 -176 LINE",
"160 -176 LINE",
"171 -176 OFFCURVE",
"184 -173 OFFCURVE",
"197 -173 CURVE SMOOTH",
"248 -173 OFFCURVE",
"276 -204 OFFCURVE",
"279 -255 CURVE SMOOTH",
"283 -330 OFFCURVE",
"221 -359 OFFCURVE",
"181 -359 CURVE SMOOTH",
"141 -359 OFFCURVE",
"112 -329 OFFCURVE",
"110 -293 CURVE SMOOTH",
"108 -252 OFFCURVE",
"148 -185 OFFCURVE",
"192 -156 CURVE",
"188 -152 LINE",
"120 -172 LINE",
"72 -214 OFFCURVE",
"46 -275 OFFCURVE",
"50 -335 CURVE SMOOTH",
"53 -402 OFFCURVE",
"89 -438 OFFCURVE",
"154 -438 CURVE SMOOTH"
);
},
{
closed = 1;
nodes = (
"458 -543 OFFCURVE",
"486 -518 OFFCURVE",
"481 -497 CURVE SMOOTH",
"479 -485 OFFCURVE",
"477 -474 OFFCURVE",
"471 -460 CURVE SMOOTH",
"464 -443 OFFCURVE",
"456 -431 OFFCURVE",
"447 -431 CURVE SMOOTH",
"439 -431 OFFCURVE",
"429 -438 OFFCURVE",
"417 -455 CURVE SMOOTH",
"406 -470 OFFCURVE",
"396 -484 OFFCURVE",
"396 -503 CURVE SMOOTH",
"396 -523 OFFCURVE",
"415 -543 OFFCURVE",
"435 -543 CURVE SMOOTH"
);
},
{
closed = 1;
nodes = (
"427 -438 OFFCURVE",
"505 -358 OFFCURVE",
"505 -256 CURVE SMOOTH",
"505 -160 OFFCURVE",
"476 -95 OFFCURVE",
"437 -95 CURVE SMOOTH",
"412 -95 OFFCURVE",
"386 -134 OFFCURVE",
"386 -158 CURVE SMOOTH",
"386 -168 OFFCURVE",
"391 -173 OFFCURVE",
"395 -176 CURVE SMOOTH",
"420 -197 OFFCURVE",
"448 -236 OFFCURVE",
"448 -297 CURVE SMOOTH",
"448 -344 OFFCURVE",
"412 -370 OFFCURVE",
"377 -370 CURVE SMOOTH",
"344 -370 OFFCURVE",
"312 -347 OFFCURVE",
"312 -296 CURVE",
"265 -355 LINE",
"273 -401 OFFCURVE",
"303 -438 OFFCURVE",
"352 -438 CURVE SMOOTH"
);
},
{
closed = 1;
nodes = (
"597 -438 OFFCURVE",
"675 -358 OFFCURVE",
"675 -256 CURVE SMOOTH",
"675 -160 OFFCURVE",
"643 -95 OFFCURVE",
"604 -95 CURVE SMOOTH",
"579 -95 OFFCURVE",
"553 -134 OFFCURVE",
"553 -158 CURVE SMOOTH",
"553 -168 OFFCURVE",
"558 -173 OFFCURVE",
"562 -176 CURVE SMOOTH",
"587 -197 OFFCURVE",
"618 -236 OFFCURVE",
"618 -297 CURVE SMOOTH",
"618 -344 OFFCURVE",
"582 -370 OFFCURVE",
"547 -370 CURVE SMOOTH",
"514 -370 OFFCURVE",
"482 -347 OFFCURVE",
"482 -296 CURVE",
"435 -355 LINE",
"443 -401 OFFCURVE",
"473 -438 OFFCURVE",
"522 -438 CURVE SMOOTH"
);
}
);
width = 675;
}
);
script = telugu;
category = Mark;
subCategory = Spacing;
},
{
color = 7;
glyphname = tlNYAc2;
lastChange = "2015-12-19 09:31:58 +0000";
layers = (
{
anchors = (
{
name = _bottom;
position = "{-287, 0}";
},
{
name = bottom;
position = "{-287, -438}";
}
);
layerId = "59118767-2CA9-48AA-9373-694D24C960D8";
name = Regular;
paths = (
{
closed = 1;
nodes = (
"-165 -494 OFFCURVE",
"-136 -462 OFFCURVE",
"-136 -422 CURVE SMOOTH",
"-136 -375 OFFCURVE",
"-168 -336 OFFCURVE",
"-214 -310 CURVE",
"-183 -265 OFFCURVE",
"-163 -220 OFFCURVE",
"-163 -182 CURVE SMOOTH",
"-163 -130 OFFCURVE",
"-194 -95 OFFCURVE",
"-241 -95 CURVE SMOOTH",
"-281 -95 OFFCURVE",
"-319 -111 OFFCURVE",
"-348 -144 CURVE",
"-367 -113 OFFCURVE",
"-399 -95 OFFCURVE",
"-435 -95 CURVE SMOOTH",
"-509 -95 OFFCURVE",
"-573 -173 OFFCURVE",
"-573 -204 CURVE SMOOTH",
"-573 -218 OFFCURVE",
"-560 -230 OFFCURVE",
"-544 -230 CURVE SMOOTH",
"-537 -230 OFFCURVE",
"-531 -228 OFFCURVE",
"-528 -223 CURVE SMOOTH",
"-509 -193 OFFCURVE",
"-493 -170 OFFCURVE",
"-466 -170 CURVE SMOOTH",
"-437 -170 OFFCURVE",
"-428 -187 OFFCURVE",
"-421 -204 CURVE SMOOTH",
"-416 -217 OFFCURVE",
"-410 -235 OFFCURVE",
"-394 -235 CURVE SMOOTH",
"-385 -235 OFFCURVE",
"-374 -228 OFFCURVE",
"-366 -218 CURVE SMOOTH",
"-340 -184 OFFCURVE",
"-308 -168 OFFCURVE",
"-283 -168 CURVE SMOOTH",
"-258 -168 OFFCURVE",
"-240 -192 OFFCURVE",
"-240 -222 CURVE SMOOTH",
"-240 -240 OFFCURVE",
"-248 -263 OFFCURVE",
"-261 -287 CURVE",
"-300 -273 OFFCURVE",
"-345 -266 OFFCURVE",
"-386 -266 CURVE SMOOTH",
"-472 -266 OFFCURVE",
"-547 -297 OFFCURVE",
"-547 -368 CURVE SMOOTH",
"-547 -412 OFFCURVE",
"-510 -438 OFFCURVE",
"-449 -438 CURVE SMOOTH",
"-393 -438 OFFCURVE",
"-317 -410 OFFCURVE",
"-262 -364 CURVE",
"-232 -392 OFFCURVE",
"-211 -430 OFFCURVE",
"-211 -482 CURVE SMOOTH",
"-211 -486 OFFCURVE",
"-208 -494 OFFCURVE",
"-196 -494 CURVE SMOOTH"
);
},
{
closed = 1;
nodes = (
"-450 -373 OFFCURVE",
"-468 -357 OFFCURVE",
"-468 -341 CURVE SMOOTH",
"-468 -321 OFFCURVE",
"-442 -311 OFFCURVE",
"-407 -311 CURVE SMOOTH",
"-378 -311 OFFCURVE",
"-342 -318 OFFCURVE",
"-309 -334 CURVE",
"-334 -354 OFFCURVE",
"-378 -373 OFFCURVE",
"-421 -373 CURVE SMOOTH"
);
},
{
closed = 1;
nodes = (
"-180 -266 OFFCURVE",
"-93 -265 OFFCURVE",
"-52 -264 CURVE SMOOTH",
"-29 -263 OFFCURVE",
"0 -232 OFFCURVE",
"0 -218 CURVE SMOOTH",
"0 -210 OFFCURVE",
"-7 -206 OFFCURVE",
"-15 -206 CURVE SMOOTH",
"-87 -207 OFFCURVE",
"-145 -209 OFFCURVE",
"-223 -212 CURVE",
"-223 -267 LINE"
);
},
{
closed = 1;
nodes = (
"-88 -186 OFFCURVE",
"-48 -131 OFFCURVE",
"-48 -106 CURVE SMOOTH",
"-48 -86 OFFCURVE",
"-67 -66 OFFCURVE",
"-87 -66 CURVE SMOOTH",
"-108 -66 OFFCURVE",
"-134 -87 OFFCURVE",
"-134 -107 CURVE SMOOTH",
"-134 -121 OFFCURVE",
"-113 -186 OFFCURVE",
"-99 -186 CURVE SMOOTH"
);
}
);
width = 0;
}
);
script = telugu;
category = Mark;
subCategory = Nonspacing;
},
{
color = 8;
glyphname = tlNYAc2.following;
lastChange = "2015-12-16 10:37:38 +0000";
layers = (
{
layerId = "59118767-2CA9-48AA-9373-694D24C960D8";
name = Regular;
paths = (
{
closed = 1;
nodes = (
"458 -494 OFFCURVE",
"487 -462 OFFCURVE",
"487 -422 CURVE SMOOTH",
"487 -375 OFFCURVE",
"455 -336 OFFCURVE",
"409 -310 CURVE",
"440 -265 OFFCURVE",
"460 -220 OFFCURVE",
"460 -182 CURVE SMOOTH",
"460 -130 OFFCURVE",
"429 -95 OFFCURVE",
"382 -95 CURVE SMOOTH",
"342 -95 OFFCURVE",
"304 -111 OFFCURVE",
"275 -144 CURVE",
"256 -113 OFFCURVE",
"224 -95 OFFCURVE",
"188 -95 CURVE SMOOTH",
"114 -95 OFFCURVE",
"50 -173 OFFCURVE",
"50 -204 CURVE SMOOTH",
"50 -218 OFFCURVE",
"63 -230 OFFCURVE",
"79 -230 CURVE SMOOTH",
"86 -230 OFFCURVE",
"92 -228 OFFCURVE",
"95 -223 CURVE SMOOTH",
"114 -193 OFFCURVE",
"130 -170 OFFCURVE",
"157 -170 CURVE SMOOTH",
"186 -170 OFFCURVE",
"195 -187 OFFCURVE",
"202 -204 CURVE SMOOTH",
"207 -217 OFFCURVE",
"213 -235 OFFCURVE",
"229 -235 CURVE SMOOTH",
"238 -235 OFFCURVE",
"249 -228 OFFCURVE",
"257 -218 CURVE SMOOTH",
"283 -184 OFFCURVE",
"315 -168 OFFCURVE",
"340 -168 CURVE SMOOTH",
"365 -168 OFFCURVE",
"383 -192 OFFCURVE",
"383 -222 CURVE SMOOTH",
"383 -240 OFFCURVE",
"375 -263 OFFCURVE",
"362 -287 CURVE",
"323 -273 OFFCURVE",
"278 -266 OFFCURVE",
"237 -266 CURVE SMOOTH",
"151 -266 OFFCURVE",
"76 -297 OFFCURVE",
"76 -368 CURVE SMOOTH",
"76 -412 OFFCURVE",
"113 -438 OFFCURVE",
"174 -438 CURVE SMOOTH",
"230 -438 OFFCURVE",
"306 -410 OFFCURVE",
"361 -364 CURVE",
"391 -392 OFFCURVE",
"412 -430 OFFCURVE",
"412 -482 CURVE SMOOTH",
"412 -486 OFFCURVE",
"415 -494 OFFCURVE",
"427 -494 CURVE SMOOTH"
);
},
{
closed = 1;
nodes = (
"173 -373 OFFCURVE",
"155 -357 OFFCURVE",
"155 -341 CURVE SMOOTH",
"155 -321 OFFCURVE",
"181 -311 OFFCURVE",
"216 -311 CURVE SMOOTH",
"245 -311 OFFCURVE",
"281 -318 OFFCURVE",
"314 -334 CURVE",
"289 -354 OFFCURVE",
"245 -373 OFFCURVE",
"202 -373 CURVE SMOOTH"
);
},
{
closed = 1;
nodes = (
"443 -266 OFFCURVE",
"530 -265 OFFCURVE",
"571 -264 CURVE SMOOTH",
"594 -263 OFFCURVE",
"623 -232 OFFCURVE",
"623 -218 CURVE SMOOTH",
"623 -210 OFFCURVE",
"616 -206 OFFCURVE",
"608 -206 CURVE SMOOTH",
"536 -207 OFFCURVE",
"478 -209 OFFCURVE",
"400 -212 CURVE",
"400 -267 LINE"
);
},
{
closed = 1;
nodes = (
"535 -186 OFFCURVE",
"575 -131 OFFCURVE",
"575 -106 CURVE SMOOTH",
"575 -86 OFFCURVE",
"556 -66 OFFCURVE",
"536 -66 CURVE SMOOTH",
"515 -66 OFFCURVE",
"489 -87 OFFCURVE",
"489 -107 CURVE SMOOTH",
"489 -121 OFFCURVE",
"510 -186 OFFCURVE",
"524 -186 CURVE SMOOTH"
);
}
);
width = 623;
}
);
script = telugu;
category = Mark;
subCategory = Spacing;
},
{
color = 7;
glyphname = tlTTAc2;
lastChange = "2015-12-19 09:32:11 +0000";
layers = (
{
anchors = (
{
name = _bottom;
position = "{-248, 0}";
},
{
name = bottom;
position = "{-248, -438}";
}
);
layerId = "59118767-2CA9-48AA-9373-694D24C960D8";
name = Regular;
paths = (
{
closed = 1;
nodes = (
"-328 -438 OFFCURVE",
"-275 -408 OFFCURVE",
"-238 -349 CURVE",
"-271 -371 LINE",
"-247 -415 OFFCURVE",
"-207 -438 OFFCURVE",
"-164 -438 CURVE SMOOTH",
"-52 -438 OFFCURVE",
"0 -337 OFFCURVE",
"0 -245 CURVE SMOOTH",
"0 -167 OFFCURVE",
"-46 -93 OFFCURVE",
"-108 -93 CURVE SMOOTH",
"-144 -93 OFFCURVE",
"-203 -147 OFFCURVE",
"-146 -168 CURVE SMOOTH",
"-106 -184 OFFCURVE",
"-61 -222 OFFCURVE",
"-61 -294 CURVE SMOOTH",
"-61 -338 OFFCURVE",
"-89 -364 OFFCURVE",
"-128 -364 CURVE SMOOTH",
"-182 -364 OFFCURVE",
"-197 -326 OFFCURVE",
"-208 -291 CURVE SMOOTH",
"-210 -284 OFFCURVE",
"-216 -280 OFFCURVE",
"-223 -280 CURVE SMOOTH",
"-232 -280 OFFCURVE",
"-239 -285 OFFCURVE",
"-248 -297 CURVE SMOOTH",
"-276 -330 OFFCURVE",
"-304 -363 OFFCURVE",
"-338 -363 CURVE SMOOTH",
"-388 -363 OFFCURVE",
"-420 -330 OFFCURVE",
"-420 -278 CURVE SMOOTH",
"-420 -215 OFFCURVE",
"-385 -160 OFFCURVE",
"-338 -160 CURVE SMOOTH",
"-305 -160 OFFCURVE",
"-299 -215 OFFCURVE",
"-336 -227 CURVE SMOOTH",
"-356 -234 OFFCURVE",
"-365 -234 OFFCURVE",
"-365 -250 CURVE SMOOTH",
"-365 -266 OFFCURVE",
"-354 -274 OFFCURVE",
"-336 -273 CURVE SMOOTH",
"-279 -265 OFFCURVE",
"-238 -221 OFFCURVE",
"-238 -170 CURVE SMOOTH",
"-238 -125 OFFCURVE",
"-265 -95 OFFCURVE",
"-313 -95 CURVE SMOOTH",
"-403 -95 OFFCURVE",
"-496 -210 OFFCURVE",
"-496 -316 CURVE SMOOTH",
"-496 -397 OFFCURVE",
"-441 -438 OFFCURVE",
"-380 -438 CURVE SMOOTH"
);
}
);
width = 0;
}
);
script = telugu;
category = Mark;
subCategory = Nonspacing;
},
{
color = 8;
glyphname = tlTTAc2.following;
lastChange = "2015-12-16 10:37:38 +0000";
layers = (
{
layerId = "59118767-2CA9-48AA-9373-694D24C960D8";
name = Regular;
paths = (
{
closed = 1;
nodes = (
"218 -438 OFFCURVE",
"271 -408 OFFCURVE",
"308 -349 CURVE",
"275 -371 LINE",
"299 -415 OFFCURVE",
"339 -438 OFFCURVE",
"382 -438 CURVE SMOOTH",
"494 -438 OFFCURVE",
"546 -337 OFFCURVE",
"546 -245 CURVE SMOOTH",
"546 -167 OFFCURVE",
"500 -93 OFFCURVE",
"438 -93 CURVE SMOOTH",
"402 -93 OFFCURVE",
"343 -147 OFFCURVE",
"400 -168 CURVE SMOOTH",
"440 -184 OFFCURVE",
"485 -222 OFFCURVE",
"485 -294 CURVE SMOOTH",
"485 -338 OFFCURVE",
"457 -364 OFFCURVE",
"418 -364 CURVE SMOOTH",
"364 -364 OFFCURVE",
"349 -326 OFFCURVE",
"338 -291 CURVE SMOOTH",
"336 -284 OFFCURVE",
"330 -280 OFFCURVE",
"323 -280 CURVE SMOOTH",
"314 -280 OFFCURVE",
"307 -285 OFFCURVE",
"298 -297 CURVE SMOOTH",
"270 -330 OFFCURVE",
"242 -363 OFFCURVE",
"208 -363 CURVE SMOOTH",
"158 -363 OFFCURVE",
"126 -330 OFFCURVE",
"126 -278 CURVE SMOOTH",
"126 -215 OFFCURVE",
"161 -160 OFFCURVE",
"208 -160 CURVE SMOOTH",
"241 -160 OFFCURVE",
"247 -215 OFFCURVE",
"210 -227 CURVE SMOOTH",
"190 -234 OFFCURVE",
"181 -234 OFFCURVE",
"181 -250 CURVE SMOOTH",
"181 -266 OFFCURVE",
"192 -274 OFFCURVE",
"210 -273 CURVE SMOOTH",
"267 -265 OFFCURVE",
"308 -221 OFFCURVE",
"308 -170 CURVE SMOOTH",
"308 -125 OFFCURVE",
"281 -95 OFFCURVE",
"233 -95 CURVE SMOOTH",
"143 -95 OFFCURVE",
"50 -210 OFFCURVE",
"50 -316 CURVE SMOOTH",
"50 -397 OFFCURVE",
"105 -438 OFFCURVE",
"166 -438 CURVE SMOOTH"
);
}
);
width = 546;
}
);
script = telugu;
category = Mark;
subCategory = Spacing;
},
{
color = 7;
glyphname = tlTTRAc2;
lastChange = "2015-12-19 09:32:26 +0000";
layers = (
{
anchors = (
{
name = _bottom;
position = "{-284, 0}";
},
{
name = bottom;
position = "{-284, -438}";
}
);
layerId = "59118767-2CA9-48AA-9373-694D24C960D8";
name = Regular;
paths = (
{
closed = 1;
nodes = (
"-342 -438 OFFCURVE",
"-289 -408 OFFCURVE",
"-252 -349 CURVE",
"-285 -371 LINE",
"-261 -415 OFFCURVE",
"-221 -438 OFFCURVE",
"-178 -438 CURVE SMOOTH",
"-66 -438 OFFCURVE",
"-14 -337 OFFCURVE",
"-14 -245 CURVE SMOOTH",
"-14 -167 OFFCURVE",
"-60 -93 OFFCURVE",
"-122 -93 CURVE SMOOTH",
"-158 -93 OFFCURVE",
"-217 -147 OFFCURVE",
"-160 -168 CURVE SMOOTH",
"-120 -184 OFFCURVE",
"-75 -222 OFFCURVE",
"-75 -294 CURVE SMOOTH",
"-75 -338 OFFCURVE",
"-103 -364 OFFCURVE",
"-142 -364 CURVE SMOOTH",
"-196 -364 OFFCURVE",
"-211 -326 OFFCURVE",
"-222 -291 CURVE SMOOTH",
"-224 -284 OFFCURVE",
"-230 -280 OFFCURVE",
"-237 -280 CURVE SMOOTH",
"-246 -280 OFFCURVE",
"-253 -285 OFFCURVE",
"-262 -297 CURVE SMOOTH",
"-290 -330 OFFCURVE",
"-318 -363 OFFCURVE",
"-352 -363 CURVE SMOOTH",
"-402 -363 OFFCURVE",
"-434 -330 OFFCURVE",
"-434 -278 CURVE SMOOTH",
"-434 -215 OFFCURVE",
"-399 -160 OFFCURVE",
"-352 -160 CURVE SMOOTH",
"-319 -160 OFFCURVE",
"-313 -215 OFFCURVE",
"-350 -227 CURVE SMOOTH",
"-370 -234 OFFCURVE",
"-379 -234 OFFCURVE",
"-379 -250 CURVE SMOOTH",
"-379 -266 OFFCURVE",
"-368 -274 OFFCURVE",
"-350 -273 CURVE SMOOTH",
"-293 -265 OFFCURVE",
"-252 -221 OFFCURVE",
"-252 -170 CURVE SMOOTH",
"-252 -125 OFFCURVE",
"-279 -95 OFFCURVE",
"-327 -95 CURVE SMOOTH",
"-417 -95 OFFCURVE",
"-510 -210 OFFCURVE",
"-510 -316 CURVE SMOOTH",
"-510 -397 OFFCURVE",
"-455 -438 OFFCURVE",
"-394 -438 CURVE SMOOTH"
);
},
{
closed = 1;
nodes = (
"-205 -648 OFFCURVE",
"-104 -614 OFFCURVE",
"-42 -542 CURVE SMOOTH",
"-14 -510 OFFCURVE",
"0 -483 OFFCURVE",
"0 -462 CURVE SMOOTH",
"0 -447 OFFCURVE",
"-7 -433 OFFCURVE",
"-24 -433 CURVE SMOOTH",
"-37 -433 OFFCURVE",
"-41 -455 OFFCURVE",
"-71 -489 CURVE SMOOTH",
"-122 -547 OFFCURVE",
"-196 -580 OFFCURVE",
"-275 -580 CURVE SMOOTH",
"-356 -580 OFFCURVE",
"-439 -547 OFFCURVE",
"-497 -458 CURVE SMOOTH",
"-513 -433 OFFCURVE",
"-513 -433 OFFCURVE",
"-521 -433 CURVE SMOOTH",
"-547 -433 OFFCURVE",
"-568 -458 OFFCURVE",
"-568 -489 CURVE SMOOTH",
"-568 -549 OFFCURVE",
"-445 -648 OFFCURVE",
"-297 -648 CURVE SMOOTH"
);
}
);
width = 0;
}
);
script = telugu;
category = Mark;
subCategory = Nonspacing;
},
{
color = 7;
glyphname = tlTTHAc2;
lastChange = "2015-12-19 09:32:37 +0000";
layers = (
{
anchors = (
{
name = _bottom;
position = "{-163, 0}";
},
{
name = bottom;
position = "{-163, -438}";
}
);
layerId = "59118767-2CA9-48AA-9373-694D24C960D8";
name = Regular;
paths = (
{
closed = 1;
nodes = (
"-86 -438 OFFCURVE",
"0 -303 OFFCURVE",
"0 -210 CURVE SMOOTH",
"0 -137 OFFCURVE",
"-46 -94 OFFCURVE",
"-128 -94 CURVE SMOOTH",
"-150 -94 OFFCURVE",
"-177 -98 OFFCURVE",
"-203 -104 CURVE SMOOTH",
"-230 -112 OFFCURVE",
"-268 -156 OFFCURVE",
"-268 -176 CURVE SMOOTH",
"-268 -183 OFFCURVE",
"-264 -187 OFFCURVE",
"-255 -187 CURVE SMOOTH",
"-250 -187 OFFCURVE",
"-245 -186 OFFCURVE",
"-238 -184 CURVE",
"-239 -184 LINE",
"-196 -176 LINE",
"-197 -176 LINE",
"-185 -176 OFFCURVE",
"-170 -173 OFFCURVE",
"-157 -173 CURVE SMOOTH",
"-102 -173 OFFCURVE",
"-73 -204 OFFCURVE",
"-73 -255 CURVE SMOOTH",
"-73 -330 OFFCURVE",
"-141 -359 OFFCURVE",
"-184 -359 CURVE SMOOTH",
"-228 -359 OFFCURVE",
"-257 -329 OFFCURVE",
"-257 -293 CURVE SMOOTH",
"-257 -252 OFFCURVE",
"-211 -185 OFFCURVE",
"-161 -156 CURVE",
"-165 -152 LINE",
"-241 -172 LINE",
"-295 -214 OFFCURVE",
"-325 -275 OFFCURVE",
"-325 -335 CURVE SMOOTH",
"-325 -402 OFFCURVE",
"-288 -438 OFFCURVE",
"-218 -438 CURVE SMOOTH"
);
},
{
closed = 1;
nodes = (
"-152 -304 OFFCURVE",
"-125 -285 OFFCURVE",
"-125 -263 CURVE SMOOTH",
"-125 -246 OFFCURVE",
"-141 -224 OFFCURVE",
"-155 -224 CURVE SMOOTH",
"-171 -224 OFFCURVE",
"-200 -245 OFFCURVE",
"-200 -268 CURVE SMOOTH",
"-200 -283 OFFCURVE",
"-183 -304 OFFCURVE",
"-168 -304 CURVE SMOOTH"
);
}
);
width = 0;
}
);
script = telugu;
category = Mark;
subCategory = Nonspacing;
},
{
color = 8;
glyphname = tlTTHAc2.following;
lastChange = "2015-12-16 10:37:38 +0000";
layers = (
{
layerId = "59118767-2CA9-48AA-9373-694D24C960D8";
name = Regular;
paths = (
{
closed = 1;
nodes = (
"289 -438 OFFCURVE",
"375 -303 OFFCURVE",
"375 -210 CURVE SMOOTH",
"375 -137 OFFCURVE",
"329 -94 OFFCURVE",
"247 -94 CURVE SMOOTH",
"225 -94 OFFCURVE",
"198 -98 OFFCURVE",
"172 -104 CURVE SMOOTH",
"145 -112 OFFCURVE",
"107 -156 OFFCURVE",
"107 -176 CURVE SMOOTH",
"107 -183 OFFCURVE",
"111 -187 OFFCURVE",
"120 -187 CURVE SMOOTH",
"125 -187 OFFCURVE",
"130 -186 OFFCURVE",
"137 -184 CURVE",
"136 -184 LINE",
"179 -176 LINE",
"178 -176 LINE",
"190 -176 OFFCURVE",
"205 -173 OFFCURVE",
"218 -173 CURVE SMOOTH",
"273 -173 OFFCURVE",
"302 -204 OFFCURVE",
"302 -255 CURVE SMOOTH",
"302 -330 OFFCURVE",
"234 -359 OFFCURVE",
"191 -359 CURVE SMOOTH",
"147 -359 OFFCURVE",
"118 -329 OFFCURVE",
"118 -293 CURVE SMOOTH",
"118 -252 OFFCURVE",
"164 -185 OFFCURVE",
"214 -156 CURVE",
"210 -152 LINE",
"134 -172 LINE",
"80 -214 OFFCURVE",
"50 -275 OFFCURVE",
"50 -335 CURVE SMOOTH",
"50 -402 OFFCURVE",
"87 -438 OFFCURVE",
"157 -438 CURVE SMOOTH"
);
},
{
closed = 1;
nodes = (
"223 -304 OFFCURVE",
"250 -285 OFFCURVE",
"250 -263 CURVE SMOOTH",
"250 -246 OFFCURVE",
"234 -224 OFFCURVE",
"220 -224 CURVE SMOOTH",
"204 -224 OFFCURVE",
"175 -245 OFFCURVE",
"175 -268 CURVE SMOOTH",
"175 -283 OFFCURVE",
"192 -304 OFFCURVE",
"207 -304 CURVE SMOOTH"
);
}
);
width = 375;
}
);
script = telugu;
category = Mark;
subCategory = Spacing;
},
{
color = 7;
glyphname = tlDDAc2;
lastChange = "2015-12-19 09:32:50 +0000";
layers = (
{
anchors = (
{
name = _bottom;
position = "{-228, 0}";
},
{
name = bottom;
position = "{-228, -438}";
}
);
layerId = "59118767-2CA9-48AA-9373-694D24C960D8";
name = Regular;
paths = (
{
closed = 1;
nodes = (
"-343 -438 OFFCURVE",
"-280 -409 OFFCURVE",
"-237 -340 CURVE",
"-277 -366 LINE",
"-258 -408 OFFCURVE",
"-218 -438 OFFCURVE",
"-170 -438 CURVE SMOOTH",
"-70 -438 OFFCURVE",
"0 -355 OFFCURVE",
"0 -282 CURVE SMOOTH",
"0 -221 OFFCURVE",
"-37 -189 OFFCURVE",
"-76 -189 CURVE SMOOTH",
"-107 -189 OFFCURVE",
"-141 -209 OFFCURVE",
"-160 -250 CURVE SMOOTH",
"-174 -283 OFFCURVE",
"-151 -308 OFFCURVE",
"-126 -289 CURVE SMOOTH",
"-116 -281 OFFCURVE",
"-105 -273 OFFCURVE",
"-93 -273 CURVE SMOOTH",
"-47 -273 OFFCURVE",
"-40 -366 OFFCURVE",
"-136 -366 CURVE SMOOTH",
"-175 -366 OFFCURVE",
"-203 -325 OFFCURVE",
"-210 -299 CURVE SMOOTH",
"-213 -289 OFFCURVE",
"-219 -283 OFFCURVE",
"-228 -283 CURVE SMOOTH",
"-237 -283 OFFCURVE",
"-247 -289 OFFCURVE",
"-254 -300 CURVE",
"-284 -340 OFFCURVE",
"-317 -369 OFFCURVE",
"-340 -369 CURVE SMOOTH",
"-383 -369 OFFCURVE",
"-378 -281 OFFCURVE",
"-337 -233 CURVE SMOOTH",
"-306 -194 OFFCURVE",
"-244 -160 OFFCURVE",
"-190 -153 CURVE SMOOTH",
"-152 -148 OFFCURVE",
"-151 -94 OFFCURVE",
"-187 -94 CURVE SMOOTH",
"-281 -94 OFFCURVE",
"-456 -221 OFFCURVE",
"-456 -365 CURVE SMOOTH",
"-456 -417 OFFCURVE",
"-429 -438 OFFCURVE",
"-389 -438 CURVE SMOOTH"
);
}
);
width = 0;
}
);
script = telugu;
category = Mark;
subCategory = Nonspacing;
},
{
color = 8;
glyphname = tlDDAc2.following;
lastChange = "2015-12-16 10:37:38 +0000";
layers = (
{
layerId = "59118767-2CA9-48AA-9373-694D24C960D8";
name = Regular;
paths = (
{
closed = 1;
nodes = (
"163 -438 OFFCURVE",
"226 -409 OFFCURVE",
"269 -340 CURVE",
"229 -366 LINE",
"248 -408 OFFCURVE",
"288 -438 OFFCURVE",
"336 -438 CURVE SMOOTH",
"436 -438 OFFCURVE",
"506 -355 OFFCURVE",
"506 -282 CURVE SMOOTH",
"506 -221 OFFCURVE",
"469 -189 OFFCURVE",
"430 -189 CURVE SMOOTH",
"399 -189 OFFCURVE",
"365 -209 OFFCURVE",
"346 -250 CURVE SMOOTH",
"332 -283 OFFCURVE",
"355 -308 OFFCURVE",
"380 -289 CURVE SMOOTH",
"390 -281 OFFCURVE",
"401 -273 OFFCURVE",
"413 -273 CURVE SMOOTH",
"459 -273 OFFCURVE",
"466 -366 OFFCURVE",
"370 -366 CURVE SMOOTH",
"331 -366 OFFCURVE",
"303 -325 OFFCURVE",
"296 -299 CURVE SMOOTH",
"293 -289 OFFCURVE",
"287 -283 OFFCURVE",
"278 -283 CURVE SMOOTH",
"269 -283 OFFCURVE",
"259 -289 OFFCURVE",
"252 -300 CURVE",
"222 -340 OFFCURVE",
"189 -369 OFFCURVE",
"166 -369 CURVE SMOOTH",
"123 -369 OFFCURVE",
"128 -281 OFFCURVE",
"169 -233 CURVE SMOOTH",
"200 -194 OFFCURVE",
"262 -160 OFFCURVE",
"316 -153 CURVE SMOOTH",
"354 -148 OFFCURVE",
"355 -94 OFFCURVE",
"319 -94 CURVE SMOOTH",
"225 -94 OFFCURVE",
"50 -221 OFFCURVE",
"50 -365 CURVE SMOOTH",
"50 -417 OFFCURVE",
"77 -438 OFFCURVE",
"117 -438 CURVE SMOOTH"
);
}
);
width = 506;
}
);
script = telugu;
category = Mark;
subCategory = Spacing;
},
{
color = 7;
glyphname = tlDDHAc2;
lastChange = "2015-12-19 09:32:59 +0000";
layers = (
{
anchors = (
{
name = _bottom;
position = "{-228, 0}";
},
{
name = bottom;
position = "{-228, -538}";
}
);
layerId = "59118767-2CA9-48AA-9373-694D24C960D8";
name = Regular;
paths = (
{
closed = 1;
nodes = (
"-343 -438 OFFCURVE",
"-280 -409 OFFCURVE",
"-237 -340 CURVE",
"-277 -366 LINE",
"-258 -408 OFFCURVE",
"-218 -438 OFFCURVE",
"-170 -438 CURVE SMOOTH",
"-70 -438 OFFCURVE",
"0 -355 OFFCURVE",
"0 -282 CURVE SMOOTH",
"0 -221 OFFCURVE",
"-37 -189 OFFCURVE",
"-76 -189 CURVE SMOOTH",
"-107 -189 OFFCURVE",
"-141 -209 OFFCURVE",
"-160 -250 CURVE SMOOTH",
"-174 -283 OFFCURVE",
"-151 -308 OFFCURVE",
"-126 -289 CURVE SMOOTH",
"-116 -281 OFFCURVE",
"-105 -273 OFFCURVE",
"-93 -273 CURVE SMOOTH",
"-47 -273 OFFCURVE",
"-40 -366 OFFCURVE",
"-136 -366 CURVE SMOOTH",
"-175 -366 OFFCURVE",
"-203 -325 OFFCURVE",
"-210 -299 CURVE SMOOTH",
"-213 -289 OFFCURVE",
"-219 -283 OFFCURVE",
"-228 -283 CURVE SMOOTH",
"-237 -283 OFFCURVE",
"-247 -289 OFFCURVE",
"-254 -300 CURVE",
"-284 -340 OFFCURVE",
"-317 -369 OFFCURVE",
"-340 -369 CURVE SMOOTH",
"-383 -369 OFFCURVE",
"-378 -281 OFFCURVE",
"-337 -233 CURVE SMOOTH",
"-306 -194 OFFCURVE",
"-244 -160 OFFCURVE",
"-190 -153 CURVE SMOOTH",
"-152 -148 OFFCURVE",
"-151 -94 OFFCURVE",
"-187 -94 CURVE SMOOTH",
"-281 -94 OFFCURVE",
"-456 -221 OFFCURVE",
"-456 -365 CURVE SMOOTH",
"-456 -417 OFFCURVE",
"-429 -438 OFFCURVE",
"-389 -438 CURVE SMOOTH"
);
},
{
closed = 1;
nodes = (
"-262 -531 OFFCURVE",
"-234 -506 OFFCURVE",
"-239 -485 CURVE SMOOTH",
"-241 -473 OFFCURVE",
"-243 -462 OFFCURVE",
"-249 -448 CURVE SMOOTH",
"-256 -431 OFFCURVE",
"-264 -419 OFFCURVE",
"-273 -419 CURVE SMOOTH",
"-281 -419 OFFCURVE",
"-291 -426 OFFCURVE",
"-303 -443 CURVE SMOOTH",
"-314 -458 OFFCURVE",
"-324 -472 OFFCURVE",
"-324 -491 CURVE SMOOTH",
"-324 -511 OFFCURVE",
"-305 -531 OFFCURVE",
"-285 -531 CURVE SMOOTH"
);
}
);
width = 0;
}
);
script = telugu;
category = Mark;
subCategory = Nonspacing;
},
{
color = 8;
glyphname = tlDDHAc2.following;
lastChange = "2015-12-16 10:37:38 +0000";
layers = (
{
layerId = "59118767-2CA9-48AA-9373-694D24C960D8";
name = Regular;
paths = (
{
closed = 1;
nodes = (
"163 -438 OFFCURVE",
"226 -409 OFFCURVE",
"269 -340 CURVE",
"229 -366 LINE",
"248 -408 OFFCURVE",
"288 -438 OFFCURVE",
"336 -438 CURVE SMOOTH",
"436 -438 OFFCURVE",
"506 -355 OFFCURVE",
"506 -282 CURVE SMOOTH",
"506 -221 OFFCURVE",
"469 -189 OFFCURVE",
"430 -189 CURVE SMOOTH",
"399 -189 OFFCURVE",
"365 -209 OFFCURVE",
"346 -250 CURVE SMOOTH",
"332 -283 OFFCURVE",
"355 -308 OFFCURVE",
"380 -289 CURVE SMOOTH",
"390 -281 OFFCURVE",
"401 -273 OFFCURVE",
"413 -273 CURVE SMOOTH",
"459 -273 OFFCURVE",
"466 -366 OFFCURVE",
"370 -366 CURVE SMOOTH",
"331 -366 OFFCURVE",
"303 -325 OFFCURVE",
"296 -299 CURVE SMOOTH",
"293 -289 OFFCURVE",
"287 -283 OFFCURVE",
"278 -283 CURVE SMOOTH",
"269 -283 OFFCURVE",
"259 -289 OFFCURVE",
"252 -300 CURVE",
"222 -340 OFFCURVE",
"189 -369 OFFCURVE",
"166 -369 CURVE SMOOTH",
"123 -369 OFFCURVE",
"128 -281 OFFCURVE",
"169 -233 CURVE SMOOTH",
"200 -194 OFFCURVE",
"262 -160 OFFCURVE",
"316 -153 CURVE SMOOTH",
"354 -148 OFFCURVE",
"355 -94 OFFCURVE",
"319 -94 CURVE SMOOTH",
"225 -94 OFFCURVE",
"50 -221 OFFCURVE",
"50 -365 CURVE SMOOTH",
"50 -417 OFFCURVE",
"77 -438 OFFCURVE",
"117 -438 CURVE SMOOTH"
);
},
{
closed = 1;
nodes = (
"244 -531 OFFCURVE",
"272 -506 OFFCURVE",
"267 -485 CURVE SMOOTH",
"265 -473 OFFCURVE",
"263 -462 OFFCURVE",
"257 -448 CURVE SMOOTH",
"250 -431 OFFCURVE",
"242 -419 OFFCURVE",
"233 -419 CURVE SMOOTH",
"225 -419 OFFCURVE",
"215 -426 OFFCURVE",
"203 -443 CURVE SMOOTH",
"192 -458 OFFCURVE",
"182 -472 OFFCURVE",
"182 -491 CURVE SMOOTH",
"182 -511 OFFCURVE",
"201 -531 OFFCURVE",
"221 -531 CURVE SMOOTH"
);
}
);
width = 506;
}
);
script = telugu;
category = Mark;
subCategory = Spacing;
},
{
color = 7;
glyphname = tlNNAc2;
lastChange = "2015-12-19 09:33:07 +0000";
layers = (
{
anchors = (
{
name = _bottom;
position = "{-238, 0}";
},
{
name = bottom;
position = "{-238, -438}";
}
);
guideLines = (
{
position = "{1079, -396}";
}
);
layerId = "59118767-2CA9-48AA-9373-694D24C960D8";
name = Regular;
paths = (
{
closed = 1;
nodes = (
"-378 -439 OFFCURVE",
"-342 -425 OFFCURVE",
"-303 -390 CURVE SMOOTH",
"-270 -361 OFFCURVE",
"-296 -328 OFFCURVE",
"-329 -351 CURVE SMOOTH",
"-342 -360 OFFCURVE",
"-356 -366 OFFCURVE",
"-369 -366 CURVE SMOOTH",
"-389 -366 OFFCURVE",
"-404 -355 OFFCURVE",
"-404 -337 CURVE SMOOTH",
"-404 -320 OFFCURVE",
"-390 -298 OFFCURVE",
"-364 -278 CURVE SMOOTH",
"-349 -266 OFFCURVE",
"-335 -255 OFFCURVE",
"-335 -242 CURVE SMOOTH",
"-335 -226 OFFCURVE",
"-352 -224 OFFCURVE",
"-370 -224 CURVE SMOOTH",
"-393 -224 OFFCURVE",
"-406 -205 OFFCURVE",
"-406 -186 CURVE SMOOTH",
"-406 -168 OFFCURVE",
"-390 -150 OFFCURVE",
"-362 -150 CURVE SMOOTH",
"-329 -150 OFFCURVE",
"-285 -185 OFFCURVE",
"-261 -209 CURVE SMOOTH",
"-254 -216 OFFCURVE",
"-234 -234 OFFCURVE",
"-220 -217 CURVE SMOOTH",
"-192 -183 OFFCURVE",
"-160 -169 OFFCURVE",
"-133 -169 CURVE SMOOTH",
"-94 -169 OFFCURVE",
"-63 -207 OFFCURVE",
"-63 -257 CURVE SMOOTH",
"-63 -318 OFFCURVE",
"-92 -361 OFFCURVE",
"-136 -361 CURVE SMOOTH",
"-158 -361 OFFCURVE",
"-166 -348 OFFCURVE",
"-166 -335 CURVE SMOOTH",
"-166 -307 OFFCURVE",
"-143 -302 OFFCURVE",
"-143 -292 CURVE SMOOTH",
"-143 -282 OFFCURVE",
"-154 -274 OFFCURVE",
"-168 -274 CURVE SMOOTH",
"-178 -274 OFFCURVE",
"-190 -278 OFFCURVE",
"-201 -288 CURVE SMOOTH",
"-217 -302 OFFCURVE",
"-236 -326 OFFCURVE",
"-236 -358 CURVE SMOOTH",
"-236 -411 OFFCURVE",
"-205 -436 OFFCURVE",
"-165 -436 CURVE SMOOTH",
"-60 -436 OFFCURVE",
"0 -311 OFFCURVE",
"0 -212 CURVE SMOOTH",
"0 -147 OFFCURVE",
"-28 -93 OFFCURVE",
"-94 -93 CURVE SMOOTH",
"-148 -93 OFFCURVE",
"-206 -135 OFFCURVE",
"-240 -187 CURVE",
"-236 -191 LINE",
"-186 -178 LINE",
"-216 -135 OFFCURVE",
"-269 -92 OFFCURVE",
"-333 -92 CURVE SMOOTH",
"-400 -92 OFFCURVE",
"-473 -133 OFFCURVE",
"-473 -211 CURVE SMOOTH",
"-473 -247 OFFCURVE",
"-445 -277 OFFCURVE",
"-410 -287 CURVE",
"-408 -257 LINE",
"-456 -291 OFFCURVE",
"-476 -333 OFFCURVE",
"-476 -367 CURVE SMOOTH",
"-476 -408 OFFCURVE",
"-449 -439 OFFCURVE",
"-406 -439 CURVE SMOOTH"
);
}
);
width = 0;
}
);
script = telugu;
category = Mark;
subCategory = Nonspacing;
},
{
color = 8;
glyphname = tlNNAc2.following;
lastChange = "2015-12-16 10:37:38 +0000";
layers = (
{
guideLines = (
{
position = "{1605, -396}";
}
);
layerId = "59118767-2CA9-48AA-9373-694D24C960D8";
name = Regular;
paths = (
{
closed = 1;
nodes = (
"148 -439 OFFCURVE",
"184 -425 OFFCURVE",
"223 -390 CURVE SMOOTH",
"256 -361 OFFCURVE",
"230 -328 OFFCURVE",
"197 -351 CURVE SMOOTH",
"184 -360 OFFCURVE",
"170 -366 OFFCURVE",
"157 -366 CURVE SMOOTH",
"137 -366 OFFCURVE",
"122 -355 OFFCURVE",
"122 -337 CURVE SMOOTH",
"122 -320 OFFCURVE",
"136 -298 OFFCURVE",
"162 -278 CURVE SMOOTH",
"177 -266 OFFCURVE",
"191 -255 OFFCURVE",
"191 -242 CURVE SMOOTH",
"191 -226 OFFCURVE",
"174 -224 OFFCURVE",
"156 -224 CURVE SMOOTH",
"133 -224 OFFCURVE",
"120 -205 OFFCURVE",
"120 -186 CURVE SMOOTH",
"120 -168 OFFCURVE",
"136 -150 OFFCURVE",
"164 -150 CURVE SMOOTH",
"197 -150 OFFCURVE",
"241 -185 OFFCURVE",
"265 -209 CURVE SMOOTH",
"272 -216 OFFCURVE",
"292 -234 OFFCURVE",
"306 -217 CURVE SMOOTH",
"334 -183 OFFCURVE",
"366 -169 OFFCURVE",
"393 -169 CURVE SMOOTH",
"432 -169 OFFCURVE",
"463 -207 OFFCURVE",
"463 -257 CURVE SMOOTH",
"463 -318 OFFCURVE",
"434 -361 OFFCURVE",
"390 -361 CURVE SMOOTH",
"368 -361 OFFCURVE",
"360 -348 OFFCURVE",
"360 -335 CURVE SMOOTH",
"360 -307 OFFCURVE",
"383 -302 OFFCURVE",
"383 -292 CURVE SMOOTH",
"383 -282 OFFCURVE",
"372 -274 OFFCURVE",
"358 -274 CURVE SMOOTH",
"348 -274 OFFCURVE",
"336 -278 OFFCURVE",
"325 -288 CURVE SMOOTH",
"309 -302 OFFCURVE",
"290 -326 OFFCURVE",
"290 -358 CURVE SMOOTH",
"290 -411 OFFCURVE",
"321 -436 OFFCURVE",
"361 -436 CURVE SMOOTH",
"466 -436 OFFCURVE",
"526 -311 OFFCURVE",
"526 -212 CURVE SMOOTH",
"526 -147 OFFCURVE",
"498 -93 OFFCURVE",
"432 -93 CURVE SMOOTH",
"378 -93 OFFCURVE",
"320 -135 OFFCURVE",
"286 -187 CURVE",
"290 -191 LINE",
"340 -178 LINE",
"310 -135 OFFCURVE",
"257 -92 OFFCURVE",
"193 -92 CURVE SMOOTH",
"126 -92 OFFCURVE",
"53 -133 OFFCURVE",
"53 -211 CURVE SMOOTH",
"53 -247 OFFCURVE",
"81 -277 OFFCURVE",
"116 -287 CURVE",
"118 -257 LINE",
"14 -331 OFFCURVE",
"40 -439 OFFCURVE",
"120 -439 CURVE SMOOTH"
);
}
);
width = 526;
}
);
script = telugu;
category = Mark;
subCategory = Spacing;
},
{
color = 7;
glyphname = tlTAc2.01;
lastChange = "2015-12-19 09:33:17 +0000";
layers = (
{
anchors = (
{
name = _bottom;
position = "{-226, 0}";
},
{
name = bottom;
position = "{-226, -438}";
}
);
layerId = "59118767-2CA9-48AA-9373-694D24C960D8";
name = Regular;
paths = (
{
closed = 1;
nodes = (
"-301 -404 OFFCURVE",
"-181 -400 OFFCURVE",
"-103 -358 CURVE SMOOTH",
"-40 -325 OFFCURVE",
"0 -265 OFFCURVE",
"0 -196 CURVE SMOOTH",
"0 -140 OFFCURVE",
"-39 -92 OFFCURVE",
"-111 -92 CURVE SMOOTH",
"-220 -92 OFFCURVE",
"-290 -216 OFFCURVE",
"-250 -317 CURVE SMOOTH",
"-241 -341 OFFCURVE",
"-214 -317 OFFCURVE",
"-208 -306 CURVE",
"-236 -315 OFFCURVE",
"-249 -325 OFFCURVE",
"-296 -320 CURVE SMOOTH",
"-381 -311 OFFCURVE",
"-401 -284 OFFCURVE",
"-417 -284 CURVE SMOOTH",
"-430 -284 OFFCURVE",
"-453 -310 OFFCURVE",
"-453 -340 CURVE SMOOTH",
"-453 -372 OFFCURVE",
"-418 -384 OFFCURVE",
"-399 -387 CURVE SMOOTH"
);
},
{
closed = 1;
nodes = (
"-182 -297 OFFCURVE",
"-202 -269 OFFCURVE",
"-202 -239 CURVE SMOOTH",
"-202 -199 OFFCURVE",
"-178 -172 OFFCURVE",
"-131 -172 CURVE SMOOTH",
"-94 -172 OFFCURVE",
"-70 -197 OFFCURVE",
"-70 -233 CURVE SMOOTH",
"-70 -276 OFFCURVE",
"-105 -297 OFFCURVE",
"-140 -297 CURVE SMOOTH"
);
}
);
width = 0;
}
);
script = telugu;
category = Mark;
subCategory = Nonspacing;
},
{
color = 7;
glyphname = tlTAc2;
lastChange = "2015-12-19 09:33:24 +0000";
layers = (
{
anchors = (
{
name = _bottom;
position = "{-272, 0}";
},
{
name = bottom;
position = "{-272, -438}";
}
);
layerId = "59118767-2CA9-48AA-9373-694D24C960D8";
name = Regular;
paths = (
{
closed = 1;
nodes = (
"-460 -405 OFFCURVE",
"-363 -405 CURVE SMOOTH",
"-175 -405 OFFCURVE",
"0 -352 OFFCURVE",
"0 -197 CURVE SMOOTH",
"0 -141 OFFCURVE",
"-39 -93 OFFCURVE",
"-111 -93 CURVE SMOOTH",
"-220 -93 OFFCURVE",
"-290 -217 OFFCURVE",
"-250 -318 CURVE",
"-234 -330 OFFCURVE",
"-214 -318 OFFCURVE",
"-208 -307 CURVE",
"-236 -316 OFFCURVE",
"-279 -324 OFFCURVE",
"-326 -324 CURVE SMOOTH",
"-457 -324 OFFCURVE",
"-492 -280 OFFCURVE",
"-508 -280 CURVE SMOOTH",
"-521 -280 OFFCURVE",
"-544 -313 OFFCURVE",
"-544 -343 CURVE SMOOTH",
"-544 -387 OFFCURVE"
);
},
{
closed = 1;
nodes = (
"-182 -298 OFFCURVE",
"-202 -270 OFFCURVE",
"-202 -240 CURVE SMOOTH",
"-202 -200 OFFCURVE",
"-178 -173 OFFCURVE",
"-131 -173 CURVE SMOOTH",
"-94 -173 OFFCURVE",
"-70 -198 OFFCURVE",
"-70 -234 CURVE SMOOTH",
"-70 -277 OFFCURVE",
"-105 -298 OFFCURVE",
"-140 -298 CURVE SMOOTH"
);
}
);
width = 0;
}
);
script = telugu;
category = Mark;
subCategory = Nonspacing;
},
{
color = 8;
glyphname = tlTAc2.following;
lastChange = "2015-12-16 10:37:38 +0000";
layers = (
{
layerId = "59118767-2CA9-48AA-9373-694D24C960D8";
name = Regular;
paths = (
{
closed = 1;
nodes = (
"133 -405 OFFCURVE",
"230 -405 CURVE SMOOTH",
"418 -405 OFFCURVE",
"593 -352 OFFCURVE",
"593 -197 CURVE SMOOTH",
"593 -141 OFFCURVE",
"554 -93 OFFCURVE",
"482 -93 CURVE SMOOTH",
"373 -93 OFFCURVE",
"303 -217 OFFCURVE",
"343 -318 CURVE",
"359 -330 OFFCURVE",
"379 -318 OFFCURVE",
"385 -307 CURVE",
"357 -316 OFFCURVE",
"314 -324 OFFCURVE",
"267 -324 CURVE SMOOTH",
"136 -324 OFFCURVE",
"102 -280 OFFCURVE",
"86 -280 CURVE SMOOTH",
"73 -280 OFFCURVE",
"50 -313 OFFCURVE",
"50 -343 CURVE SMOOTH",
"50 -387 OFFCURVE"
);
},
{
closed = 1;
nodes = (
"411 -298 OFFCURVE",
"391 -270 OFFCURVE",
"391 -240 CURVE SMOOTH",
"391 -200 OFFCURVE",
"415 -173 OFFCURVE",
"462 -173 CURVE SMOOTH",
"499 -173 OFFCURVE",
"523 -198 OFFCURVE",
"523 -234 CURVE SMOOTH",
"523 -277 OFFCURVE",
"488 -298 OFFCURVE",
"453 -298 CURVE SMOOTH"
);
}
);
width = 593;
}
);
script = telugu;
category = Mark;
subCategory = Spacing;
},
{
color = 7;
glyphname = tlTAc2.03;
lastChange = "2015-12-19 09:33:33 +0000";
layers = (
{
anchors = (
{
name = _bottom;
position = "{0, 0}";
},
{
name = bottom;
position = "{0, -438}";
}
);
layerId = "59118767-2CA9-48AA-9373-694D24C960D8";
name = Regular;
paths = (
{
closed = 1;
nodes = (
"-335 -405 OFFCURVE",
"-128 -397 OFFCURVE",
"-58 -327 CURVE SMOOTH",
"-21 -293 OFFCURVE",
"0 -247 OFFCURVE",
"0 -197 CURVE SMOOTH",
"0 -141 OFFCURVE",
"-39 -93 OFFCURVE",
"-111 -93 CURVE SMOOTH",
"-220 -93 OFFCURVE",
"-290 -217 OFFCURVE",
"-250 -318 CURVE",
"-234 -330 OFFCURVE",
"-214 -318 OFFCURVE",
"-208 -307 CURVE",
"-243 -318 OFFCURVE",
"-304 -324 OFFCURVE",
"-369 -324 CURVE SMOOTH",
"-440 -324 OFFCURVE",
"-516 -317 OFFCURVE",
"-561 -305 CURVE SMOOTH",
"-598 -296 OFFCURVE",
"-620 -287 OFFCURVE",
"-628 -287 CURVE SMOOTH",
"-641 -287 OFFCURVE",
"-664 -320 OFFCURVE",
"-664 -350 CURVE SMOOTH",
"-664 -382 OFFCURVE",
"-629 -394 OFFCURVE",
"-610 -397 CURVE SMOOTH",
"-581 -402 OFFCURVE",
"-500 -405 OFFCURVE",
"-455 -405 CURVE SMOOTH"
);
},
{
closed = 1;
nodes = (
"-182 -298 OFFCURVE",
"-202 -270 OFFCURVE",
"-202 -240 CURVE SMOOTH",
"-202 -200 OFFCURVE",
"-178 -173 OFFCURVE",
"-131 -173 CURVE SMOOTH",
"-94 -173 OFFCURVE",
"-70 -198 OFFCURVE",
"-70 -234 CURVE SMOOTH",
"-70 -277 OFFCURVE",
"-105 -298 OFFCURVE",
"-140 -298 CURVE SMOOTH"
);
}
);
width = 0;
}
);
script = telugu;
category = Mark;
subCategory = Nonspacing;
},
{
color = 7;
glyphname = tlTAIlengthmarkc2.01;
lastChange = "2015-12-19 09:33:43 +0000";
layers = (
{
anchors = (
{
name = _bottom;
position = "{-228, 0}";
},
{
name = bottom;
position = "{-228, -711}";
}
);
guideLines = (
{
angle = 90;
position = "{-453, -510}";
}
);
layerId = "59118767-2CA9-48AA-9373-694D24C960D8";
name = Regular;
paths = (
{
closed = 1;
nodes = (
"-301 -404 OFFCURVE",
"-181 -400 OFFCURVE",
"-103 -358 CURVE SMOOTH",
"-40 -325 OFFCURVE",
"0 -265 OFFCURVE",
"0 -196 CURVE SMOOTH",
"0 -140 OFFCURVE",
"-39 -92 OFFCURVE",
"-111 -92 CURVE SMOOTH",
"-220 -92 OFFCURVE",
"-290 -216 OFFCURVE",
"-250 -317 CURVE SMOOTH",
"-241 -341 OFFCURVE",
"-214 -317 OFFCURVE",
"-208 -306 CURVE",
"-236 -315 OFFCURVE",
"-249 -325 OFFCURVE",
"-296 -320 CURVE SMOOTH",
"-381 -311 OFFCURVE",
"-401 -284 OFFCURVE",
"-417 -284 CURVE SMOOTH",
"-430 -284 OFFCURVE",
"-453 -310 OFFCURVE",
"-453 -340 CURVE SMOOTH",
"-453 -372 OFFCURVE",
"-418 -384 OFFCURVE",
"-399 -387 CURVE SMOOTH"
);
},
{
closed = 1;
nodes = (
"-182 -297 OFFCURVE",
"-202 -269 OFFCURVE",
"-202 -239 CURVE SMOOTH",
"-202 -199 OFFCURVE",
"-178 -172 OFFCURVE",
"-131 -172 CURVE SMOOTH",
"-94 -172 OFFCURVE",
"-70 -197 OFFCURVE",
"-70 -233 CURVE SMOOTH",
"-70 -276 OFFCURVE",
"-105 -297 OFFCURVE",
"-140 -297 CURVE SMOOTH"
);
},
{
closed = 1;
nodes = (
"-85 -710 LINE SMOOTH",
"-47 -710 OFFCURVE",
"-29 -701 OFFCURVE",
"-18 -685 CURVE SMOOTH",
"-11 -675 OFFCURVE",
"0 -651 OFFCURVE",
"0 -636 CURVE SMOOTH",
"0 -625 OFFCURVE",
"-7 -622 OFFCURVE",
"-28 -622 CURVE SMOOTH",
"-56 -622 OFFCURVE",
"-142 -629 OFFCURVE",
"-215 -626 CURVE",
"-184 -602 OFFCURVE",
"-165 -561 OFFCURVE",
"-165 -525 CURVE SMOOTH",
"-165 -466 OFFCURVE",
"-214 -434 OFFCURVE",
"-273 -434 CURVE SMOOTH",
"-371 -434 OFFCURVE",
"-456 -512 OFFCURVE",
"-456 -599 CURVE SMOOTH",
"-456 -670 OFFCURVE",
"-405 -710 OFFCURVE",
"-319 -710 CURVE SMOOTH"
);
},
{
closed = 1;
nodes = (
"-329 -627 OFFCURVE",
"-380 -610 OFFCURVE",
"-380 -566 CURVE SMOOTH",
"-380 -527 OFFCURVE",
"-345 -504 OFFCURVE",
"-308 -504 CURVE SMOOTH",
"-261 -504 OFFCURVE",
"-240 -538 OFFCURVE",
"-240 -569 CURVE SMOOTH",
"-240 -591 OFFCURVE",
"-251 -614 OFFCURVE",
"-272 -628 CURVE"
);
}
);
width = 0;
}
);
script = telugu;
category = Mark;
subCategory = Nonspacing;
},
{
color = 7;
glyphname = tlTAIlengthmarkc2.02;
lastChange = "2015-12-19 09:33:52 +0000";
layers = (
{
anchors = (
{
name = _bottom;
position = "{-283, 0}";
},
{
name = bottom;
position = "{-283, -718}";
}
);
layerId = "59118767-2CA9-48AA-9373-694D24C960D8";
name = Regular;
paths = (
{
closed = 1;
nodes = (
"-460 -405 OFFCURVE",
"-363 -405 CURVE SMOOTH",
"-175 -405 OFFCURVE",
"0 -352 OFFCURVE",
"0 -197 CURVE SMOOTH",
"0 -141 OFFCURVE",
"-39 -93 OFFCURVE",
"-111 -93 CURVE SMOOTH",
"-220 -93 OFFCURVE",
"-290 -217 OFFCURVE",
"-250 -318 CURVE",
"-234 -330 OFFCURVE",
"-214 -318 OFFCURVE",
"-208 -307 CURVE",
"-236 -316 OFFCURVE",
"-279 -324 OFFCURVE",
"-326 -324 CURVE SMOOTH",
"-457 -324 OFFCURVE",
"-491 -280 OFFCURVE",
"-507 -280 CURVE SMOOTH",
"-520 -280 OFFCURVE",
"-543 -313 OFFCURVE",
"-543 -343 CURVE SMOOTH",
"-543 -387 OFFCURVE"
);
},
{
closed = 1;
nodes = (
"-182 -298 OFFCURVE",
"-202 -270 OFFCURVE",
"-202 -240 CURVE SMOOTH",
"-202 -200 OFFCURVE",
"-178 -173 OFFCURVE",
"-131 -173 CURVE SMOOTH",
"-94 -173 OFFCURVE",
"-70 -198 OFFCURVE",
"-70 -234 CURVE SMOOTH",
"-70 -277 OFFCURVE",
"-105 -298 OFFCURVE",
"-140 -298 CURVE SMOOTH"
);
},
{
closed = 1;
nodes = (
"-85 -715 LINE SMOOTH",
"-47 -715 OFFCURVE",
"-29 -706 OFFCURVE",
"-18 -690 CURVE SMOOTH",
"-11 -680 OFFCURVE",
"0 -656 OFFCURVE",
"0 -641 CURVE SMOOTH",
"0 -630 OFFCURVE",
"-7 -627 OFFCURVE",
"-28 -627 CURVE SMOOTH",
"-56 -627 OFFCURVE",
"-252 -634 OFFCURVE",
"-325 -631 CURVE",
"-294 -607 OFFCURVE",
"-275 -566 OFFCURVE",
"-275 -530 CURVE SMOOTH",
"-275 -471 OFFCURVE",
"-324 -439 OFFCURVE",
"-383 -439 CURVE SMOOTH",
"-481 -439 OFFCURVE",
"-566 -517 OFFCURVE",
"-566 -604 CURVE SMOOTH",
"-566 -675 OFFCURVE",
"-515 -715 OFFCURVE",
"-429 -715 CURVE SMOOTH"
);
},
{
closed = 1;
nodes = (
"-439 -632 OFFCURVE",
"-490 -615 OFFCURVE",
"-490 -571 CURVE SMOOTH",
"-490 -532 OFFCURVE",
"-455 -509 OFFCURVE",
"-418 -509 CURVE SMOOTH",
"-371 -509 OFFCURVE",
"-350 -543 OFFCURVE",
"-350 -574 CURVE SMOOTH",
"-350 -596 OFFCURVE",
"-361 -619 OFFCURVE",
"-382 -633 CURVE"
);
}
);
width = 0;
}
);
script = telugu;
category = Mark;
subCategory = Nonspacing;
},
{
color = 7;
glyphname = tlTAIlengthmarkc2.03;
lastChange = "2015-12-19 09:34:02 +0000";
layers = (
{
anchors = (
{
name = _bottom;
position = "{-348, 0}";
},
{
name = bottom;
position = "{-348, -714}";
}
);
layerId = "59118767-2CA9-48AA-9373-694D24C960D8";
name = Regular;
paths = (
{
closed = 1;
nodes = (
"-335 -405 OFFCURVE",
"-128 -397 OFFCURVE",
"-58 -327 CURVE SMOOTH",
"-21 -293 OFFCURVE",
"0 -247 OFFCURVE",
"0 -197 CURVE SMOOTH",
"0 -141 OFFCURVE",
"-39 -93 OFFCURVE",
"-111 -93 CURVE SMOOTH",
"-220 -93 OFFCURVE",
"-290 -217 OFFCURVE",
"-250 -318 CURVE",
"-234 -330 OFFCURVE",
"-214 -318 OFFCURVE",
"-208 -307 CURVE",
"-243 -318 OFFCURVE",
"-304 -324 OFFCURVE",
"-369 -324 CURVE SMOOTH",
"-440 -324 OFFCURVE",
"-515 -317 OFFCURVE",
"-560 -305 CURVE SMOOTH",
"-597 -296 OFFCURVE",
"-619 -287 OFFCURVE",
"-627 -287 CURVE SMOOTH",
"-640 -287 OFFCURVE",
"-663 -320 OFFCURVE",
"-663 -350 CURVE SMOOTH",
"-663 -382 OFFCURVE",
"-628 -394 OFFCURVE",
"-609 -397 CURVE SMOOTH",
"-580 -402 OFFCURVE",
"-500 -405 OFFCURVE",
"-455 -405 CURVE SMOOTH"
);
},
{
closed = 1;
nodes = (
"-182 -298 OFFCURVE",
"-202 -270 OFFCURVE",
"-202 -240 CURVE SMOOTH",
"-202 -200 OFFCURVE",
"-178 -173 OFFCURVE",
"-131 -173 CURVE SMOOTH",
"-94 -173 OFFCURVE",
"-70 -198 OFFCURVE",
"-70 -234 CURVE SMOOTH",
"-70 -277 OFFCURVE",
"-105 -298 OFFCURVE",
"-140 -298 CURVE SMOOTH"
);
},
{
closed = 1;
nodes = (
"-85 -714 LINE SMOOTH",
"-47 -714 OFFCURVE",
"-29 -705 OFFCURVE",
"-18 -689 CURVE SMOOTH",
"-11 -679 OFFCURVE",
"0 -655 OFFCURVE",
"0 -640 CURVE SMOOTH",
"0 -629 OFFCURVE",
"-7 -626 OFFCURVE",
"-28 -626 CURVE SMOOTH",
"-56 -626 OFFCURVE",
"-382 -633 OFFCURVE",
"-455 -630 CURVE",
"-424 -606 OFFCURVE",
"-405 -565 OFFCURVE",
"-405 -529 CURVE SMOOTH",
"-405 -470 OFFCURVE",
"-454 -438 OFFCURVE",
"-513 -438 CURVE SMOOTH",
"-611 -438 OFFCURVE",
"-696 -516 OFFCURVE",
"-696 -603 CURVE SMOOTH",
"-696 -674 OFFCURVE",
"-645 -714 OFFCURVE",
"-559 -714 CURVE SMOOTH"
);
},
{
closed = 1;
nodes = (
"-569 -631 OFFCURVE",
"-620 -614 OFFCURVE",
"-620 -570 CURVE SMOOTH",
"-620 -531 OFFCURVE",
"-585 -508 OFFCURVE",
"-548 -508 CURVE SMOOTH",
"-501 -508 OFFCURVE",
"-480 -542 OFFCURVE",
"-480 -573 CURVE SMOOTH",
"-480 -595 OFFCURVE",
"-491 -618 OFFCURVE",
"-512 -632 CURVE"
);
}
);
width = 0;
}
);
script = telugu;
category = Mark;
subCategory = Nonspacing;
},
{
color = 7;
glyphname = tlTYAc2;
lastChange = "2015-12-18 11:57:13 +0000";
layers = (
{
layerId = "59118767-2CA9-48AA-9373-694D24C960D8";
name = Regular;
paths = (
{
closed = 1;
nodes = (
"-70 -468 OFFCURVE",
"62 -468 CURVE SMOOTH",
"128 -468 OFFCURVE",
"197 -433 OFFCURVE",
"243 -360 CURVE SMOOTH",
"272 -314 OFFCURVE",
"289 -259 OFFCURVE",
"289 -205 CURVE SMOOTH",
"289 -20 OFFCURVE",
"129 81 OFFCURVE",
"129 243 CURVE SMOOTH",
"129 321 OFFCURVE",
"171 377 OFFCURVE",
"243 377 CURVE SMOOTH",
"283 377 OFFCURVE",
"318 354 OFFCURVE",
"318 315 CURVE SMOOTH",
"318 297 OFFCURVE",
"308 281 OFFCURVE",
"308 271 CURVE SMOOTH",
"308 260 OFFCURVE",
"315 255 OFFCURVE",
"324 255 CURVE SMOOTH",
"360 255 OFFCURVE",
"395 302 OFFCURVE",
"395 351 CURVE SMOOTH",
"395 404 OFFCURVE",
"362 460 OFFCURVE",
"282 460 CURVE SMOOTH",
"163 460 OFFCURVE",
"38 341 OFFCURVE",
"38 206 CURVE SMOOTH",
"38 47 OFFCURVE",
"211 -90 OFFCURVE",
"211 -249 CURVE SMOOTH",
"211 -336 OFFCURVE",
"149 -379 OFFCURVE",
"81 -379 CURVE SMOOTH",
"56 -379 OFFCURVE",
"29 -373 OFFCURVE",
"5 -361 CURVE",
"70 -328 OFFCURVE",
"112 -277 OFFCURVE",
"112 -201 CURVE SMOOTH",
"112 -145 OFFCURVE",
"73 -97 OFFCURVE",
"1 -97 CURVE SMOOTH",
"-87 -97 OFFCURVE",
"-149 -177 OFFCURVE",
"-149 -261 CURVE SMOOTH",
"-149 -357 OFFCURVE"
);
},
{
closed = 1;
nodes = (
"18 -177 OFFCURVE",
"42 -202 OFFCURVE",
"42 -238 CURVE SMOOTH",
"42 -281 OFFCURVE",
"7 -302 OFFCURVE",
"-28 -302 CURVE SMOOTH",
"-70 -302 OFFCURVE",
"-90 -274 OFFCURVE",
"-90 -244 CURVE SMOOTH",
"-90 -204 OFFCURVE",
"-66 -177 OFFCURVE",
"-19 -177 CURVE SMOOTH"
);
},
{
closed = 1;
nodes = (
"-124 -318 LINE",
"-150 -324 OFFCURVE",
"-181 -328 OFFCURVE",
"-214 -328 CURVE SMOOTH",
"-345 -328 OFFCURVE",
"-380 -284 OFFCURVE",
"-396 -284 CURVE SMOOTH",
"-409 -284 OFFCURVE",
"-432 -317 OFFCURVE",
"-432 -347 CURVE SMOOTH",
"-432 -391 OFFCURVE",
"-348 -409 OFFCURVE",
"-251 -409 CURVE SMOOTH",
"-188 -409 OFFCURVE",
"-127 -403 OFFCURVE",
"-74 -390 CURVE"
);
}
);
width = 395;
}
);
script = telugu;
category = Mark;
subCategory = "Spacing ";
},
{
color = 8;
glyphname = tlTYAc2.following;
lastChange = "2015-12-18 17:19:48 +0000";
layers = (
{
layerId = "59118767-2CA9-48AA-9373-694D24C960D8";
name = Regular;
paths = (
{
closed = 1;
nodes = (
"407 -468 OFFCURVE",
"539 -468 CURVE SMOOTH",
"605 -468 OFFCURVE",
"674 -433 OFFCURVE",
"720 -360 CURVE SMOOTH",
"749 -314 OFFCURVE",
"766 -259 OFFCURVE",
"766 -205 CURVE SMOOTH",
"766 -20 OFFCURVE",
"606 81 OFFCURVE",
"606 243 CURVE SMOOTH",
"606 321 OFFCURVE",
"648 377 OFFCURVE",
"720 377 CURVE SMOOTH",
"760 377 OFFCURVE",
"795 354 OFFCURVE",
"795 315 CURVE SMOOTH",
"795 297 OFFCURVE",
"785 281 OFFCURVE",
"785 271 CURVE SMOOTH",
"785 260 OFFCURVE",
"792 255 OFFCURVE",
"801 255 CURVE SMOOTH",
"837 255 OFFCURVE",
"872 302 OFFCURVE",
"872 351 CURVE SMOOTH",
"872 404 OFFCURVE",
"839 460 OFFCURVE",
"759 460 CURVE SMOOTH",
"640 460 OFFCURVE",
"515 341 OFFCURVE",
"515 206 CURVE SMOOTH",
"515 47 OFFCURVE",
"688 -90 OFFCURVE",
"688 -249 CURVE SMOOTH",
"688 -336 OFFCURVE",
"626 -379 OFFCURVE",
"558 -379 CURVE SMOOTH",
"533 -379 OFFCURVE",
"506 -373 OFFCURVE",
"482 -361 CURVE",
"547 -328 OFFCURVE",
"589 -277 OFFCURVE",
"589 -201 CURVE SMOOTH",
"589 -145 OFFCURVE",
"550 -97 OFFCURVE",
"478 -97 CURVE SMOOTH",
"390 -97 OFFCURVE",
"328 -177 OFFCURVE",
"328 -261 CURVE SMOOTH",
"328 -357 OFFCURVE"
);
},
{
closed = 1;
nodes = (
"495 -177 OFFCURVE",
"519 -202 OFFCURVE",
"519 -238 CURVE SMOOTH",
"519 -281 OFFCURVE",
"484 -302 OFFCURVE",
"449 -302 CURVE SMOOTH",
"407 -302 OFFCURVE",
"387 -274 OFFCURVE",
"387 -244 CURVE SMOOTH",
"387 -204 OFFCURVE",
"411 -177 OFFCURVE",
"458 -177 CURVE SMOOTH"
);
},
{
closed = 1;
nodes = (
"353 -318 LINE",
"327 -324 OFFCURVE",
"296 -328 OFFCURVE",
"263 -328 CURVE SMOOTH",
"132 -328 OFFCURVE",
"97 -284 OFFCURVE",
"81 -284 CURVE SMOOTH",
"68 -284 OFFCURVE",
"45 -317 OFFCURVE",
"45 -347 CURVE SMOOTH",
"45 -391 OFFCURVE",
"129 -409 OFFCURVE",
"226 -409 CURVE SMOOTH",
"289 -409 OFFCURVE",
"350 -403 OFFCURVE",
"403 -390 CURVE"
);
}
);
width = 872;
}
);
script = telugu;
category = Mark;
subCategory = Spacing;
},
